{
.appVersion = "1357";
classes = (
{
automatic = 1;

glyphs = (
{
glyphname = A;
lastChange = "2022-05-27 07:16:54 +0000";
layers = (
{
anchors = (
{
name = bottom;
position = "{421, 0}";
},
{
name = ogonek;
position = "{828, 0}";
},
{
name = top;
position = "{421, 750}";
}
);
background = {
paths = (
{
closed = 1;
nodes = (
"862 0 LINE",
"494 750 LINE",
"433 750 LINE",
"799 0 LINE"
);
},
{
closed = 1;
nodes = (
"111 0 LINE",
"477 750 LINE",
"416 750 LINE",
"48 0 LINE"
);
},
{
closed = 1;
nodes = (
"717 200 LINE",
"717 250 LINE",
"185 250 LINE",
"185 200 LINE"
);
}
);
};
layerId = "FAA9A0EB-DB0F-4202-9822-2037CED7424C";
paths = (
{
closed = 1;
nodes = (
"683 200 LINE",
"683 250 LINE",
"151 250 LINE",
"151 200 LINE"
);
},
{
closed = 1;
nodes = (
"393 750 LINE",
"14 0 LINE",
"77 0 LINE",
"446 736 LINE",
"397 736 LINE",
"765 0 LINE",
"828 0 LINE",
"449 750 LINE"
);
}
);
userData = {
KernOnName = A;
};
width = 842;
},
{
anchors = (
{
name = bottom;
position = "{450, 0}";
},
{
name = ogonek;
position = "{892, 0}";
},
{
name = top;
position = "{450, 750}";
}
);
layerId = "E29665B4-7994-459A-9DF7-986ADB216CAB";
paths = (
{
closed = 1;
nodes = (
"708 172 LINE",
"708 281 LINE",
"184 281 LINE",
"184 172 LINE"
);
},
{
closed = 1;
nodes = (
"367 750 LINE",
"7 0 LINE",
"148 0 LINE",
"475 700 LINE",
"424 700 LINE",
"751 0 LINE",
"892 0 LINE",
"532 750 LINE"
);
}
);
userData = {
KernOnName = A;
};
width = 899;
},
{
anchors = (
{
name = bottom;
position = "{498, 0}";
},
{
name = ogonek;
position = "{999, 0}";
},
{
name = top;
position = "{498, 750}";
}
);
background = {
paths = (
{
closed = 1;
nodes = (
"998 0 LINE",
"689 750 LINE",
"439 750 LINE",
"723 0 LINE"
);
},
{
closed = 1;
nodes = (
"291 0 LINE",
"575 750 LINE",
"325 750 LINE",
"16 0 LINE"
);
},
{
closed = 1;
nodes = (
"758 126 LINE",
"758 331 LINE",
"247 331 LINE",
"247 126 LINE"
);
}
);
};
guideLines = (
{
angle = 182.1919;
position = "{407, 20}";
}
);
layerId = "78844910-45F2-4BCF-9A61-7585832DDE30";
paths = (
{
closed = 1;
nodes = (
"749 126 LINE",
"749 331 LINE",
"238 331 LINE",
"238 126 LINE"
);
},
{
closed = 1;
nodes = (
"326 750 LINE",
"-3 0 LINE",
"272 0 LINE",
"531 636 LINE",
"465 636 LINE",
"724 0 LINE",
"999 0 LINE",
"670 750 LINE"
);
}
);
userData = {
KernOnName = A;
};
width = 996;
}
);
leftKerningGroup = A;
rightKerningGroup = A;
unicode = 0041;
},
{
glyphname = "Alpha-latin";
lastChange = "2022-05-27 07:16:54 +0000";
layers = (
{
anchors = (
{
name = bottom;
position = "{440, 0}";
},
{
name = ogonek;
position = "{867, 0}";
},
{
name = top;
position = "{429, 750}";
}
);
layerId = "FAA9A0EB-DB0F-4202-9822-2037CED7424C";
paths = (
{
closed = 1;
nodes = (
"870 0 LINE",
"839 376 LINE",
"870 750 LINE",
"815 750 LINE",
"795 463 LINE",
"813 376 LINE",
"795 290 LINE",
"815 0 LINE"
);
},
{
closed = 1;
nodes = (
"771 610 OFFCURVE",
"626 762 OFFCURVE",
"421 762 CURVE SMOOTH",
"203 762 OFFCURVE",
"53 604 OFFCURVE",
"53 375 CURVE SMOOTH",
"53 146 OFFCURVE",
"203 -12 OFFCURVE",
"421 -12 CURVE SMOOTH",
"627 -12 OFFCURVE",
"771 142 OFFCURVE",
"836 376 CURVE"
);
},
{
closed = 1;
nodes = (
"111 574 OFFCURVE",
"239 710 OFFCURVE",
"425 710 CURVE SMOOTH",
"601 710 OFFCURVE",
"721 574 OFFCURVE",
"797 376 CURVE",
"721 176 OFFCURVE",
"600 40 OFFCURVE",
"424 40 CURVE SMOOTH",
"238 40 OFFCURVE",
"111 177 OFFCURVE",
"111 376 CURVE SMOOTH"
);
}
);
width = 952;
},
{
anchors = (
{
name = bottom;
position = "{443, 0}";
},
{
name = ogonek;
position = "{902, 0}";
},
{
name = top;
position = "{453, 750}";
}
);
layerId = "E29665B4-7994-459A-9DF7-986ADB216CAB";
paths = (
{
closed = 1;
nodes = (
"904 0 LINE",
"865 376 LINE",
"904 750 LINE",
"777 750 LINE",
"750 470 LINE",
"776 376 LINE",
"750 281 LINE",
"777 0 LINE"
);
},
{
closed = 1;
nodes = (
"767 613 OFFCURVE",
"621 764 OFFCURVE",
"416 764 CURVE SMOOTH",
"196 764 OFFCURVE",
"46 607 OFFCURVE",
"46 375 CURVE SMOOTH",
"46 143 OFFCURVE",
"196 -14 OFFCURVE",
"416 -14 CURVE SMOOTH",
"622 -14 OFFCURVE",
"765 140 OFFCURVE",
"816 376 CURVE"
);
},
{
closed = 1;
nodes = (
"180 535 OFFCURVE",
"288 648 OFFCURVE",
"445 648 CURVE SMOOTH",
"592 648 OFFCURVE",
"702 535 OFFCURVE",
"760 376 CURVE",
"702 215 OFFCURVE",
"591 102 OFFCURVE",
"445 102 CURVE SMOOTH",
"287 102 OFFCURVE",
"180 216 OFFCURVE",
"180 376 CURVE SMOOTH"
);
}
);
width = 971;
},
{
anchors = (
{
name = bottom;
position = "{436, 0}";
},
{
name = ogonek;
position = "{949, 0}";
},
{
name = top;
position = "{481, 750}";
}
);
layerId = "78844910-45F2-4BCF-9A61-7585832DDE30";
paths = (
{
closed = 1;
nodes = (
"949 0 LINE",
"897 375 LINE",
"949 750 LINE",
"703 750 LINE",
"666 481 LINE",
"703 375 LINE",
"666 266 LINE",
"703 0 LINE"
);
},
{
closed = 1;
nodes = (
"748 617 OFFCURVE",
"605 768 OFFCURVE",
"403 768 CURVE SMOOTH",
"182 768 OFFCURVE",
"34 611 OFFCURVE",
"34 375 CURVE SMOOTH",
"34 139 OFFCURVE",
"182 -18 OFFCURVE",
"403 -18 CURVE SMOOTH",
"606 -18 OFFCURVE",
"746 138 OFFCURVE",
"771 375 CURVE"
);
},
{
closed = 1;
nodes = (
"294 470 OFFCURVE",
"367 540 OFFCURVE",
"473 540 CURVE SMOOTH",
"567 540 OFFCURVE",
"660 470 OFFCURVE",
"688 375 CURVE",
"660 281 OFFCURVE",
"567 210 OFFCURVE",
"473 210 CURVE SMOOTH",
"367 210 OFFCURVE",
"294 281 OFFCURVE",
"294 375 CURVE SMOOTH"
);
}
);
width = 990;
}
);
leftKerningGroup = "Alpha-latin";
unicode = 2C6D;
},
{
color = 2;
glyphname = Astroke;
lastChange = "2022-05-27 10:43:31 +0000";
layers = (
{
components = (
{
name = A;
}
);
layerId = "FAA9A0EB-DB0F-4202-9822-2037CED7424C";
paths = (
{
closed = 1;
nodes = (
"214 -122 LINE",
"266 -122 LINE",
"701 872 LINE",
"649 872 LINE"
);
}
);
width = 842;
},
{
components = (
{
name = A;
transform = "{1, 0, 0, 1, 1, 0}";
}
);
layerId = "E29665B4-7994-459A-9DF7-986ADB216CAB";
paths = (
{
closed = 1;
nodes = (
"209 -122 LINE",
"317 -122 LINE",
"722 872 LINE",
"614 872 LINE"
);
}
);
width = 901;
},
{
components = (
{
name = A;
}
);
layerId = "78844910-45F2-4BCF-9A61-7585832DDE30";
paths = (
{
closed = 1;
nodes = (
"280 -122 LINE",
"415 -122 LINE",
"800 872 LINE",
"665 872 LINE"
);
}
);
width = 996;
},
{
associatedMasterId = "78844910-45F2-4BCF-9A61-7585832DDE30";
components = (
{
name = A;
}
);
layerId = "AC09FF6B-9AB8-4E61-85D6-95632D660ED2";
name = "May 27 22, 12:43";
paths = (
{
closed = 1;
nodes = (
"302 -122 LINE",
"504 -122 LINE",
"889 872 LINE",
"687 872 LINE"
);
}
);
width = 996;
}
);
leftKerningGroup = A;
rightKerningGroup = A;
unicode = 023A;
},
{
glyphname = AE;
lastChange = "2022-05-27 07:16:54 +0000";
layers = (
{
anchors = (
{
name = bottom;
position = "{644, 0}";
},
{
name = top;
position = "{744, 750}";
}
);
layerId = "FAA9A0EB-DB0F-4202-9822-2037CED7424C";
paths = (
{
closed = 1;
nodes = (
"1131 350 LINE",
"1131 400 LINE",
"617 400 LINE",
"474 700 LINE",
"1151 700 LINE",
"1151 750 LINE",
"374 750 LINE",
"16 0 LINE",
"79 0 LINE",
"433 745 LINE",
"393 745 LINE",
"747 0 LINE",
"1227 0 LINE",
"1227 50 LINE",
"783 50 LINE",
"641 350 LINE"
);
},
{
closed = 1;
nodes = (
"665 200 LINE",
"665 250 LINE",
"143 250 LINE",
"143 200 LINE"
);
}
);
userData = {
KernOnName = AE;
};
width = 1241;
},
{
anchors = (
{
name = bottom;
position = "{640, 0}";
},
{
name = top;
position = "{740, 750}";
}
);
layerId = "E29665B4-7994-459A-9DF7-986ADB216CAB";
paths = (
{
closed = 1;
nodes = (
"1151 320 LINE",
"1151 430 LINE",
"671 430 LINE",
"584 636 LINE",
"1175 636 LINE",
"1175 750 LINE",
"346 750 LINE",
"10 0 LINE",
"151 0 LINE",
"466 721 LINE",
"411 721 LINE",
"717 0 LINE",
"1216 0 LINE",
"1216 114 LINE",
"806 114 LINE",
"718 320 LINE"
);
},
{
closed = 1;
nodes = (
"679 172 LINE",
"679 281 LINE",
"173 281 LINE",
"173 172 LINE"
);
}
);
userData = {
KernOnName = AE;
};
width = 1248;
},
{
anchors = (
{
name = bottom;
position = "{632, 0}";
},
{
name = top;
position = "{742, 750}";
}
);
layerId = "78844910-45F2-4BCF-9A61-7585832DDE30";
paths = (
{
closed = 1;
nodes = (
"1183 286 LINE",
"1183 464 LINE",
"768 464 LINE",
"740 546 LINE",
"1215 546 LINE",
"1215 750 LINE",
"299 750 LINE",
"0 0 LINE",
"275 0 LINE",
"522 677 LINE",
"440 677 LINE",
"667 0 LINE",
"1220 0 LINE",
"1220 204 LINE",
"855 204 LINE",
"827 286 LINE"
);
},
{
closed = 1;
nodes = (
"702 126 LINE",
"702 331 LINE",
"221 331 LINE",
"221 126 LINE"
);
}
);
userData = {
KernOnName = AE;
};
width = 1266;
}
);
leftKerningGroup = AE;
rightKerningGroup = AE;
unicode = 00C6;
},
{
glyphname = B;
lastChange = "2022-05-27 07:16:54 +0000";
layers = (
{
anchors = (
{
name = bottom;
position = "{414, 0}";
},
{
name = top;
position = "{394, 750}";
}
);
background = {
paths = (
{
closed = 1;
nodes = (
"104 0 LINE",
"160 0 LINE",
"160 750 LINE",
"104 750 LINE"
);
},
{
closed = 1;
nodes = (
"656 387 OFFCURVE",
"716 483 OFFCURVE",
"716 569 CURVE SMOOTH",
"716 681 OFFCURVE",
"642 750 OFFCURVE",
"503 750 CURVE SMOOTH",
"143 750 LINE",
"143 700 LINE",
"498 700 LINE SMOOTH",
"603 700 OFFCURVE",
"658 645 OFFCURVE",
"658 569 CURVE SMOOTH",
"658 464 OFFCURVE",
"583 410 OFFCURVE",
"483 410 CURVE SMOOTH",
"142 410 LINE",
"142 360 LINE",
"480 360 LINE SMOOTH",
"630 360 OFFCURVE",
"708 303 OFFCURVE",
"708 199 CURVE SMOOTH",
"708 101 OFFCURVE",
"640 50 OFFCURVE",
"525 50 CURVE SMOOTH",
"130 50 LINE",
"130 0 LINE",
"519 0 LINE SMOOTH",
"678 0 OFFCURVE",
"766 81 OFFCURVE",
"766 199 CURVE SMOOTH",
"766 315 OFFCURVE",
"681 396 OFFCURVE",
"512 396 CURVE",
"503 377 LINE"
);
}
);
};
guideLines = (
{
angle = 153.4349;
position = "{236, 641}";
}
);
layerId = "FAA9A0EB-DB0F-4202-9822-2037CED7424C";
paths = (
{
closed = 1;
nodes = (
"656 388 OFFCURVE",
"714 483 OFFCURVE",
"714 569 CURVE SMOOTH",
"714 681 OFFCURVE",
"640 750 OFFCURVE",
"501 750 CURVE SMOOTH",
"71 750 LINE",
"131 385 LINE",
"71 0 LINE",
"517 0 LINE SMOOTH",
"676 0 OFFCURVE",
"764 81 OFFCURVE",
"764 199 CURVE SMOOTH",
"764 304 OFFCURVE",
"693 396 OFFCURVE",
"510 396 CURVE",
"501 377 LINE"
);
},
{
closed = 1;
nodes = (
"186 385 LINE",
"130 725 LINE",
"109 700 LINE",
"496 700 LINE SMOOTH",
"601 700 OFFCURVE",
"656 645 OFFCURVE",
"656 569 CURVE SMOOTH",
"656 464 OFFCURVE",
"581 410 OFFCURVE",
"481 410 CURVE SMOOTH",
"154 410 LINE",
"154 360 LINE",
"478 360 LINE SMOOTH",
"628 360 OFFCURVE",
"706 303 OFFCURVE",
"706 199 CURVE SMOOTH",
"706 101 OFFCURVE",
"638 50 OFFCURVE",
"523 50 CURVE SMOOTH",
"109 50 LINE",
"130 25 LINE"
);
}
);
userData = {
KernOnName = B;
};
width = 812;
},
{
anchors = (
{
name = bottom;
position = "{430, 0}";
},
{
name = top;
position = "{410, 750}";
}
);
layerId = "E29665B4-7994-459A-9DF7-986ADB216CAB";
paths = (
{
closed = 1;
nodes = (
"698 385 OFFCURVE",
"757 478 OFFCURVE",
"757 568 CURVE SMOOTH",
"757 681 OFFCURVE",
"679 750 OFFCURVE",
"540 750 CURVE SMOOTH",
"58 750 LINE",
"117 385 LINE",
"58 0 LINE",
"558 0 LINE SMOOTH",
"721 0 OFFCURVE",
"807 85 OFFCURVE",
"807 205 CURVE SMOOTH",
"807 315 OFFCURVE",
"730 399 OFFCURVE",
"552 401 CURVE",
"539 372 LINE"
);
},
{
closed = 1;
nodes = (
"244 385 LINE",
"191 713 LINE",
"140 644 LINE",
"511 644 LINE SMOOTH",
"584 644 OFFCURVE",
"624 605 OFFCURVE",
"624 550 CURVE SMOOTH",
"624 477 OFFCURVE",
"572 436 OFFCURVE",
"501 436 CURVE SMOOTH",
"189 436 LINE",
"189 334 LINE",
"514 334 LINE SMOOTH",
"619 334 OFFCURVE",
"674 290 OFFCURVE",
"674 216 CURVE SMOOTH",
"674 145 OFFCURVE",
"625 106 OFFCURVE",
"543 106 CURVE SMOOTH",
"140 106 LINE",
"191 37 LINE"
);
}
);
userData = {
KernOnName = B;
};
width = 847;
},
{
anchors = (
{
name = bottom;
position = "{459, 0}";
},
{
name = top;
position = "{437, 750}";
}
);
background = {
paths = (
{
closed = 1;
nodes = (
"71 0 LINE",
"329 0 LINE",
"329 750 LINE",
"71 750 LINE"
);
},
{
closed = 1;
nodes = (
"764 380 OFFCURVE",
"826 468 OFFCURVE",
"826 567 CURVE SMOOTH",
"826 681 OFFCURVE",
"743 750 OFFCURVE",
"604 750 CURVE SMOOTH",
"242 750 LINE",
"242 579 LINE",
"503 579 LINE SMOOTH",
"541 579 OFFCURVE",
"564 557 OFFCURVE",
"564 526 CURVE SMOOTH",
"564 493 OFFCURVE",
"538 469 OFFCURVE",
"503 469 CURVE SMOOTH",
"241 469 LINE",
"241 301 LINE",
"541 301 LINE SMOOTH",
"589 301 OFFCURVE",
"614 272 OFFCURVE",
"614 236 CURVE SMOOTH",
"614 196 OFFCURVE",
"587 171 OFFCURVE",
"543 171 CURVE SMOOTH",
"229 171 LINE",
"229 0 LINE",
"625 0 LINE SMOOTH",
"793 0 OFFCURVE",
"876 92 OFFCURVE",
"876 215 CURVE SMOOTH",
"876 330 OFFCURVE",
"793 404 OFFCURVE",
"620 410 CURVE",
"598 364 LINE"
);
}
);
};
guideLines = (
{
position = "{667, 533}";
}
);
layerId = "78844910-45F2-4BCF-9A61-7585832DDE30";
paths = (
{
closed = 1;
nodes = (
"770 381 OFFCURVE",
"830 469 OFFCURVE",
"830 567 CURVE SMOOTH",
"830 681 OFFCURVE",
"747 750 OFFCURVE",
"608 750 CURVE SMOOTH",
"40 750 LINE",
"97 385 LINE",
"40 0 LINE",
"629 0 LINE SMOOTH",
"797 0 OFFCURVE",
"880 92 OFFCURVE",
"880 215 CURVE SMOOTH",
"880 332 OFFCURVE",
"794 404 OFFCURVE",
"624 410 CURVE",
"604 364 LINE"
);
},
{
closed = 1;
nodes = (
"343 385 LINE",
"292 694 LINE",
"195 579 LINE",
"507 579 LINE SMOOTH",
"545 579 OFFCURVE",
"568 557 OFFCURVE",
"568 526 CURVE SMOOTH",
"568 493 OFFCURVE",
"542 469 OFFCURVE",
"507 469 CURVE SMOOTH",
"249 469 LINE",
"249 301 LINE",
"545 301 LINE SMOOTH",
"593 301 OFFCURVE",
"618 272 OFFCURVE",
"618 236 CURVE SMOOTH",
"618 196 OFFCURVE",
"591 171 OFFCURVE",
"547 171 CURVE SMOOTH",
"194 171 LINE",
"292 56 LINE"
);
}
);
userData = {
KernOnName = B;
};
width = 907;
}
);
leftKerningGroup = E;
rightKerningGroup = B;
unicode = 0042;
},
{
glyphname = "Beta-latin";
lastChange = "2022-05-27 07:16:54 +0000";
layers = (
{
anchors = (
{
name = bottom;
position = "{422, 0}";
},
{
name = top;
position = "{422, 750}";
}
);
layerId = "FAA9A0EB-DB0F-4202-9822-2037CED7424C";
paths = (
{
closed = 1;
nodes = (
"682 423 OFFCURVE",
"720 499 OFFCURVE",
"720 569 CURVE SMOOTH",
"720 681 OFFCURVE",
"646 750 OFFCURVE",
"507 750 CURVE SMOOTH",
"97 750 LINE",
"97 -165 LINE",
"153 -165 LINE",
"153 0 LINE",
"523 0 LINE SMOOTH",
"682 0 OFFCURVE",
"770 81 OFFCURVE",
"770 199 CURVE SMOOTH",
"770 290 OFFCURVE",
"717 371 OFFCURVE",
"584 391 CURVE"
);
},
{
closed = 1;
nodes = (
"662 464 OFFCURVE",
"587 410 OFFCURVE",
"487 410 CURVE SMOOTH",
"153 410 LINE",
"153 700 LINE",
"502 700 LINE SMOOTH",
"607 700 OFFCURVE",
"662 645 OFFCURVE",
"662 569 CURVE SMOOTH"
);
},
{
closed = 1;
nodes = (
"153 360 LINE",
"484 360 LINE SMOOTH",
"634 360 OFFCURVE",
"712 303 OFFCURVE",
"712 199 CURVE SMOOTH",
"712 101 OFFCURVE",
"644 50 OFFCURVE",
"529 50 CURVE SMOOTH",
"153 50 LINE"
);
}
);
width = 818;
},
{
anchors = (
{
name = bottom;
position = "{441, 0}";
},
{
name = top;
position = "{441, 750}";
}
);
layerId = "E29665B4-7994-459A-9DF7-986ADB216CAB";
paths = (
{
closed = 1;
nodes = (
"732 428 OFFCURVE",
"767 499 OFFCURVE",
"767 568 CURVE SMOOTH",
"767 681 OFFCURVE",
"690 750 OFFCURVE",
"551 750 CURVE SMOOTH",
"84 750 LINE",
"84 -165 LINE",
"213 -165 LINE",
"213 0 LINE",
"569 0 LINE SMOOTH",
"731 0 OFFCURVE",
"817 85 OFFCURVE",
"817 205 CURVE SMOOTH",
"817 296 OFFCURVE",
"764 370 OFFCURVE",
"644 393 CURVE"
);
},
{
closed = 1;
nodes = (
"635 475 OFFCURVE",
"582 434 OFFCURVE",
"512 434 CURVE SMOOTH",
"213 434 LINE",
"213 644 LINE",
"521 644 LINE SMOOTH",
"595 644 OFFCURVE",
"635 605 OFFCURVE",
"635 550 CURVE SMOOTH"
);
},
{
closed = 1;
nodes = (
"213 336 LINE",
"525 336 LINE SMOOTH",
"630 336 OFFCURVE",
"685 291 OFFCURVE",
"685 216 CURVE SMOOTH",
"685 145 OFFCURVE",
"636 106 OFFCURVE",
"553 106 CURVE SMOOTH",
"213 106 LINE"
);
}
);
width = 857;
},
{
anchors = (
{
name = bottom;
position = "{467, 0}";
},
{
name = top;
position = "{467, 750}";
}
);
layerId = "78844910-45F2-4BCF-9A61-7585832DDE30";
paths = (
{
closed = 1;
nodes = (
"810 434 OFFCURVE",
"840 498 OFFCURVE",
"840 567 CURVE SMOOTH",
"840 681 OFFCURVE",
"757 750 OFFCURVE",
"618 750 CURVE SMOOTH",
"60 750 LINE",
"60 -165 LINE",
"316 -165 LINE",
"316 0 LINE",
"639 0 LINE SMOOTH",
"807 0 OFFCURVE",
"890 92 OFFCURVE",
"890 215 CURVE SMOOTH",
"890 306 OFFCURVE",
"838 370 OFFCURVE",
"735 396 CURVE"
);
},
{
closed = 1;
nodes = (
"578 493 OFFCURVE",
"552 469 OFFCURVE",
"517 469 CURVE SMOOTH",
"316 469 LINE",
"316 579 LINE",
"517 579 LINE SMOOTH",
"555 579 OFFCURVE",
"578 557 OFFCURVE",
"578 526 CURVE SMOOTH"
);
},
{
closed = 1;
nodes = (
"316 301 LINE",
"555 301 LINE SMOOTH",
"603 301 OFFCURVE",
"628 272 OFFCURVE",
"628 236 CURVE SMOOTH",
"628 196 OFFCURVE",
"601 171 OFFCURVE",
"557 171 CURVE SMOOTH",
"316 171 LINE"
);
}
);
width = 917;
}
);
leftKerningGroup = H;
rightKerningGroup = B;
unicode = A7B4;
},
{
glyphname = Bhook;
lastChange = "2022-05-27 07:16:54 +0000";
layers = (
{
anchors = (
{
name = bottom;
position = "{560, 0}";
},
{
name = top;
position = "{540, 750}";
}
);
layerId = "FAA9A0EB-DB0F-4202-9822-2037CED7424C";
paths = (
{
closed = 1;
nodes = (
"84 750 OFFCURVE",
"26 704 OFFCURVE",
"26 610 CURVE SMOOTH",
"26 564 OFFCURVE",
"44 513 OFFCURVE",
"60 479 CURVE",
"115 479 LINE",
"96 526 OFFCURVE",
"83 565 OFFCURVE",
"83 610 CURVE SMOOTH",
"83 677 OFFCURVE",
"122 700 OFFCURVE",
"183 700 CURVE SMOOTH",
"240 700 LINE",
"220 729 LINE",
"277 385 LINE",
"217 0 LINE",
"663 0 LINE SMOOTH",
"822 0 OFFCURVE",
"910 81 OFFCURVE",
"910 199 CURVE SMOOTH",
"910 304 OFFCURVE",
"839 396 OFFCURVE",
"656 396 CURVE",
"647 377 LINE",
"802 388 OFFCURVE",
"860 483 OFFCURVE",
"860 569 CURVE SMOOTH",
"860 681 OFFCURVE",
"786 750 OFFCURVE",
"647 750 CURVE SMOOTH",
"170 750 LINE SMOOTH"
);
},
{
closed = 1;
nodes = (
"332 385 LINE",
"276 725 LINE",
"255 700 LINE",
"642 700 LINE SMOOTH",
"747 700 OFFCURVE",
"802 645 OFFCURVE",
"802 569 CURVE SMOOTH",
"802 464 OFFCURVE",
"727 410 OFFCURVE",
"627 410 CURVE SMOOTH",
"300 410 LINE",
"300 360 LINE",
"624 360 LINE SMOOTH",
"774 360 OFFCURVE",
"852 303 OFFCURVE",
"852 199 CURVE SMOOTH",
"852 101 OFFCURVE",
"784 50 OFFCURVE",
"669 50 CURVE SMOOTH",
"255 50 LINE",
"276 25 LINE"
);
}
);
width = 958;
},
{
anchors = (
{
name = bottom;
position = "{609, 0}";
},
{
name = top;
position = "{589, 750}";
}
);
layerId = "E29665B4-7994-459A-9DF7-986ADB216CAB";
paths = (
{
closed = 1;
nodes = (
"86 750 OFFCURVE",
"23 692 OFFCURVE",
"23 590 CURVE SMOOTH",
"23 536 OFFCURVE",
"42 484 OFFCURVE",
"59 447 CURVE",
"165 447 LINE",
"150 485 OFFCURVE",
"139 523 OFFCURVE",
"139 566 CURVE SMOOTH",
"139 626 OFFCURVE",
"171 649 OFFCURVE",
"224 649 CURVE SMOOTH",
"296 649 LINE",
"243 711 LINE",
"296 385 LINE",
"237 0 LINE",
"737 0 LINE SMOOTH",
"900 0 OFFCURVE",
"986 85 OFFCURVE",
"986 205 CURVE SMOOTH",
"986 315 OFFCURVE",
"909 399 OFFCURVE",
"731 401 CURVE",
"718 372 LINE",
"877 385 OFFCURVE",
"936 478 OFFCURVE",
"936 568 CURVE SMOOTH",
"936 681 OFFCURVE",
"858 750 OFFCURVE",
"719 750 CURVE SMOOTH",
"194 750 LINE SMOOTH"
);
},
{
closed = 1;
nodes = (
"423 385 LINE",
"370 713 LINE",
"319 644 LINE",
"690 644 LINE SMOOTH",
"763 644 OFFCURVE",
"803 605 OFFCURVE",
"803 550 CURVE SMOOTH",
"803 477 OFFCURVE",
"751 436 OFFCURVE",
"680 436 CURVE SMOOTH",
"368 436 LINE",
"368 334 LINE",
"693 334 LINE SMOOTH",
"798 334 OFFCURVE",
"853 290 OFFCURVE",
"853 216 CURVE SMOOTH",
"853 145 OFFCURVE",
"804 106 OFFCURVE",
"722 106 CURVE SMOOTH",
"319 106 LINE",
"370 37 LINE"
);
}
);
width = 1026;
},
{
anchors = (
{
name = bottom;
position = "{684, 0}";
},
{
name = top;
position = "{662, 750}";
}
);
guideLines = (
{
angle = 180;
position = "{566, 579}";
}
);
layerId = "78844910-45F2-4BCF-9A61-7585832DDE30";
paths = (
{
closed = 1;
nodes = (
"86 750 OFFCURVE",
"15 673 OFFCURVE",
"15 557 CURVE SMOOTH",
"15 490 OFFCURVE",
"37 437 OFFCURVE",
"58 394 CURVE",
"243 394 LINE",
"236 418 OFFCURVE",
"228 455 OFFCURVE",
"228 495 CURVE SMOOTH",
"228 543 OFFCURVE",
"248 564 OFFCURVE",
"289 564 CURVE SMOOTH",
"362 564 LINE",
"273 700 LINE",
"322 385 LINE",
"265 0 LINE",
"854 0 LINE SMOOTH",
"1022 0 OFFCURVE",
"1105 92 OFFCURVE",
"1105 215 CURVE SMOOTH",
"1105 332 OFFCURVE",
"1019 404 OFFCURVE",
"849 410 CURVE",
"829 364 LINE",
"995 381 OFFCURVE",
"1055 469 OFFCURVE",
"1055 567 CURVE SMOOTH",
"1055 681 OFFCURVE",
"972 750 OFFCURVE",
"833 750 CURVE SMOOTH",
"230 750 LINE SMOOTH"
);
},
{
closed = 1;
nodes = (
"568 385 LINE",
"517 694 LINE",
"420 579 LINE",
"732 579 LINE SMOOTH",
"770 579 OFFCURVE",
"793 557 OFFCURVE",
"793 526 CURVE SMOOTH",
"793 493 OFFCURVE",
"767 469 OFFCURVE",
"732 469 CURVE SMOOTH",
"474 469 LINE",
"474 301 LINE",
"770 301 LINE SMOOTH",
"818 301 OFFCURVE",
"843 272 OFFCURVE",
"843 236 CURVE SMOOTH",
"843 196 OFFCURVE",
"816 171 OFFCURVE",
"772 171 CURVE SMOOTH",
"419 171 LINE",
"517 56 LINE"
);
}
);
width = 1132;
}
);
leftKerningGroup = Phook;
rightKerningGroup = B;
unicode = 0181;
},
{
glyphname = Bstroke;
lastChange = "2022-05-27 07:16:54 +0000";
layers = (
{
anchors = (
{
name = bottom;
position = "{438, 0}";
},
{
name = top;
position = "{428, 750}";
}
);
layerId = "FAA9A0EB-DB0F-4202-9822-2037CED7424C";
paths = (
{
closed = 1;
nodes = (
"9 180 LINE",
"435 180 LINE",
"435 230 LINE",
"9 230 LINE"
);
},
{
closed = 1;
nodes = (
"680 388 OFFCURVE",
"738 483 OFFCURVE",
"738 569 CURVE SMOOTH",
"738 681 OFFCURVE",
"664 750 OFFCURVE",
"525 750 CURVE SMOOTH",
"95 750 LINE",
"155 385 LINE",
"95 0 LINE",
"541 0 LINE SMOOTH",
"700 0 OFFCURVE",
"788 81 OFFCURVE",
"788 199 CURVE SMOOTH",
"788 304 OFFCURVE",
"717 396 OFFCURVE",
"534 396 CURVE",
"525 377 LINE"
);
},
{
closed = 1;
nodes = (
"210 385 LINE",
"154 725 LINE",
"133 700 LINE",
"520 700 LINE SMOOTH",
"625 700 OFFCURVE",
"680 645 OFFCURVE",
"680 569 CURVE SMOOTH",
"680 464 OFFCURVE",
"605 410 OFFCURVE",
"505 410 CURVE SMOOTH",
"178 410 LINE",
"178 360 LINE",
"502 360 LINE SMOOTH",
"652 360 OFFCURVE",
"730 303 OFFCURVE",
"730 199 CURVE SMOOTH",
"730 101 OFFCURVE",
"662 50 OFFCURVE",
"547 50 CURVE SMOOTH",
"133 50 LINE",
"154 25 LINE"
);
}
);
width = 836;
},
{
anchors = (
{
name = bottom;
position = "{490, 0}";
},
{
name = top;
position = "{480, 750}";
}
);
layerId = "E29665B4-7994-459A-9DF7-986ADB216CAB";
paths = (
{
closed = 1;
nodes = (
"25 168 LINE",
"528 168 LINE",
"528 266 LINE",
"25 266 LINE"
);
},
{
closed = 1;
nodes = (
"758 385 OFFCURVE",
"817 478 OFFCURVE",
"817 568 CURVE SMOOTH",
"817 681 OFFCURVE",
"739 750 OFFCURVE",
"600 750 CURVE SMOOTH",
"118 750 LINE",
"177 385 LINE",
"118 0 LINE",
"618 0 LINE SMOOTH",
"781 0 OFFCURVE",
"867 85 OFFCURVE",
"867 205 CURVE SMOOTH",
"867 315 OFFCURVE",
"790 399 OFFCURVE",
"612 401 CURVE",
"599 372 LINE"
);
},
{
closed = 1;
nodes = (
"304 385 LINE",
"251 713 LINE",
"200 648 LINE",
"569 648 LINE SMOOTH",
"643 648 OFFCURVE",
"683 607 OFFCURVE",
"683 550 CURVE SMOOTH",
"683 474 OFFCURVE",
"630 432 OFFCURVE",
"559 432 CURVE SMOOTH",
"249 432 LINE",
"249 338 LINE",
"572 338 LINE SMOOTH",
"678 338 OFFCURVE",
"733 292 OFFCURVE",
"733 216 CURVE SMOOTH",
"733 142 OFFCURVE",
"684 102 OFFCURVE",
"601 102 CURVE SMOOTH",
"200 102 LINE",
"251 37 LINE"
);
}
);
width = 907;
},
{
anchors = (
{
name = bottom;
position = "{497, 0}";
},
{
name = top;
position = "{485, 750}";
}
);
layerId = "78844910-45F2-4BCF-9A61-7585832DDE30";
paths = (
{
closed = 1;
nodes = (
"18 173 LINE",
"514 173 LINE",
"514 299 LINE",
"18 299 LINE"
);
},
{
closed = 1;
nodes = (
"808 381 OFFCURVE",
"868 469 OFFCURVE",
"868 567 CURVE SMOOTH",
"868 681 OFFCURVE",
"785 750 OFFCURVE",
"646 750 CURVE SMOOTH",
"78 750 LINE",
"135 385 LINE",
"78 0 LINE",
"667 0 LINE SMOOTH",
"835 0 OFFCURVE",
"918 92 OFFCURVE",
"918 215 CURVE SMOOTH",
"918 332 OFFCURVE",
"832 404 OFFCURVE",
"662 410 CURVE",
"642 364 LINE"
);
},
{
closed = 1;
nodes = (
"381 385 LINE",
"330 694 LINE",
"233 579 LINE",
"545 579 LINE SMOOTH",
"583 579 OFFCURVE",
"606 557 OFFCURVE",
"606 526 CURVE SMOOTH",
"606 493 OFFCURVE",
"580 469 OFFCURVE",
"545 469 CURVE SMOOTH",
"287 469 LINE",
"287 301 LINE",
"583 301 LINE SMOOTH",
"631 301 OFFCURVE",
"656 272 OFFCURVE",
"656 236 CURVE SMOOTH",
"656 196 OFFCURVE",
"629 171 OFFCURVE",
"585 171 CURVE SMOOTH",
"232 171 LINE",
"330 56 LINE"
);
}
);
width = 945;
},
{
anchors = (
{
name = bottom;
position = "{438, 0}";
},
{
name = top;
position = "{428, 750}";
}
);
associatedMasterId = "FAA9A0EB-DB0F-4202-9822-2037CED7424C";
layerId = "0DE248EB-15A5-4836-A6FB-E7A12BA2DCA8";
name = "Light [710]";
paths = (
{
closed = 1;
nodes = (
"9 180 LINE",
"435 180 LINE",
"435 230 LINE",
"9 230 LINE"
);
},
{
closed = 1;
nodes = (
"680 388 OFFCURVE",
"738 483 OFFCURVE",
"738 569 CURVE SMOOTH",
"738 681 OFFCURVE",
"664 750 OFFCURVE",
"525 750 CURVE SMOOTH",
"95 750 LINE",
"155 385 LINE",
"95 0 LINE",
"541 0 LINE SMOOTH",
"700 0 OFFCURVE",
"788 81 OFFCURVE",
"788 199 CURVE SMOOTH",
"788 304 OFFCURVE",
"717 396 OFFCURVE",
"534 396 CURVE",
"525 377 LINE"
);
},
{
closed = 1;
nodes = (
"210 385 LINE",
"154 725 LINE",
"133 700 LINE",
"520 700 LINE SMOOTH",
"625 700 OFFCURVE",
"680 645 OFFCURVE",
"680 569 CURVE SMOOTH",
"680 464 OFFCURVE",
"605 410 OFFCURVE",
"505 410 CURVE SMOOTH",
"178 410 LINE",
"178 360 LINE",
"502 360 LINE SMOOTH",
"652 360 OFFCURVE",
"730 303 OFFCURVE",
"730 199 CURVE SMOOTH",
"730 101 OFFCURVE",
"662 50 OFFCURVE",
"547 50 CURVE SMOOTH",
"133 50 LINE",
"154 25 LINE"
);
}
);
width = 836;
},
{
anchors = (
{
name = bottom;
position = "{490, 0}";
},
{
name = top;
position = "{480, 750}";
}
);
associatedMasterId = "E29665B4-7994-459A-9DF7-986ADB216CAB";
background = {
paths = (
{
closed = 1;
nodes = (
"65 168 LINE",
"568 168 LINE",
"568 266 LINE",
"65 266 LINE"
);
},
{
closed = 1;
nodes = (
"798 385 OFFCURVE",
"857 478 OFFCURVE",
"857 568 CURVE SMOOTH",
"857 681 OFFCURVE",
"779 750 OFFCURVE",
"640 750 CURVE SMOOTH",
"158 750 LINE",
"217 385 LINE",
"158 0 LINE",
"658 0 LINE SMOOTH",
"821 0 OFFCURVE",
"907 85 OFFCURVE",
"907 205 CURVE SMOOTH",
"907 315 OFFCURVE",
"830 399 OFFCURVE",
"652 401 CURVE",
"639 372 LINE"
);
},
{
closed = 1;
nodes = (
"344 385 LINE",
"291 713 LINE",
"240 648 LINE",
"609 648 LINE SMOOTH",
"683 648 OFFCURVE",
"723 607 OFFCURVE",
"723 550 CURVE SMOOTH",
"723 474 OFFCURVE",
"670 432 OFFCURVE",
"599 432 CURVE SMOOTH",
"289 432 LINE",
"289 338 LINE",
"612 338 LINE SMOOTH",
"718 338 OFFCURVE",
"773 292 OFFCURVE",
"773 216 CURVE SMOOTH",
"773 142 OFFCURVE",
"724 102 OFFCURVE",
"641 102 CURVE SMOOTH",
"240 102 LINE",
"291 37 LINE"
);
}
);
};
layerId = "58D4113F-0B11-4EA6-B7B7-77B209DAF754";
name = "Regular [710]";
paths = (
{
closed = 1;
nodes = (
"25 163 LINE",
"528 163 LINE",
"528 271 LINE",
"25 271 LINE"
);
},
{
closed = 1;
nodes = (
"758 385 OFFCURVE",
"817 478 OFFCURVE",
"817 568 CURVE SMOOTH",
"817 681 OFFCURVE",
"739 750 OFFCURVE",
"600 750 CURVE SMOOTH",
"118 750 LINE",
"177 385 LINE",
"118 0 LINE",
"618 0 LINE SMOOTH",
"781 0 OFFCURVE",
"867 85 OFFCURVE",
"867 205 CURVE SMOOTH",
"867 315 OFFCURVE",
"790 399 OFFCURVE",
"612 401 CURVE",
"599 372 LINE"
);
},
{
closed = 1;
nodes = (
"304 385 LINE",
"251 713 LINE",
"200 648 LINE",
"569 648 LINE SMOOTH",
"643 648 OFFCURVE",
"683 607 OFFCURVE",
"683 550 CURVE SMOOTH",
"683 474 OFFCURVE",
"630 432 OFFCURVE",
"559 432 CURVE SMOOTH",
"249 432 LINE",
"249 338 LINE",
"572 338 LINE SMOOTH",
"678 338 OFFCURVE",
"733 292 OFFCURVE",
"733 216 CURVE SMOOTH",
"733 142 OFFCURVE",
"684 102 OFFCURVE",
"601 102 CURVE SMOOTH",
"200 102 LINE",
"251 37 LINE"
);
}
);
width = 907;
},
{
anchors = (
{
name = bottom;
position = "{497, 0}";
},
{
name = top;
position = "{485, 750}";
}
);
associatedMasterId = "78844910-45F2-4BCF-9A61-7585832DDE30";
layerId = "46F72FF7-E992-4975-B03F-06944D239287";
name = "Black [710]";
paths = (
{
closed = 1;
nodes = (
"18 184 LINE",
"514 184 LINE",
"514 288 LINE",
"18 288 LINE"
);
},
{
closed = 1;
nodes = (
"808 381 OFFCURVE",
"868 469 OFFCURVE",
"868 567 CURVE SMOOTH",
"868 681 OFFCURVE",
"785 750 OFFCURVE",
"646 750 CURVE SMOOTH",
"78 750 LINE",
"135 385 LINE",
"78 0 LINE",
"667 0 LINE SMOOTH",
"835 0 OFFCURVE",
"918 92 OFFCURVE",
"918 215 CURVE SMOOTH",
"918 332 OFFCURVE",
"832 404 OFFCURVE",
"662 410 CURVE",
"642 364 LINE"
);
},
{
closed = 1;
nodes = (
"381 385 LINE",
"330 694 LINE",
"233 585 LINE",
"542 585 LINE SMOOTH",
"582 585 OFFCURVE",
"606 561 OFFCURVE",
"606 526 CURVE SMOOTH",
"606 490 OFFCURVE",
"579 463 OFFCURVE",
"542 463 CURVE SMOOTH",
"287 463 LINE",
"287 311 LINE",
"578 311 LINE SMOOTH",
"629 311 OFFCURVE",
"656 278 OFFCURVE",
"656 236 CURVE SMOOTH",
"656 190 OFFCURVE",
"627 161 OFFCURVE",
"580 161 CURVE SMOOTH",
"232 161 LINE",
"330 56 LINE"
);
}
);
width = 945;
}
);
leftKerningGroup = E;
rightKerningGroup = B;
unicode = 0243;
},
{
glyphname = C;
lastChange = "2022-05-27 07:16:54 +0000";
layers = (
{
anchors = (
{
name = bottom;
position = "{458, 0}";
},
{
name = top;
position = "{450, 750}";
}
);
background = {
paths = (
{
closed = 1;
nodes = (
"776 300 LINE",
"761 139 OFFCURVE",
"627 29 OFFCURVE",
"448 29 CURVE SMOOTH",
"252 29 OFFCURVE",
"118 170 OFFCURVE",
"118 375 CURVE SMOOTH",
"118 580 OFFCURVE",
"252 721 OFFCURVE",
"448 721 CURVE SMOOTH",
"627 721 OFFCURVE",
"761 611 OFFCURVE",
"776 450 CURVE",
"834 450 LINE",
"824 640 OFFCURVE",
"667 770 OFFCURVE",
"448 770 CURVE SMOOTH",
"218 770 OFFCURVE",
"60 609 OFFCURVE",
"60 375 CURVE SMOOTH",
"60 141 OFFCURVE",
"218 -20 OFFCURVE",
"448 -20 CURVE SMOOTH",
"667 -20 OFFCURVE",
"824 110 OFFCURVE",
"834 300 CURVE"
);
}
);
};
layerId = "FAA9A0EB-DB0F-4202-9822-2037CED7424C";
paths = (
{
closed = 1;
nodes = (
"789 280 LINE",
"765 134 OFFCURVE",
"639 40 OFFCURVE",
"459 40 CURVE SMOOTH",
"248 40 OFFCURVE",
"111 172 OFFCURVE",
"111 375 CURVE SMOOTH",
"111 578 OFFCURVE",
"248 710 OFFCURVE",
"459 710 CURVE SMOOTH",
"639 710 OFFCURVE",
"765 616 OFFCURVE",
"789 470 CURVE",
"847 470 LINE",
"827 643 OFFCURVE",
"673 762 OFFCURVE",
"461 762 CURVE SMOOTH",
"217 762 OFFCURVE",
"53 604 OFFCURVE",
"53 375 CURVE SMOOTH",
"53 146 OFFCURVE",
"217 -12 OFFCURVE",
"461 -12 CURVE SMOOTH",
"673 -12 OFFCURVE",
"827 107 OFFCURVE",
"847 280 CURVE"
);
}
);
userData = {
KernOnName = C;
};
width = 892;
},
{
anchors = (
{
name = bottom;
position = "{465, 0}";
},
{
name = top;
position = "{460, 750}";
}
);
layerId = "E29665B4-7994-459A-9DF7-986ADB216CAB";
paths = (
{
closed = 1;
nodes = (
"742 297 LINE",
"720 176 OFFCURVE",
"618 104 OFFCURVE",
"466 104 CURVE SMOOTH",
"290 104 OFFCURVE",
"179 209 OFFCURVE",
"179 375 CURVE SMOOTH",
"179 541 OFFCURVE",
"290 646 OFFCURVE",
"466 646 CURVE SMOOTH",
"618 646 OFFCURVE",
"720 572 OFFCURVE",
"742 453 CURVE",
"875 453 LINE",
"854 638 OFFCURVE",
"693 764 OFFCURVE",
"467 764 CURVE SMOOTH",
"214 764 OFFCURVE",
"45 607 OFFCURVE",
"45 375 CURVE SMOOTH",
"45 143 OFFCURVE",
"214 -14 OFFCURVE",
"467 -14 CURVE SMOOTH",
"693 -14 OFFCURVE",
"854 112 OFFCURVE",
"875 297 CURVE"
);
}
);
userData = {
KernOnName = C;
};
width = 912;
},
{
anchors = (
{
name = bottom;
position = "{476, 0}";
},
{
name = top;
position = "{477, 750}";
}
);
background = {
paths = (
{
closed = 1;
nodes = (
"657 335 LINE",
"648 244 OFFCURVE",
"576 200 OFFCURVE",
"475 200 CURVE SMOOTH",
"364 200 OFFCURVE",
"297 256 OFFCURVE",
"297 375 CURVE SMOOTH",
"297 494 OFFCURVE",
"364 550 OFFCURVE",
"475 550 CURVE SMOOTH",
"576 550 OFFCURVE",
"648 507 OFFCURVE",
"657 415 CURVE",
"916 415 LINE",
"901 648 OFFCURVE",
"736 770 OFFCURVE",
"475 770 CURVE SMOOTH",
"201 770 OFFCURVE",
"37 634 OFFCURVE",
"37 375 CURVE SMOOTH",
"37 116 OFFCURVE",
"201 -20 OFFCURVE",
"475 -20 CURVE SMOOTH",
"737 -20 OFFCURVE",
"901 102 OFFCURVE",
"916 335 CURVE"
);
}
);
};
layerId = "78844910-45F2-4BCF-9A61-7585832DDE30";
paths = (
{
closed = 1;
nodes = (
"663 325 LINE",
"645 242 OFFCURVE",
"581 202 OFFCURVE",
"477 202 CURVE SMOOTH",
"361 202 OFFCURVE",
"292 267 OFFCURVE",
"292 375 CURVE SMOOTH",
"292 483 OFFCURVE",
"361 548 OFFCURVE",
"477 548 CURVE SMOOTH",
"581 548 OFFCURVE",
"645 502 OFFCURVE",
"663 425 CURVE",
"922 425 LINE",
"898 631 OFFCURVE",
"725 768 OFFCURVE",
"477 768 CURVE SMOOTH",
"209 768 OFFCURVE",
"32 611 OFFCURVE",
"32 375 CURVE SMOOTH",
"32 139 OFFCURVE",
"209 -18 OFFCURVE",
"477 -18 CURVE SMOOTH",
"725 -18 OFFCURVE",
"898 119 OFFCURVE",
"922 325 CURVE"
);
}
);
userData = {
KernOnName = C;
};
width = 949;
}
);
leftKerningGroup = O;
rightKerningGroup = C;
unicode = 0043;
},
{
glyphname = "Chi-latin";
lastChange = "2022-05-27 07:16:54 +0000";
layers = (
{
anchors = (
{
name = bottom;
position = "{342, -165}";
},
{
name = top;
position = "{355, 750}";
}
);
layerId = "FAA9A0EB-DB0F-4202-9822-2037CED7424C";
paths = (
{
closed = 1;
nodes = (
"658 750 LINE",
"596 750 LINE",
"331 342 LINE",
"354 342 LINE",
"88 750 LINE",
"26 750 LINE",
"316 303 LINE",
"316 324 LINE",
"-2 -165 LINE",
"63 -165 LINE",
"353 285 LINE",
"332 285 LINE",
"621 -165 LINE",
"685 -165 LINE",
"365 328 LINE",
"365 299 LINE"
);
}
);
width = 684;
},
{
anchors = (
{
name = bottom;
position = "{375, -165}";
},
{
name = top;
position = "{388, 750}";
}
);
layerId = "E29665B4-7994-459A-9DF7-986ADB216CAB";
paths = (
{
closed = 1;
nodes = (
"732 750 LINE",
"590 750 LINE",
"348 369 LINE",
"404 369 LINE",
"161 750 LINE",
"17 750 LINE",
"328 274 LINE",
"328 351 LINE",
"-7 -165 LINE",
"135 -165 LINE",
"402 257 LINE",
"347 257 LINE",
"613 -165 LINE",
"756 -165 LINE",
"420 353 LINE",
"420 271 LINE"
);
}
);
width = 750;
},
{
anchors = (
{
name = bottom;
position = "{431, -165}";
},
{
name = top;
position = "{444, 750}";
}
);
layerId = "78844910-45F2-4BCF-9A61-7585832DDE30";
paths = (
{
closed = 1;
nodes = (
"856 750 LINE",
"582 750 LINE",
"379 412 LINE",
"489 412 LINE",
"282 750 LINE",
"5 750 LINE",
"351 226 LINE",
"351 395 LINE",
"-14 -165 LINE",
"255 -165 LINE",
"485 210 LINE",
"374 210 LINE",
"602 -165 LINE",
"875 -165 LINE",
"513 395 LINE",
"513 225 LINE"
);
}
);
width = 862;
}
);
unicode = A7B3;
},
{
glyphname = Chook;
lastChange = "2022-05-27 07:16:54 +0000";
layers = (
{
anchors = (
{
name = bottom;
position = "{448, 0}";
},
{
name = top;
position = "{448, 750}";
}
);
background = {
components = (
{
name = C;
}
);
};
layerId = "FAA9A0EB-DB0F-4202-9822-2037CED7424C";
paths = (
{
closed = 1;
nodes = (
"217 762 OFFCURVE",
"53 604 OFFCURVE",
"53 375 CURVE SMOOTH",
"53 146 OFFCURVE",
"217 -12 OFFCURVE",
"461 -12 CURVE SMOOTH",
"673 -12 OFFCURVE",
"827 107 OFFCURVE",
"847 280 CURVE",
"789 280 LINE",
"765 134 OFFCURVE",
"639 40 OFFCURVE",
"459 40 CURVE SMOOTH",
"248 40 OFFCURVE",
"111 172 OFFCURVE",
"111 375 CURVE SMOOTH",
"111 578 OFFCURVE",
"248 710 OFFCURVE",
"459 710 CURVE SMOOTH",
"639 710 OFFCURVE",
"765 616 OFFCURVE",
"789 470 CURVE",
"847 470 LINE",
"843 510 OFFCURVE",
"829 550 OFFCURVE",
"815 579 CURVE SMOOTH",
"777 656 OFFCURVE",
"755 701 OFFCURVE",
"755 750 CURVE SMOOTH",
"755 804 OFFCURVE",
"790 845 OFFCURVE",
"859 845 CURVE SMOOTH",
"900 845 OFFCURVE",
"934 829 OFFCURVE",
"961 812 CURVE",
"961 867 LINE",
"935 883 OFFCURVE",
"902 897 OFFCURVE",
"854 897 CURVE SMOOTH",
"764 897 OFFCURVE",
"699 843 OFFCURVE",
"699 762 CURVE SMOOTH",
"699 705 OFFCURVE",
"726 664 OFFCURVE",
"758 620 CURVE",
"774 623 LINE",
"720 706 OFFCURVE",
"605 762 OFFCURVE",
"461 762 CURVE SMOOTH"
);
}
);
width = 896;
},
{
anchors = (
{
name = bottom;
position = "{458, 0}";
},
{
name = top;
position = "{458, 750}";
}
);
layerId = "E29665B4-7994-459A-9DF7-986ADB216CAB";
paths = (
{
closed = 1;
nodes = (
"216 764 OFFCURVE",
"45 607 OFFCURVE",
"45 375 CURVE SMOOTH",
"45 143 OFFCURVE",
"214 -14 OFFCURVE",
"467 -14 CURVE SMOOTH",
"693 -14 OFFCURVE",
"854 112 OFFCURVE",
"875 297 CURVE",
"743 297 LINE",
"721 176 OFFCURVE",
"618 104 OFFCURVE",
"466 104 CURVE SMOOTH",
"290 104 OFFCURVE",
"179 210 OFFCURVE",
"179 376 CURVE SMOOTH",
"179 541 OFFCURVE",
"290 646 OFFCURVE",
"466 646 CURVE SMOOTH",
"618 646 OFFCURVE",
"721 572 OFFCURVE",
"743 453 CURVE",
"875 453 LINE",
"871 495 OFFCURVE",
"853 545 OFFCURVE",
"841 575 CURVE SMOOTH",
"817 634 OFFCURVE",
"801 678 OFFCURVE",
"801 711 CURVE SMOOTH",
"801 758 OFFCURVE",
"830 792 OFFCURVE",
"898 792 CURVE SMOOTH",
"931 792 OFFCURVE",
"959 785 OFFCURVE",
"990 774 CURVE",
"990 878 LINE",
"957 891 OFFCURVE",
"918 900 OFFCURVE",
"870 900 CURVE SMOOTH",
"746 900 OFFCURVE",
"684 839 OFFCURVE",
"684 757 CURVE SMOOTH",
"684 699 OFFCURVE",
"714 649 OFFCURVE",
"746 603 CURVE",
"780 605 LINE",
"721 704 OFFCURVE",
"623 764 OFFCURVE",
"462 764 CURVE SMOOTH"
);
}
);
width = 915;
},
{
anchors = (
{
name = bottom;
position = "{472, 0}";
},
{
name = top;
position = "{451, 750}";
}
);
background = {
components = (
{
name = C;
}
);
};
layerId = "78844910-45F2-4BCF-9A61-7585832DDE30";
paths = (
{
closed = 1;
nodes = (
"213 768 OFFCURVE",
"33 612 OFFCURVE",
"33 375 CURVE SMOOTH",
"33 139 OFFCURVE",
"210 -18 OFFCURVE",
"478 -18 CURVE SMOOTH",
"726 -18 OFFCURVE",
"899 119 OFFCURVE",
"923 325 CURVE",
"664 325 LINE",
"646 242 OFFCURVE",
"582 202 OFFCURVE",
"478 202 CURVE SMOOTH",
"362 202 OFFCURVE",
"293 267 OFFCURVE",
"293 375 CURVE SMOOTH",
"293 483 OFFCURVE",
"362 548 OFFCURVE",
"478 548 CURVE SMOOTH",
"582 548 OFFCURVE",
"646 502 OFFCURVE",
"664 425 CURVE",
"923 425 LINE",
"914 483 OFFCURVE",
"895 534 OFFCURVE",
"887 568 CURVE SMOOTH",
"881 593 OFFCURVE",
"876 617 OFFCURVE",
"876 640 CURVE SMOOTH",
"876 688 OFFCURVE",
"903 713 OFFCURVE",
"963 713 CURVE SMOOTH",
"991 713 OFFCURVE",
"1015 707 OFFCURVE",
"1038 700 CURVE",
"1038 887 LINE",
"995 900 OFFCURVE",
"946 906 OFFCURVE",
"898 906 CURVE SMOOTH",
"752 906 OFFCURVE",
"692 824 OFFCURVE",
"692 730 CURVE SMOOTH",
"692 670 OFFCURVE",
"727 605 OFFCURVE",
"757 555 CURVE",
"834 525 LINE",
"778 676 OFFCURVE",
"660 768 OFFCURVE",
"470 768 CURVE SMOOTH"
);
}
);
width = 1033;
}
);
leftKerningGroup = O;
unicode = 0187;
},
{
color = 2;
glyphname = Cstroke;
lastChange = "2022-05-27 07:18:18 +0000";
layers = (
{
components = (
{
name = C;
transform = "{1, 0, 0, 1, -1, 0}";
}
);
layerId = "FAA9A0EB-DB0F-4202-9822-2037CED7424C";
paths = (
{
closed = 1;
nodes = (
"217 -122 LINE",
"269 -122 LINE",
"704 872 LINE",
"652 872 LINE"
);
}
);
width = 891;
},
{
components = (
{
name = C;
}
);
layerId = "E29665B4-7994-459A-9DF7-986ADB216CAB";
paths = (
{
closed = 1;
nodes = (
"208 -122 LINE",
"316 -122 LINE",
"721 872 LINE",
"613 872 LINE"
);
}
);
width = 912;
},
{
components = (
{
name = C;
transform = "{1, 0, 0, 1, 1, 0}";
}
);
layerId = "78844910-45F2-4BCF-9A61-7585832DDE30";
paths = (
{
closed = 1;
nodes = (
"173 -122 LINE",
"375 -122 LINE",
"760 872 LINE",
"558 872 LINE"
);
}
);
width = 950;
}
);
leftKerningGroup = O;
rightKerningGroup = C;
unicode = 023B;
},
{
glyphname = D;
lastChange = "2022-05-27 07:16:54 +0000";
layers = (
{
anchors = (
{
name = bottom;
position = "{414, 0}";
},
{
name = center;
position = "{414, 375}";
},
{
name = top;
position = "{405, 750}";
}
);
layerId = "FAA9A0EB-DB0F-4202-9822-2037CED7424C";
paths = (
{
closed = 1;
nodes = (
"97 750 LINE",
"97 0 LINE",
"400 0 LINE SMOOTH",
"645 0 OFFCURVE",
"813 153 OFFCURVE",
"813 375 CURVE SMOOTH",
"813 597 OFFCURVE",
"645 750 OFFCURVE",
"400 750 CURVE SMOOTH"
);
},
{
closed = 1;
nodes = (
"153 746 LINE",
"107 701 LINE",
"400 701 LINE SMOOTH",
"610 701 OFFCURVE",
"755 568 OFFCURVE",
"755 375 CURVE SMOOTH",
"755 182 OFFCURVE",
"610 49 OFFCURVE",
"400 49 CURVE SMOOTH",
"107 49 LINE",
"153 4 LINE"
);
}
);
userData = {
KernOnName = D;
};
width = 865;
},
{
anchors = (
{
name = bottom;
position = "{430, 0}";
},
{
name = center;
position = "{435, 375}";
},
{
name = top;
position = "{419, 750}";
}
);
layerId = "E29665B4-7994-459A-9DF7-986ADB216CAB";
paths = (
{
closed = 1;
nodes = (
"84 750 LINE",
"84 0 LINE",
"423 0 LINE SMOOTH",
"679 0 OFFCURVE",
"852 151 OFFCURVE",
"852 375 CURVE SMOOTH",
"852 599 OFFCURVE",
"679 750 OFFCURVE",
"423 750 CURVE SMOOTH"
);
},
{
closed = 1;
nodes = (
"216 704 LINE",
"143 634 LINE",
"432 634 LINE SMOOTH",
"604 634 OFFCURVE",
"718 530 OFFCURVE",
"718 375 CURVE SMOOTH",
"718 220 OFFCURVE",
"604 116 OFFCURVE",
"432 116 CURVE SMOOTH",
"143 116 LINE",
"216 46 LINE"
);
}
);
userData = {
KernOnName = D;
};
width = 896;
},
{
anchors = (
{
name = bottom;
position = "{453, 0}";
},
{
name = center;
position = "{468, 375}";
},
{
name = top;
position = "{448, 750}";
}
);
background = {
paths = (
{
closed = 0;
nodes = (
"455 750 LINE SMOOTH",
"57 750 LINE"
);
},
{
closed = 0;
nodes = (
"312 635 LINE",
"197 520 LINE",
"475 520 LINE SMOOTH"
);
}
);
};
layerId = "78844910-45F2-4BCF-9A61-7585832DDE30";
paths = (
{
closed = 1;
nodes = (
"60 750 LINE",
"60 0 LINE",
"458 0 LINE SMOOTH",
"732 0 OFFCURVE",
"914 148 OFFCURVE",
"914 375 CURVE SMOOTH",
"914 602 OFFCURVE",
"732 750 OFFCURVE",
"458 750 CURVE SMOOTH"
);
},
{
closed = 1;
nodes = (
"316 635 LINE",
"200 520 LINE",
"478 520 LINE SMOOTH",
"588 520 OFFCURVE",
"654 466 OFFCURVE",
"654 375 CURVE SMOOTH",
"654 284 OFFCURVE",
"588 230 OFFCURVE",
"478 230 CURVE SMOOTH",
"200 230 LINE",
"316 115 LINE"
);
}
);
userData = {
KernOnName = D;
};
width = 946;
}
);
leftKerningGroup = H;
rightKerningGroup = D;
unicode = 0044;
},
{
color = 2;
glyphname = Eth;
lastChange = "2022-05-31 08:19:35 +0000";
layers = (
{
components = (
{
name = D;
transform = "{1, 0, 0, 1, 37, 0}";
}
);
layerId = "FAA9A0EB-DB0F-4202-9822-2037CED7424C";
paths = (
{
closed = 1;
nodes = (
"20 351 LINE",
"435 351 LINE",
"435 401 LINE",
"20 401 LINE"
);
}
);
width = 902;
},
{
components = (
{
alignment = -1;
name = D;
transform = "{1, 0, 0, 1, 33, 0}";
}
);
layerId = "E29665B4-7994-459A-9DF7-986ADB216CAB";
paths = (
{
closed = 1;
nodes = (
"26 326 LINE",
"456 326 LINE",
"456 426 LINE",
"26 426 LINE"
);
}
);
width = 929;
},
{
components = (
{
name = D;
transform = "{1, 0, 0, 1, 20, 0}";
}
);
layerId = "78844910-45F2-4BCF-9A61-7585832DDE30";
paths = (
{
closed = 1;
nodes = (
"28 295 LINE",
"481 295 LINE",
"481 457 LINE",
"28 457 LINE"
);
}
);
width = 966;
}
);
leftKerningGroup = H;
rightKerningGroup = D;
unicode = 00D0;
},
{
glyphname = Dhook;
lastChange = "2022-05-27 07:16:54 +0000";
layers = (
{
anchors = (
{
name = bottom;
position = "{572, 0}";
},
{
name = center;
position = "{572, 375}";
},
{
name = top;
position = "{563, 750}";
}
);
layerId = "FAA9A0EB-DB0F-4202-9822-2037CED7424C";
paths = (
{
closed = 1;
nodes = (
"83 750 OFFCURVE",
"25 704 OFFCURVE",
"25 610 CURVE SMOOTH",
"25 564 OFFCURVE",
"43 513 OFFCURVE",
"59 479 CURVE",
"114 479 LINE",
"95 526 OFFCURVE",
"82 565 OFFCURVE",
"82 610 CURVE SMOOTH",
"82 677 OFFCURVE",
"121 701 OFFCURVE",
"182 701 CURVE SMOOTH",
"272 701 LINE",
"255 730 LINE",
"255 0 LINE",
"558 0 LINE SMOOTH",
"803 0 OFFCURVE",
"971 153 OFFCURVE",
"971 375 CURVE SMOOTH",
"971 597 OFFCURVE",
"803 750 OFFCURVE",
"558 750 CURVE SMOOTH",
"169 750 LINE SMOOTH"
);
},
{
closed = 1;
nodes = (
"311 730 LINE",
"291 701 LINE",
"558 701 LINE SMOOTH",
"768 701 OFFCURVE",
"913 568 OFFCURVE",
"913 375 CURVE SMOOTH",
"913 182 OFFCURVE",
"768 49 OFFCURVE",
"558 49 CURVE SMOOTH",
"265 49 LINE",
"311 4 LINE"
);
}
);
width = 1023;
},
{
anchors = (
{
name = bottom;
position = "{628, 0}";
},
{
name = center;
position = "{633, 375}";
},
{
name = top;
position = "{617, 750}";
}
);
guideLines = (
{
angle = 180;
position = "{452, 632}";
}
);
layerId = "E29665B4-7994-459A-9DF7-986ADB216CAB";
paths = (
{
closed = 1;
nodes = (
"85 750 OFFCURVE",
"23 692 OFFCURVE",
"23 589 CURVE SMOOTH",
"23 535 OFFCURVE",
"42 484 OFFCURVE",
"59 447 CURVE",
"165 447 LINE",
"151 482 OFFCURVE",
"140 518 OFFCURVE",
"140 558 CURVE SMOOTH",
"140 617 OFFCURVE",
"173 638 OFFCURVE",
"227 638 CURVE SMOOTH",
"322 638 LINE",
"282 685 LINE",
"282 0 LINE",
"621 0 LINE SMOOTH",
"877 0 OFFCURVE",
"1050 151 OFFCURVE",
"1050 375 CURVE SMOOTH",
"1050 599 OFFCURVE",
"877 750 OFFCURVE",
"621 750 CURVE SMOOTH",
"201 750 LINE SMOOTH"
);
},
{
closed = 1;
nodes = (
"414 685 LINE",
"369 634 LINE",
"630 634 LINE SMOOTH",
"802 634 OFFCURVE",
"916 530 OFFCURVE",
"916 375 CURVE SMOOTH",
"916 220 OFFCURVE",
"802 116 OFFCURVE",
"630 116 CURVE SMOOTH",
"341 116 LINE",
"414 46 LINE"
);
}
);
width = 1094;
},
{
anchors = (
{
name = bottom;
position = "{713, 0}";
},
{
name = center;
position = "{728, 375}";
},
{
name = top;
position = "{708, 750}";
}
);
layerId = "78844910-45F2-4BCF-9A61-7585832DDE30";
paths = (
{
closed = 1;
nodes = (
"83 750 OFFCURVE",
"15 673 OFFCURVE",
"15 555 CURVE SMOOTH",
"15 487 OFFCURVE",
"37 437 OFFCURVE",
"58 394 CURVE",
"243 394 LINE",
"238 410 OFFCURVE",
"231 442 OFFCURVE",
"231 472 CURVE SMOOTH",
"231 519 OFFCURVE",
"252 535 OFFCURVE",
"295 535 CURVE SMOOTH",
"391 535 LINE",
"320 636 LINE",
"320 0 LINE",
"718 0 LINE SMOOTH",
"992 0 OFFCURVE",
"1174 148 OFFCURVE",
"1174 375 CURVE SMOOTH",
"1174 602 OFFCURVE",
"992 750 OFFCURVE",
"718 750 CURVE SMOOTH",
"248 750 LINE SMOOTH"
);
},
{
closed = 1;
nodes = (
"576 635 LINE",
"460 520 LINE",
"738 520 LINE SMOOTH",
"848 520 OFFCURVE",
"914 466 OFFCURVE",
"914 375 CURVE SMOOTH",
"914 284 OFFCURVE",
"848 230 OFFCURVE",
"738 230 CURVE SMOOTH",
"460 230 LINE",
"576 115 LINE"
);
}
);
width = 1206;
}
);
rightKerningGroup = D;
unicode = 018A;
},
{
glyphname = E;
lastChange = "2022-05-27 07:16:54 +0000";
layers = (
{
anchors = (
{
name = bottom;
position = "{391, 0}";
},
{
name = ogonek;
position = "{680, 0}";
},
{
name = top;
position = "{374, 750}";
},
{
name = topleft;
position = "{27, 750}";
}
);
background = {
paths = (
{
closed = 1;
nodes = (
"62 0 LINE",
"117 0 LINE",
"117 750 LINE",
"62 750 LINE"
);
},
{
closed = 1;
nodes = (
"88 350 LINE",
"666 350 LINE",
"666 400 LINE",
"88 400 LINE"
);
},
{
closed = 1;
nodes = (
"88 700 LINE",
"686 700 LINE",
"686 750 LINE",
"88 750 LINE"
);
},
{
closed = 1;
nodes = (
"88 -1 LINE",
"691 -1 LINE",
"691 49 LINE",
"88 49 LINE"
);
}
);
};
layerId = "FAA9A0EB-DB0F-4202-9822-2037CED7424C";
paths = (
{
closed = 1;
nodes = (
"156 400 LINE",
"156 350 LINE",
"655 350 LINE",
"655 400 LINE"
);
},
{
closed = 1;
nodes = (
"126 744 LINE",
"90 700 LINE",
"675 700 LINE",
"675 750 LINE",
"70 750 LINE",
"133 375 LINE",
"70 0 LINE",
"680 0 LINE",
"680 50 LINE",
"90 50 LINE",
"126 5 LINE",
"188 375 LINE"
);
}
);
userData = {
KernOnName = E;
};
width = 736;
},
{
anchors = (
{
name = bottom;
position = "{408, 0}";
},
{
name = ogonek;
position = "{712, 0}";
},
{
name = top;
position = "{387, 750}";
},
{
name = topleft;
position = "{19, 750}";
}
);
background = {
paths = (
{
closed = 1;
nodes = (
"153 424 LINE",
"153 326 LINE",
"677 326 LINE",
"677 424 LINE"
);
},
{
closed = 1;
nodes = (
"184 710 LINE",
"124 641 LINE",
"701 641 LINE",
"701 750 LINE",
"52 750 LINE",
"111 375 LINE",
"52 0 LINE",
"706 0 LINE",
"706 108 LINE",
"124 108 LINE",
"184 40 LINE",
"240 375 LINE"
);
}
);
};
layerId = "E29665B4-7994-459A-9DF7-986ADB216CAB";
paths = (
{
closed = 1;
nodes = (
"159 430 LINE",
"159 320 LINE",
"683 320 LINE",
"683 430 LINE"
);
},
{
closed = 1;
nodes = (
"193 710 LINE",
"130 636 LINE",
"707 636 LINE",
"707 750 LINE",
"58 750 LINE",
"118 375 LINE",
"58 0 LINE",
"712 0 LINE",
"712 114 LINE",
"130 114 LINE",
"193 40 LINE",
"246 375 LINE"
);
}
);
userData = {
KernOnName = E;
};
width = 766;
},
{
anchors = (
{
name = bottom;
position = "{420, 0}";
},
{
name = ogonek;
position = "{766, 0}";
},
{
name = top;
position = "{409, 750}";
},
{
name = topleft;
position = "{7, 750}";
}
);
background = {
paths = (
{
closed = 1;
nodes = (
"159 467 LINE",
"159 283 LINE",
"726 283 LINE",
"726 467 LINE"
);
},
{
closed = 1;
nodes = (
"298 649 LINE",
"197 539 LINE",
"758 539 LINE",
"758 750 LINE",
"33 750 LINE",
"88 375 LINE",
"33 0 LINE",
"763 0 LINE",
"763 211 LINE",
"197 211 LINE",
"298 101 LINE",
"344 375 LINE"
);
}
);
};
guideLines = (
{
angle = 14.0362;
position = "{255, 962}";
}
);
layerId = "78844910-45F2-4BCF-9A61-7585832DDE30";
paths = (
{
closed = 1;
nodes = (
"164 464 LINE",
"164 286 LINE",
"729 286 LINE",
"729 464 LINE"
);
},
{
closed = 1;
nodes = (
"295 654 LINE",
"197 546 LINE",
"761 546 LINE",
"761 750 LINE",
"40 750 LINE",
"95 375 LINE",
"40 0 LINE",
"766 0 LINE",
"766 204 LINE",
"197 204 LINE",
"295 96 LINE",
"341 375 LINE"
);
}
);
userData = {
KernOnName = E;
};
width = 812;
}
);
leftKerningGroup = E;
rightKerningGroup = E;
unicode = 0045;
},
{
glyphname = Esh;
lastChange = "2022-05-27 07:16:54 +0000";
layers = (
{
anchors = (
{
name = bottom;
position = "{364, 0}";
},
{
name = ogonek;
position = "{648, 0}";
},
{
name = top;
position = "{342, 750}";
},
{
name = topleft;
position = "{-5, 750}";
}
);
layerId = "FAA9A0EB-DB0F-4202-9822-2037CED7424C";
paths = (
{
closed = 1;
nodes = (
"653 0 LINE",
"653 50 LINE",
"54 50 LINE",
"67 14 LINE",
"420 350 LINE",
"420 399 LINE",
"75 736 LINE",
"62 700 LINE",
"643 700 LINE",
"643 750 LINE",
"38 750 LINE",
"38 700 LINE",
"377 370 LINE",
"377 380 LINE",
"30 50 LINE",
"30 0 LINE"
);
}
);
width = 683;
},
{
anchors = (
{
name = bottom;
position = "{380, 0}";
},
{
name = ogonek;
position = "{706, 0}";
},
{
name = top;
position = "{359, 750}";
},
{
name = topleft;
position = "{-9, 750}";
}
);
layerId = "E29665B4-7994-459A-9DF7-986ADB216CAB";
paths = (
{
closed = 1;
nodes = (
"706 0 LINE",
"706 112 LINE",
"99 112 LINE",
"154 52 LINE",
"471 326 LINE",
"471 424 LINE",
"146 714 LINE",
"97 638 LINE",
"694 638 LINE",
"694 750 LINE",
"45 750 LINE",
"45 650 LINE",
"371 357 LINE",
"371 394 LINE",
"36 101 LINE",
"36 0 LINE"
);
}
);
width = 742;
},
{
anchors = (
{
name = bottom;
position = "{417, 0}";
},
{
name = ogonek;
position = "{791, 0}";
},
{
name = top;
position = "{417, 750}";
},
{
name = topleft;
position = "{6, 750}";
}
);
layerId = "78844910-45F2-4BCF-9A61-7585832DDE30";
paths = (
{
closed = 1;
nodes = (
"791 0 LINE",
"791 198 LINE",
"171 198 LINE",
"288 115 LINE",
"553 297 LINE",
"553 455 LINE",
"239 679 LINE",
"152 552 LINE",
"775 552 LINE",
"775 750 LINE",
"54 750 LINE",
"54 567 LINE",
"381 335 LINE",
"381 416 LINE",
"44 183 LINE",
"44 0 LINE"
);
}
);
width = 826;
}
);
unicode = 01A9;
},
{
color = 2;
glyphname = Estroke;
lastChange = "2022-05-27 07:18:18 +0000";
layers = (
{
components = (
{
name = E;
}
);
layerId = "FAA9A0EB-DB0F-4202-9822-2037CED7424C";
paths = (
{
closed = 1;
nodes = (
"151 -122 LINE",
"203 -122 LINE",
"618 872 LINE",
"566 872 LINE"
);
}
);
width = 736;
},
{
components = (
{
alignment = -1;
name = E;
}
);
layerId = "E29665B4-7994-459A-9DF7-986ADB216CAB";
paths = (
{
closed = 1;
nodes = (
"196 -122 LINE",
"304 -122 LINE",
"662 872 LINE",
"553 872 LINE"
);
}
);
width = 766;
},
{
components = (
{
name = E;
}
);
layerId = "78844910-45F2-4BCF-9A61-7585832DDE30";
paths = (
{
closed = 1;
nodes = (
"271 -122 LINE",
"471 -122 LINE",
"734 872 LINE",
"534 872 LINE"
);
}
);
width = 812;
}
);
leftKerningGroup = E;
rightKerningGroup = E;
unicode = 0246;
},
{
glyphname = Ezh;
lastChange = "2022-05-27 07:16:54 +0000";
layers = (
{
anchors = (
{
name = bottom;
position = "{364, 0}";
},
{
name = top;
position = "{364, 750}";
}
);
layerId = "FAA9A0EB-DB0F-4202-9822-2037CED7424C";
paths = (
{
closed = 1;
nodes = (
"61 700 LINE",
"642 700 LINE",
"634 736 LINE",
"288 444 LINE",
"288 395 LINE",
"372 395 LINE SMOOTH",
"568 395 OFFCURVE",
"635 326 OFFCURVE",
"635 225 CURVE SMOOTH",
"635 104 OFFCURVE",
"537 38 OFFCURVE",
"372 38 CURVE SMOOTH",
"202 38 OFFCURVE",
"100 109 OFFCURVE",
"85 231 CURVE",
"29 231 LINE",
"41 85 OFFCURVE",
"169 -12 OFFCURVE",
"372 -12 CURVE SMOOTH",
"570 -12 OFFCURVE",
"693 84 OFFCURVE",
"693 224 CURVE SMOOTH",
"693 348 OFFCURVE",
"603 439 OFFCURVE",
"391 439 CURVE SMOOTH",
"331 439 LINE",
"331 419 LINE",
"666 700 LINE",
"666 750 LINE",
"61 750 LINE"
);
}
);
width = 739;
},
{
anchors = (
{
name = bottom;
position = "{383, 0}";
},
{
name = top;
position = "{370, 750}";
}
);
layerId = "E29665B4-7994-459A-9DF7-986ADB216CAB";
paths = (
{
closed = 1;
nodes = (
"63 640 LINE",
"653 640 LINE",
"623 711 LINE",
"291 455 LINE",
"291 357 LINE",
"394 357 LINE SMOOTH",
"549 357 OFFCURVE",
"604 309 OFFCURVE",
"604 233 CURVE SMOOTH",
"604 142 OFFCURVE",
"527 94 OFFCURVE",
"390 94 CURVE SMOOTH",
"246 94 OFFCURVE",
"168 145 OFFCURVE",
"155 239 CURVE",
"22 239 LINE",
"32 86 OFFCURVE",
"171 -14 OFFCURVE",
"390 -14 CURVE SMOOTH",
"613 -14 OFFCURVE",
"738 86 OFFCURVE",
"738 227 CURVE SMOOTH",
"738 363 OFFCURVE",
"634 445 OFFCURVE",
"433 445 CURVE SMOOTH",
"361 445 LINE",
"381 400 LINE",
"705 650 LINE",
"705 750 LINE",
"63 750 LINE"
);
}
);
width = 783;
},
{
anchors = (
{
name = bottom;
position = "{413, 0}";
},
{
name = top;
position = "{416, 750}";
}
);
guideLines = (
{
angle = 180;
position = "{416, 750}";
}
);
layerId = "78844910-45F2-4BCF-9A61-7585832DDE30";
paths = (
{
closed = 1;
nodes = (
"64 558 LINE",
"670 558 LINE",
"651 676 LINE",
"295 472 LINE",
"295 314 LINE",
"430 314 LINE SMOOTH",
"521 314 OFFCURVE",
"550 289 OFFCURVE",
"550 247 CURVE SMOOTH",
"550 204 OFFCURVE",
"510 176 OFFCURVE",
"418 176 CURVE SMOOTH",
"318 176 OFFCURVE",
"274 204 OFFCURVE",
"266 253 CURVE",
"10 253 LINE",
"15 87 OFFCURVE",
"173 -18 OFFCURVE",
"418 -18 CURVE SMOOTH",
"682 -18 OFFCURVE",
"812 89 OFFCURVE",
"812 233 CURVE SMOOTH",
"812 354 OFFCURVE",
"728 436 OFFCURVE",
"484 436 CURVE SMOOTH",
"408 436 LINE",
"431 370 LINE",
"768 567 LINE",
"768 750 LINE",
"64 750 LINE"
);
}
);
width = 843;
}
);
leftKerningGroup = Ezh;
rightKerningGroup = Ezh;
unicode = 01B7;
},
{
glyphname = F;
lastChange = "2022-05-27 07:16:54 +0000";
layers = (
{
anchors = (
{
name = bottom;
position = "{125, 0}";
},
{
name = top;
position = "{381, 750}";
}
);
background = {
paths = (
{
closed = 1;
nodes = (
"89 0 LINE",
"144 0 LINE",
"144 750 LINE",
"89 750 LINE"
);
},
{
closed = 1;
nodes = (
"115 350 LINE",
"688 350 LINE",
"688 400 LINE",
"115 400 LINE"
);
},
{
closed = 1;
nodes = (
"115 700 LINE",
"703 700 LINE",
"703 750 LINE",
"115 750 LINE"
);
}
);
};
guideLines = (
{
angle = 7.125;
position = "{231, 641}";
}
);
layerId = "FAA9A0EB-DB0F-4202-9822-2037CED7424C";
paths = (
{
closed = 1;
nodes = (
"123 350 LINE",
"656 350 LINE",
"656 400 LINE",
"123 400 LINE"
);
},
{
closed = 1;
nodes = (
"97 750 LINE",
"97 0 LINE",
"153 0 LINE",
"153 745 LINE",
"108 700 LINE",
"671 700 LINE",
"671 750 LINE"
);
}
);
userData = {
KernOnName = F;
};
width = 708;
},
{
anchors = (
{
name = bottom;
position = "{150, 0}";
},
{
name = top;
position = "{387, 750}";
}
);
layerId = "E29665B4-7994-459A-9DF7-986ADB216CAB";
paths = (
{
closed = 1;
nodes = (
"148 306 LINE",
"687 306 LINE",
"687 422 LINE",
"148 422 LINE"
);
},
{
closed = 1;
nodes = (
"84 750 LINE",
"84 0 LINE",
"216 0 LINE",
"216 709 LINE",
"144 634 LINE",
"703 634 LINE",
"703 750 LINE"
);
}
);
userData = {
KernOnName = F;
};
width = 740;
},
{
anchors = (
{
name = bottom;
position = "{187, 0}";
},
{
name = top;
position = "{394, 750}";
}
);
background = {
paths = (
{
closed = 1;
nodes = (
"57 0 LINE",
"312 0 LINE",
"312 750 LINE",
"57 750 LINE"
);
},
{
closed = 1;
nodes = (
"183 209 LINE",
"731 209 LINE",
"731 429 LINE",
"183 429 LINE"
);
},
{
closed = 1;
nodes = (
"183 520 LINE",
"751 520 LINE",
"751 750 LINE",
"183 750 LINE"
);
}
);
};
guideLines = (
{
angle = 18.4349;
position = "{278, 962}";
}
);
layerId = "78844910-45F2-4BCF-9A61-7585832DDE30";
paths = (
{
closed = 1;
nodes = (
"186 242 LINE",
"734 242 LINE",
"734 457 LINE",
"186 457 LINE"
);
},
{
closed = 1;
nodes = (
"60 750 LINE",
"60 0 LINE",
"318 0 LINE",
"318 650 LINE",
"200 535 LINE",
"754 535 LINE",
"754 750 LINE"
);
}
);
userData = {
KernOnName = F;
};
width = 791;
}
);
leftKerningGroup = H;
rightKerningGroup = F;
unicode = 0046;
},
{
glyphname = Fhook;
lastChange = "2022-05-27 07:16:54 +0000";
layers = (
{
anchors = (
{
name = bottom;
position = "{-23, -165}";
},
{
name = top;
position = "{366, 750}";
}
);
layerId = "FAA9A0EB-DB0F-4202-9822-2037CED7424C";
paths = (
{
closed = 1;
nodes = (
"123 350 LINE",
"656 350 LINE",
"656 400 LINE",
"123 400 LINE"
);
},
{
closed = 1;
nodes = (
"153 722 LINE",
"123 700 LINE",
"671 700 LINE",
"671 750 LINE",
"97 750 LINE",
"97 21 LINE SMOOTH",
"97 -79 OFFCURVE",
"55 -125 OFFCURVE",
"-28 -125 CURVE SMOOTH",
"-67 -125 OFFCURVE",
"-107 -108 OFFCURVE",
"-132 -92 CURVE",
"-132 -147 LINE",
"-106 -163 OFFCURVE",
"-65 -177 OFFCURVE",
"-23 -177 CURVE SMOOTH",
"91 -177 OFFCURVE",
"153 -103 OFFCURVE",
"153 8 CURVE SMOOTH"
);
}
);
width = 708;
},
{
anchors = (
{
name = bottom;
position = "{1, -165}";
},
{
name = top;
position = "{380, 750}";
}
);
layerId = "E29665B4-7994-459A-9DF7-986ADB216CAB";
paths = (
{
closed = 1;
nodes = (
"148 306 LINE",
"687 306 LINE",
"687 422 LINE",
"148 422 LINE"
);
},
{
closed = 1;
nodes = (
"216 709 LINE",
"144 634 LINE",
"703 634 LINE",
"703 750 LINE",
"84 750 LINE",
"84 53 LINE SMOOTH",
"84 -31 OFFCURVE",
"47 -71 OFFCURVE",
"-28 -71 CURVE SMOOTH",
"-67 -71 OFFCURVE",
"-98 -62 OFFCURVE",
"-123 -53 CURVE",
"-123 -157 LINE",
"-87 -172 OFFCURVE",
"-43 -179 OFFCURVE",
"1 -179 CURVE SMOOTH",
"142 -179 OFFCURVE",
"216 -98 OFFCURVE",
"216 39 CURVE SMOOTH"
);
}
);
width = 740;
},
{
anchors = (
{
name = bottom;
position = "{39, -165}";
},
{
name = top;
position = "{399, 750}";
}
);
layerId = "78844910-45F2-4BCF-9A61-7585832DDE30";
paths = (
{
closed = 1;
nodes = (
"186 242 LINE",
"734 242 LINE",
"734 457 LINE",
"186 457 LINE"
);
},
{
closed = 1;
nodes = (
"318 650 LINE",
"200 535 LINE",
"754 535 LINE",
"754 750 LINE",
"60 750 LINE",
"60 105 LINE SMOOTH",
"60 45 OFFCURVE",
"36 10 OFFCURVE",
"-26 10 CURVE SMOOTH",
"-58 10 OFFCURVE",
"-87 16 OFFCURVE",
"-110 23 CURVE",
"-110 -164 LINE",
"-67 -177 OFFCURVE",
"-9 -183 OFFCURVE",
"39 -183 CURVE SMOOTH",
"225 -183 OFFCURVE",
"318 -89 OFFCURVE",
"318 90 CURVE SMOOTH"
);
}
);
width = 791;
}
);
leftKerningGroup = H;
rightKerningGroup = F;
unicode = 0191;
},
{
glyphname = G;
lastChange = "2022-05-27 07:16:54 +0000";
layers = (
{
anchors = (
{
name = bottom;
position = "{457, 0}";
},
{
name = top;
position = "{458, 750}";
}
);
background = {
paths = (
{
closed = 1;
nodes = (
"516 302 LINE",
"862 302 LINE",
"862 352 LINE",
"516 352 LINE"
);
},
{
closed = 1;
nodes = (
"811 345 LINE",
"811 171 OFFCURVE",
"677 40 OFFCURVE",
"469 40 CURVE SMOOTH",
"256 40 OFFCURVE",
"118 172 OFFCURVE",
"118 375 CURVE SMOOTH",
"118 578 OFFCURVE",
"256 710 OFFCURVE",
"468 710 CURVE SMOOTH",
"650 710 OFFCURVE",
"769 617 OFFCURVE",
"794 479 CURVE",
"852 479 LINE",
"835 641 OFFCURVE",
"681 762 OFFCURVE",
"471 762 CURVE SMOOTH",
"227 762 OFFCURVE",
"60 604 OFFCURVE",
"60 375 CURVE SMOOTH",
"60 146 OFFCURVE",
"227 -12 OFFCURVE",
"469 -12 CURVE SMOOTH",
"688 -12 OFFCURVE",
"840 134 OFFCURVE",
"840 328 CURVE"
);
},
{
closed = 1;
nodes = (
"814 0 LINE",
"862 0 LINE",
"862 342 LINE",
"807 342 LINE"
);
}
);
};
layerId = "FAA9A0EB-DB0F-4202-9822-2037CED7424C";
paths = (
{
closed = 1;
nodes = (
"803 345 LINE",
"803 171 OFFCURVE",
"669 40 OFFCURVE",
"461 40 CURVE SMOOTH",
"248 40 OFFCURVE",
"110 172 OFFCURVE",
"110 375 CURVE SMOOTH",
"110 578 OFFCURVE",
"248 710 OFFCURVE",
"460 710 CURVE SMOOTH",
"642 710 OFFCURVE",
"761 617 OFFCURVE",
"786 479 CURVE",
"844 479 LINE",
"827 641 OFFCURVE",
"673 762 OFFCURVE",
"463 762 CURVE SMOOTH",
"219 762 OFFCURVE",
"52 604 OFFCURVE",
"52 375 CURVE SMOOTH",
"52 146 OFFCURVE",
"219 -12 OFFCURVE",
"461 -12 CURVE SMOOTH",
"680 -12 OFFCURVE",
"832 134 OFFCURVE",
"832 328 CURVE"
);
},
{
closed = 1;
nodes = (
"825 302 LINE",
"803 325 LINE",
"806 0 LINE",
"854 0 LINE",
"854 352 LINE",
"508 352 LINE",
"508 302 LINE"
);
}
);
userData = {
KernOnName = G;
};
width = 920;
},
{
anchors = (
{
name = bottom;
position = "{470, 0}";
},
{
name = top;
position = "{468, 750}";
}
);
layerId = "E29665B4-7994-459A-9DF7-986ADB216CAB";
paths = (
{
closed = 1;
nodes = (
"776 337 LINE",
"770 195 OFFCURVE",
"653 99 OFFCURVE",
"477 99 CURVE SMOOTH",
"295 99 OFFCURVE",
"179 202 OFFCURVE",
"179 375 CURVE SMOOTH",
"179 547 OFFCURVE",
"291 648 OFFCURVE",
"467 648 CURVE SMOOTH",
"616 648 OFFCURVE",
"718 581 OFFCURVE",
"740 475 CURVE",
"874 475 LINE",
"849 642 OFFCURVE",
"697 764 OFFCURVE",
"468 764 CURVE SMOOTH",
"223 764 OFFCURVE",
"45 615 OFFCURVE",
"45 375 CURVE SMOOTH",
"45 135 OFFCURVE",
"223 -14 OFFCURVE",
"461 -14 CURVE SMOOTH",
"695 -14 OFFCURVE",
"831 139 OFFCURVE",
"835 326 CURVE"
);
},
{
closed = 1;
nodes = (
"799 269 LINE",
"768 311 LINE",
"784 0 LINE",
"882 0 LINE",
"882 369 LINE",
"503 369 LINE",
"503 269 LINE"
);
}
);
userData = {
KernOnName = G;
};
width = 946;
},
{
anchors = (
{
name = bottom;
position = "{492, 0}";
},
{
name = top;
position = "{477, 750}";
}
);
background = {
paths = (
{
closed = 1;
nodes = (
"521 255 LINE",
"931 255 LINE",
"931 391 LINE",
"521 391 LINE"
);
},
{
closed = 1;
nodes = (
"734 324 LINE",
"720 229 OFFCURVE",
"630 187 OFFCURVE",
"505 187 CURVE SMOOTH",
"374 187 OFFCURVE",
"294 246 OFFCURVE",
"294 375 CURVE SMOOTH",
"294 500 OFFCURVE",
"365 557 OFFCURVE",
"481 557 CURVE SMOOTH",
"574 557 OFFCURVE",
"647 525 OFFCURVE",
"666 469 CURVE",
"925 469 LINE",
"888 644 OFFCURVE",
"738 768 OFFCURVE",
"479 768 CURVE SMOOTH",
"232 768 OFFCURVE",
"36 633 OFFCURVE",
"36 375 CURVE SMOOTH",
"36 117 OFFCURVE",
"233 -18 OFFCURVE",
"465 -18 CURVE SMOOTH",
"721 -18 OFFCURVE",
"833 147 OFFCURVE",
"843 324 CURVE"
);
},
{
closed = 1;
nodes = (
"752 0 LINE",
"931 0 LINE",
"931 371 LINE",
"703 371 LINE"
);
}
);
};
layerId = "78844910-45F2-4BCF-9A61-7585832DDE30";
paths = (
{
closed = 1;
nodes = (
"731 324 LINE",
"717 229 OFFCURVE",
"627 187 OFFCURVE",
"502 187 CURVE SMOOTH",
"371 187 OFFCURVE",
"291 246 OFFCURVE",
"291 375 CURVE SMOOTH",
"291 500 OFFCURVE",
"362 557 OFFCURVE",
"478 557 CURVE SMOOTH",
"571 557 OFFCURVE",
"644 525 OFFCURVE",
"663 469 CURVE",
"922 469 LINE",
"885 644 OFFCURVE",
"735 768 OFFCURVE",
"476 768 CURVE SMOOTH",
"229 768 OFFCURVE",
"33 633 OFFCURVE",
"33 375 CURVE SMOOTH",
"33 117 OFFCURVE",
"230 -18 OFFCURVE",
"462 -18 CURVE SMOOTH",
"718 -18 OFFCURVE",
"830 147 OFFCURVE",
"840 324 CURVE"
);
},
{
closed = 1;
nodes = (
"756 224 LINE",
"711 287 LINE",
"749 0 LINE",
"928 0 LINE",
"928 401 LINE",
"518 401 LINE",
"518 224 LINE"
);
}
);
userData = {
KernOnName = G;
};
width = 976;
},
{
anchors = (
{
name = bottom;
position = "{457, 0}";
},
{
name = top;
position = "{458, 750}";
}
);
associatedMasterId = "FAA9A0EB-DB0F-4202-9822-2037CED7424C";
background = {
paths = (
{
closed = 1;
nodes = (
"516 302 LINE",
"862 302 LINE",
"862 352 LINE",
"516 352 LINE"
);
},
{
closed = 1;
nodes = (
"811 345 LINE",
"811 171 OFFCURVE",
"677 40 OFFCURVE",
"469 40 CURVE SMOOTH",
"256 40 OFFCURVE",
"118 172 OFFCURVE",
"118 375 CURVE SMOOTH",
"118 578 OFFCURVE",
"256 710 OFFCURVE",
"468 710 CURVE SMOOTH",
"650 710 OFFCURVE",
"769 617 OFFCURVE",
"794 479 CURVE",
"852 479 LINE",
"835 641 OFFCURVE",
"681 762 OFFCURVE",
"471 762 CURVE SMOOTH",
"227 762 OFFCURVE",
"60 604 OFFCURVE",
"60 375 CURVE SMOOTH",
"60 146 OFFCURVE",
"227 -12 OFFCURVE",
"469 -12 CURVE SMOOTH",
"688 -12 OFFCURVE",
"840 134 OFFCURVE",
"840 328 CURVE"
);
},
{
closed = 1;
nodes = (
"814 0 LINE",
"862 0 LINE",
"862 342 LINE",
"807 342 LINE"
);
}
);
};
layerId = "C7DAAA76-B0AE-46A1-BAE5-5C3286E2B556";
name = "Light [710]";
paths = (
{
closed = 1;
nodes = (
"803 345 LINE",
"803 171 OFFCURVE",
"669 40 OFFCURVE",
"461 40 CURVE SMOOTH",
"248 40 OFFCURVE",
"110 172 OFFCURVE",
"110 375 CURVE SMOOTH",
"110 578 OFFCURVE",
"248 710 OFFCURVE",
"460 710 CURVE SMOOTH",
"642 710 OFFCURVE",
"761 617 OFFCURVE",
"786 479 CURVE",
"844 479 LINE",
"827 641 OFFCURVE",
"673 762 OFFCURVE",
"463 762 CURVE SMOOTH",
"219 762 OFFCURVE",
"52 604 OFFCURVE",
"52 375 CURVE SMOOTH",
"52 146 OFFCURVE",
"219 -12 OFFCURVE",
"461 -12 CURVE SMOOTH",
"680 -12 OFFCURVE",
"832 134 OFFCURVE",
"832 328 CURVE"
);
},
{
closed = 1;
nodes = (
"825 302 LINE",
"803 325 LINE",
"806 0 LINE",
"854 0 LINE",
"854 352 LINE",
"508 352 LINE",
"508 302 LINE"
);
}
);
userData = {
KernOnName = G;
};
width = 920;
},
{
anchors = (
{
name = bottom;
position = "{470, 0}";
},
{
name = top;
position = "{468, 750}";
}
);
associatedMasterId = "E29665B4-7994-459A-9DF7-986ADB216CAB";
layerId = "F2583ED4-1DB5-455E-94B9-D3A864887F30";
name = "Regular [710]";
paths = (
{
closed = 1;
nodes = (
"776 337 LINE",
"770 195 OFFCURVE",
"653 99 OFFCURVE",
"477 99 CURVE SMOOTH",
"296 99 OFFCURVE",
"180 202 OFFCURVE",
"180 375 CURVE SMOOTH",
"180 547 OFFCURVE",
"292 648 OFFCURVE",
"467 648 CURVE SMOOTH",
"616 648 OFFCURVE",
"718 581 OFFCURVE",
"740 475 CURVE",
"874 475 LINE",
"849 642 OFFCURVE",
"697 764 OFFCURVE",
"468 764 CURVE SMOOTH",
"223 764 OFFCURVE",
"45 615 OFFCURVE",
"45 375 CURVE SMOOTH",
"45 135 OFFCURVE",
"223 -14 OFFCURVE",
"461 -14 CURVE SMOOTH",
"695 -14 OFFCURVE",
"831 139 OFFCURVE",
"835 326 CURVE"
);
},
{
closed = 1;
nodes = (
"799 249 LINE",
"768 311 LINE",
"784 0 LINE",
"882 0 LINE",
"882 389 LINE",
"483 389 LINE",
"483 249 LINE"
);
}
);
userData = {
KernOnName = G;
};
width = 946;
},
{
anchors = (
{
name = bottom;
position = "{492, 0}";
},
{
name = top;
position = "{477, 750}";
}
);
associatedMasterId = "78844910-45F2-4BCF-9A61-7585832DDE30";
background = {
paths = (
{
closed = 1;
nodes = (
"521 255 LINE",
"931 255 LINE",
"931 391 LINE",
"521 391 LINE"
);
},
{
closed = 1;
nodes = (
"734 324 LINE",
"720 229 OFFCURVE",
"630 187 OFFCURVE",
"505 187 CURVE SMOOTH",
"374 187 OFFCURVE",
"294 246 OFFCURVE",
"294 375 CURVE SMOOTH",
"294 500 OFFCURVE",
"365 557 OFFCURVE",
"481 557 CURVE SMOOTH",
"574 557 OFFCURVE",
"647 525 OFFCURVE",
"666 469 CURVE",
"925 469 LINE",
"888 644 OFFCURVE",
"738 768 OFFCURVE",
"479 768 CURVE SMOOTH",
"232 768 OFFCURVE",
"36 633 OFFCURVE",
"36 375 CURVE SMOOTH",
"36 117 OFFCURVE",
"233 -18 OFFCURVE",
"465 -18 CURVE SMOOTH",
"721 -18 OFFCURVE",
"833 147 OFFCURVE",
"843 324 CURVE"
);
},
{
closed = 1;
nodes = (
"752 0 LINE",
"931 0 LINE",
"931 371 LINE",
"703 371 LINE"
);
}
);
};
layerId = "EB5EFC00-BFD6-4509-A803-0F550B811AF4";
name = "Black [710]";
paths = (
{
closed = 1;
nodes = (
"731 324 LINE",
"717 229 OFFCURVE",
"627 187 OFFCURVE",
"502 187 CURVE SMOOTH",
"371 187 OFFCURVE",
"291 246 OFFCURVE",
"291 375 CURVE SMOOTH",
"291 500 OFFCURVE",
"362 557 OFFCURVE",
"478 557 CURVE SMOOTH",
"571 557 OFFCURVE",
"644 525 OFFCURVE",
"663 469 CURVE",
"922 469 LINE",
"885 644 OFFCURVE",
"735 768 OFFCURVE",
"476 768 CURVE SMOOTH",
"229 768 OFFCURVE",
"33 633 OFFCURVE",
"33 375 CURVE SMOOTH",
"33 117 OFFCURVE",
"230 -18 OFFCURVE",
"462 -18 CURVE SMOOTH",
"718 -18 OFFCURVE",
"830 147 OFFCURVE",
"840 324 CURVE"
);
},
{
closed = 1;
nodes = (
"756 255 LINE",
"711 287 LINE",
"749 0 LINE",
"928 0 LINE",
"928 401 LINE",
"518 401 LINE",
"518 255 LINE"
);
}
);
userData = {
KernOnName = G;
};
width = 976;
}
);
leftKerningGroup = O;
rightKerningGroup = G;
unicode = 0047;
},
{
glyphname = Gacute;
lastChange = "2022-05-27 07:16:54 +0000";
layers = (
{
components = (
{
name = G;
},
{
name = acutecomb.case;
transform = "{1, 0, 0, 1, 360, 0}";
}
);
layerId = "FAA9A0EB-DB0F-4202-9822-2037CED7424C";
width = 920;
},
{
components = (
{
name = G;
},
{
name = acutecomb.case;
transform = "{1, 0, 0, 1, 344, 0}";
}
);
layerId = "E29665B4-7994-459A-9DF7-986ADB216CAB";
width = 946;
},
{
components = (
{
name = G;
},
{
name = acutecomb.case;
transform = "{1, 0, 0, 1, 321, 0}";
}
);
layerId = "78844910-45F2-4BCF-9A61-7585832DDE30";
width = 976;
},
{
anchors = (
{
name = bottom;
position = "{457, 0}";
},
{
name = top;
position = "{456, 882}";
}
);
associatedMasterId = "FAA9A0EB-DB0F-4202-9822-2037CED7424C";
layerId = "AFF23E3C-D858-4E14-A2E3-56D0AF07146B";
name = "Light [710]";
paths = (
{
closed = 1;
nodes = (
"803 345 LINE",
"803 171 OFFCURVE",
"669 40 OFFCURVE",
"461 40 CURVE SMOOTH",
"248 40 OFFCURVE",
"110 172 OFFCURVE",
"110 375 CURVE SMOOTH",
"110 578 OFFCURVE",
"248 710 OFFCURVE",
"460 710 CURVE SMOOTH",
"642 710 OFFCURVE",
"761 617 OFFCURVE",
"786 479 CURVE",
"844 479 LINE",
"827 641 OFFCURVE",
"673 762 OFFCURVE",
"463 762 CURVE SMOOTH",
"219 762 OFFCURVE",
"52 604 OFFCURVE",
"52 375 CURVE SMOOTH",
"52 146 OFFCURVE",
"219 -12 OFFCURVE",
"461 -12 CURVE SMOOTH",
"680 -12 OFFCURVE",
"832 134 OFFCURVE",
"832 328 CURVE"
);
},
{
closed = 1;
nodes = (
"825 302 LINE",
"803 325 LINE",
"806 0 LINE",
"854 0 LINE",
"854 352 LINE",
"508 352 LINE",
"508 302 LINE"
);
},
{
closed = 1;
nodes = (
"400 817 LINE",
"465 817 LINE",
"619 952 LINE",
"545 952 LINE"
);
}
);
width = 920;
},
{
anchors = (
{
name = bottom;
position = "{470, 0}";
},
{
name = top;
position = "{477, 917}";
}
);
associatedMasterId = "E29665B4-7994-459A-9DF7-986ADB216CAB";
layerId = "20A87C75-65C1-408D-BDC1-DA7D80F1A7CC";
name = "Regular [710]";
paths = (
{
closed = 1;
nodes = (
"776 337 LINE",
"770 195 OFFCURVE",
"653 99 OFFCURVE",
"477 99 CURVE SMOOTH",
"296 99 OFFCURVE",
"180 202 OFFCURVE",
"180 375 CURVE SMOOTH",
"180 547 OFFCURVE",
"292 648 OFFCURVE",
"467 648 CURVE SMOOTH",
"616 648 OFFCURVE",
"718 581 OFFCURVE",
"740 475 CURVE",
"874 475 LINE",
"849 642 OFFCURVE",
"697 764 OFFCURVE",
"468 764 CURVE SMOOTH",
"223 764 OFFCURVE",
"45 615 OFFCURVE",
"45 375 CURVE SMOOTH",
"45 135 OFFCURVE",
"223 -14 OFFCURVE",
"461 -14 CURVE SMOOTH",
"695 -14 OFFCURVE",
"831 139 OFFCURVE",
"835 326 CURVE"
);
},
{
closed = 1;
nodes = (
"799 249 LINE",
"768 311 LINE",
"784 0 LINE",
"882 0 LINE",
"882 389 LINE",
"483 389 LINE",
"483 249 LINE"
);
},
{
closed = 1;
nodes = (
"377 811 LINE",
"513 811 LINE",
"677 963 LINE",
"523 963 LINE"
);
}
);
width = 946;
},
{
anchors = (
{
name = bottom;
position = "{492, 0}";
},
{
name = top;
position = "{499, 972}";
}
);
associatedMasterId = "78844910-45F2-4BCF-9A61-7585832DDE30";
layerId = "D85C3873-692B-4FCE-8553-6D3D07D46A96";
name = "Black [710]";
paths = (
{
closed = 1;
nodes = (
"731 324 LINE",
"717 229 OFFCURVE",
"627 187 OFFCURVE",
"502 187 CURVE SMOOTH",
"371 187 OFFCURVE",
"291 246 OFFCURVE",
"291 375 CURVE SMOOTH",
"291 500 OFFCURVE",
"362 557 OFFCURVE",
"478 557 CURVE SMOOTH",
"571 557 OFFCURVE",
"644 525 OFFCURVE",
"663 469 CURVE",
"922 469 LINE",
"885 644 OFFCURVE",
"735 768 OFFCURVE",
"476 768 CURVE SMOOTH",
"229 768 OFFCURVE",
"33 633 OFFCURVE",
"33 375 CURVE SMOOTH",
"33 117 OFFCURVE",
"230 -18 OFFCURVE",
"462 -18 CURVE SMOOTH",
"718 -18 OFFCURVE",
"830 147 OFFCURVE",
"840 324 CURVE"
);
},
{
closed = 1;
nodes = (
"756 255 LINE",
"711 287 LINE",
"749 0 LINE",
"928 0 LINE",
"928 401 LINE",
"518 401 LINE",
"518 255 LINE"
);
},
{
closed = 1;
nodes = (
"332 802 LINE",
"584 802 LINE",
"764 982 LINE",
"480 982 LINE"
);
}
);
width = 976;
}
);
leftKerningGroup = O;
rightKerningGroup = G;
unicode = 01F4;
},
{
glyphname = Gbreve;
lastChange = "2022-05-27 07:16:54 +0000";
layers = (
{
components = (
{
name = G;
},
{
name = brevecomb.case;
transform = "{1, 0, 0, 1, 242, 0}";
}
);
layerId = "FAA9A0EB-DB0F-4202-9822-2037CED7424C";
width = 920;
},
{
components = (
{
name = G;
},
{
name = brevecomb.case;
transform = "{1, 0, 0, 1, 225, 0}";
}
);
layerId = "E29665B4-7994-459A-9DF7-986ADB216CAB";
width = 946;
},
{
components = (
{
name = G;
},
{
name = brevecomb.case;
transform = "{1, 0, 0, 1, 192, 0}";
}
);
layerId = "78844910-45F2-4BCF-9A61-7585832DDE30";
width = 976;
},
{
anchors = (
{
name = bottom;
position = "{457, 0}";
},
{
name = top;
position = "{458, 952}";
}
);
associatedMasterId = "FAA9A0EB-DB0F-4202-9822-2037CED7424C";
layerId = "2EA7390C-6460-4097-9BDD-4F912D268471";
name = "Light [710]";
paths = (
{
closed = 1;
nodes = (
"803 345 LINE",
"803 171 OFFCURVE",
"669 40 OFFCURVE",
"461 40 CURVE SMOOTH",
"248 40 OFFCURVE",
"110 172 OFFCURVE",
"110 375 CURVE SMOOTH",
"110 578 OFFCURVE",
"248 710 OFFCURVE",
"460 710 CURVE SMOOTH",
"642 710 OFFCURVE",
"761 617 OFFCURVE",
"786 479 CURVE",
"844 479 LINE",
"827 641 OFFCURVE",
"673 762 OFFCURVE",
"463 762 CURVE SMOOTH",
"219 762 OFFCURVE",
"52 604 OFFCURVE",
"52 375 CURVE SMOOTH",
"52 146 OFFCURVE",
"219 -12 OFFCURVE",
"461 -12 CURVE SMOOTH",
"680 -12 OFFCURVE",
"832 134 OFFCURVE",
"832 328 CURVE"
);
},
{
closed = 1;
nodes = (
"825 302 LINE",
"803 325 LINE",
"806 0 LINE",
"854 0 LINE",
"854 352 LINE",
"508 352 LINE",
"508 302 LINE"
);
},
{
closed = 1;
nodes = (
"298 865 OFFCURVE",
"365 814 OFFCURVE",
"458 814 CURVE SMOOTH",
"551 814 OFFCURVE",
"618 865 OFFCURVE",
"634 952 CURVE",
"583 952 LINE",
"570 893 OFFCURVE",
"529 859 OFFCURVE",
"458 859 CURVE SMOOTH",
"387 859 OFFCURVE",
"346 893 OFFCURVE",
"333 952 CURVE",
"282 952 LINE"
);
}
);
width = 920;
},
{
anchors = (
{
name = bottom;
position = "{470, 0}";
},
{
name = top;
position = "{466, 964}";
}
);
associatedMasterId = "E29665B4-7994-459A-9DF7-986ADB216CAB";
layerId = "EF7EF309-9CC0-4824-BC9B-AF8FC86BDE29";
name = "Regular [710]";
paths = (
{
closed = 1;
nodes = (
"776 337 LINE",
"770 195 OFFCURVE",
"653 99 OFFCURVE",
"477 99 CURVE SMOOTH",
"296 99 OFFCURVE",
"180 202 OFFCURVE",
"180 375 CURVE SMOOTH",
"180 547 OFFCURVE",
"292 648 OFFCURVE",
"467 648 CURVE SMOOTH",
"616 648 OFFCURVE",
"718 581 OFFCURVE",
"740 475 CURVE",
"874 475 LINE",
"849 642 OFFCURVE",
"697 764 OFFCURVE",
"468 764 CURVE SMOOTH",
"223 764 OFFCURVE",
"45 615 OFFCURVE",
"45 375 CURVE SMOOTH",
"45 135 OFFCURVE",
"223 -14 OFFCURVE",
"461 -14 CURVE SMOOTH",
"695 -14 OFFCURVE",
"831 139 OFFCURVE",
"835 326 CURVE"
);
},
{
closed = 1;
nodes = (
"799 249 LINE",
"768 311 LINE",
"784 0 LINE",
"882 0 LINE",
"882 389 LINE",
"483 389 LINE",
"483 249 LINE"
);
},
{
closed = 1;
nodes = (
"276 861 OFFCURVE",
"357 806 OFFCURVE",
"467 806 CURVE SMOOTH",
"577 806 OFFCURVE",
"658 861 OFFCURVE",
"683 965 CURVE",
"579 965 LINE",
"563 918 OFFCURVE",
"526 891 OFFCURVE",
"467 891 CURVE SMOOTH",
"408 891 OFFCURVE",
"372 918 OFFCURVE",
"356 965 CURVE",
"252 965 LINE"
);
}
);
width = 946;
},
{
anchors = (
{
name = bottom;
position = "{492, 0}";
},
{
name = top;
position = "{471, 984}";
}
);
associatedMasterId = "78844910-45F2-4BCF-9A61-7585832DDE30";
layerId = "5092FA5B-D83B-472B-9E9D-928B09CE5656";
name = "Black [710]";
paths = (
{
closed = 1;
nodes = (
"731 324 LINE",
"717 229 OFFCURVE",
"627 187 OFFCURVE",
"502 187 CURVE SMOOTH",
"371 187 OFFCURVE",
"291 246 OFFCURVE",
"291 375 CURVE SMOOTH",
"291 500 OFFCURVE",
"362 557 OFFCURVE",
"478 557 CURVE SMOOTH",
"571 557 OFFCURVE",
"644 525 OFFCURVE",
"663 469 CURVE",
"922 469 LINE",
"885 644 OFFCURVE",
"735 768 OFFCURVE",
"476 768 CURVE SMOOTH",
"229 768 OFFCURVE",
"33 633 OFFCURVE",
"33 375 CURVE SMOOTH",
"33 117 OFFCURVE",
"230 -18 OFFCURVE",
"462 -18 CURVE SMOOTH",
"718 -18 OFFCURVE",
"830 147 OFFCURVE",
"840 324 CURVE"
);
},
{
closed = 1;
nodes = (
"756 255 LINE",
"711 287 LINE",
"749 0 LINE",
"928 0 LINE",
"928 401 LINE",
"518 401 LINE",
"518 255 LINE"
);
},
{
closed = 1;
nodes = (
"235 854 OFFCURVE",
"339 792 OFFCURVE",
"477 792 CURVE SMOOTH",
"615 792 OFFCURVE",
"719 854 OFFCURVE",
"757 987 CURVE",
"567 987 LINE",
"546 958 OFFCURVE",
"517 943 OFFCURVE",
"477 943 CURVE SMOOTH",
"437 943 OFFCURVE",
"408 958 OFFCURVE",
"387 987 CURVE",
"197 987 LINE"
);
}
);
width = 976;
}
);
leftKerningGroup = O;
rightKerningGroup = G;
unicode = 011E;
},
{
glyphname = Gcaron;
lastChange = "2022-05-27 07:16:54 +0000";
layers = (
{
components = (
{
name = G;
},
{
name = caroncomb.case;
transform = "{1, 0, 0, 1, 241, 0}";
}
);
layerId = "FAA9A0EB-DB0F-4202-9822-2037CED7424C";
width = 920;
},
{
components = (
{
name = G;
},
{
name = caroncomb.case;
transform = "{1, 0, 0, 1, 215, 0}";
}
);
layerId = "E29665B4-7994-459A-9DF7-986ADB216CAB";
width = 946;
},
{
components = (
{
name = G;
},
{
name = caroncomb.case;
transform = "{1, 0, 0, 1, 186, 0}";
}
);
layerId = "78844910-45F2-4BCF-9A61-7585832DDE30";
width = 976;
},
{
anchors = (
{
name = bottom;
position = "{457, 0}";
},
{
name = top;
position = "{457, 892}";
}
);
associatedMasterId = "FAA9A0EB-DB0F-4202-9822-2037CED7424C";
layerId = "26AC53F6-9FBF-48BB-96FB-705D95C39F2E";
name = "Light [710]";
paths = (
{
closed = 1;
nodes = (
"803 345 LINE",
"803 171 OFFCURVE",
"669 40 OFFCURVE",
"461 40 CURVE SMOOTH",
"248 40 OFFCURVE",
"110 172 OFFCURVE",
"110 375 CURVE SMOOTH",
"110 578 OFFCURVE",
"248 710 OFFCURVE",
"460 710 CURVE SMOOTH",
"642 710 OFFCURVE",
"761 617 OFFCURVE",
"786 479 CURVE",
"844 479 LINE",
"827 641 OFFCURVE",
"673 762 OFFCURVE",
"463 762 CURVE SMOOTH",
"219 762 OFFCURVE",
"52 604 OFFCURVE",
"52 375 CURVE SMOOTH",
"52 146 OFFCURVE",
"219 -12 OFFCURVE",
"461 -12 CURVE SMOOTH",
"680 -12 OFFCURVE",
"832 134 OFFCURVE",
"832 328 CURVE"
);
},
{
closed = 1;
nodes = (
"825 302 LINE",
"803 325 LINE",
"806 0 LINE",
"854 0 LINE",
"854 352 LINE",
"508 352 LINE",
"508 302 LINE"
);
},
{
closed = 1;
nodes = (
"635 952 LINE",
"575 952 LINE",
"450 849 LINE",
"466 849 LINE",
"341 952 LINE",
"281 952 LINE",
"424 817 LINE",
"492 817 LINE"
);
}
);
width = 920;
},
{
anchors = (
{
name = bottom;
position = "{470, 0}";
},
{
name = top;
position = "{473, 923}";
}
);
associatedMasterId = "E29665B4-7994-459A-9DF7-986ADB216CAB";
layerId = "0AC7D79A-01A4-48A0-9CCB-FDD6FE9DAD85";
name = "Regular [710]";
paths = (
{
closed = 1;
nodes = (
"776 337 LINE",
"770 195 OFFCURVE",
"653 99 OFFCURVE",
"477 99 CURVE SMOOTH",
"296 99 OFFCURVE",
"180 202 OFFCURVE",
"180 375 CURVE SMOOTH",
"180 547 OFFCURVE",
"292 648 OFFCURVE",
"467 648 CURVE SMOOTH",
"616 648 OFFCURVE",
"718 581 OFFCURVE",
"740 475 CURVE",
"874 475 LINE",
"849 642 OFFCURVE",
"697 764 OFFCURVE",
"468 764 CURVE SMOOTH",
"223 764 OFFCURVE",
"45 615 OFFCURVE",
"45 375 CURVE SMOOTH",
"45 135 OFFCURVE",
"223 -14 OFFCURVE",
"461 -14 CURVE SMOOTH",
"695 -14 OFFCURVE",
"831 139 OFFCURVE",
"835 326 CURVE"
);
},
{
closed = 1;
nodes = (
"799 249 LINE",
"768 311 LINE",
"784 0 LINE",
"882 0 LINE",
"882 389 LINE",
"483 389 LINE",
"483 249 LINE"
);
},
{
closed = 1;
nodes = (
"689 963 LINE",
"571 963 LINE",
"441 859 LINE",
"497 859 LINE",
"367 963 LINE",
"248 963 LINE",
"396 811 LINE",
"542 811 LINE"
);
}
);
width = 946;
},
{
anchors = (
{
name = bottom;
position = "{492, 0}";
},
{
name = top;
position = "{482, 972}";
}
);
associatedMasterId = "78844910-45F2-4BCF-9A61-7585832DDE30";
layerId = "B257D3A9-8069-46C7-AF11-F502B1BFA5BF";
name = "Black [710]";
paths = (
{
closed = 1;
nodes = (
"731 324 LINE",
"717 229 OFFCURVE",
"627 187 OFFCURVE",
"502 187 CURVE SMOOTH",
"371 187 OFFCURVE",
"291 246 OFFCURVE",
"291 375 CURVE SMOOTH",
"291 500 OFFCURVE",
"362 557 OFFCURVE",
"478 557 CURVE SMOOTH",
"571 557 OFFCURVE",
"644 525 OFFCURVE",
"663 469 CURVE",
"922 469 LINE",
"885 644 OFFCURVE",
"735 768 OFFCURVE",
"476 768 CURVE SMOOTH",
"229 768 OFFCURVE",
"33 633 OFFCURVE",
"33 375 CURVE SMOOTH",
"33 117 OFFCURVE",
"230 -18 OFFCURVE",
"462 -18 CURVE SMOOTH",
"718 -18 OFFCURVE",
"830 147 OFFCURVE",
"840 324 CURVE"
);
},
{
closed = 1;
nodes = (
"756 255 LINE",
"711 287 LINE",
"749 0 LINE",
"928 0 LINE",
"928 401 LINE",
"518 401 LINE",
"518 255 LINE"
);
},
{
closed = 1;
nodes = (
"762 981 LINE",
"562 981 LINE",
"416 877 LINE",
"536 877 LINE",
"390 981 LINE",
"190 981 LINE",
"345 801 LINE",
"607 801 LINE"
);
}
);
width = 976;
}
);
leftKerningGroup = O;
rightKerningGroup = G;
unicode = 01E6;
},
{
glyphname = Gcircumflex;
lastChange = "2022-05-27 07:16:54 +0000";
layers = (
{
components = (
{
name = G;
},
{
name = circumflexcomb.case;
transform = "{1, 0, 0, 1, 241, 0}";
}
);
layerId = "FAA9A0EB-DB0F-4202-9822-2037CED7424C";
width = 920;
},
{
components = (
{
name = G;
},
{
name = circumflexcomb.case;
transform = "{1, 0, 0, 1, 215, 0}";
}
);
layerId = "E29665B4-7994-459A-9DF7-986ADB216CAB";
width = 946;
},
{
components = (
{
name = G;
},
{
name = circumflexcomb.case;
transform = "{1, 0, 0, 1, 186, 0}";
}
);
layerId = "78844910-45F2-4BCF-9A61-7585832DDE30";
width = 976;
},
{
anchors = (
{
name = bottom;
position = "{457, 0}";
},
{
name = top;
position = "{457, 952}";
}
);
associatedMasterId = "FAA9A0EB-DB0F-4202-9822-2037CED7424C";
layerId = "AFDEF996-C66A-47DB-8137-29E1599DA87E";
name = "Light [710]";
paths = (
{
closed = 1;
nodes = (
"803 345 LINE",
"803 171 OFFCURVE",
"669 40 OFFCURVE",
"461 40 CURVE SMOOTH",
"248 40 OFFCURVE",
"110 172 OFFCURVE",
"110 375 CURVE SMOOTH",
"110 578 OFFCURVE",
"248 710 OFFCURVE",
"460 710 CURVE SMOOTH",
"642 710 OFFCURVE",
"761 617 OFFCURVE",
"786 479 CURVE",
"844 479 LINE",
"827 641 OFFCURVE",
"673 762 OFFCURVE",
"463 762 CURVE SMOOTH",
"219 762 OFFCURVE",
"52 604 OFFCURVE",
"52 375 CURVE SMOOTH",
"52 146 OFFCURVE",
"219 -12 OFFCURVE",
"461 -12 CURVE SMOOTH",
"680 -12 OFFCURVE",
"832 134 OFFCURVE",
"832 328 CURVE"
);
},
{
closed = 1;
nodes = (
"825 302 LINE",
"803 325 LINE",
"806 0 LINE",
"854 0 LINE",
"854 352 LINE",
"508 352 LINE",
"508 302 LINE"
);
},
{
closed = 1;
nodes = (
"281 817 LINE",
"341 817 LINE",
"466 920 LINE",
"450 920 LINE",
"575 817 LINE",
"635 817 LINE",
"492 952 LINE",
"424 952 LINE"
);
}
);
width = 920;
},
{
anchors = (
{
name = bottom;
position = "{470, 0}";
},
{
name = top;
position = "{469, 963}";
}
);
associatedMasterId = "E29665B4-7994-459A-9DF7-986ADB216CAB";
layerId = "47312BA8-B3FE-4BAD-87D6-4AEF22617273";
name = "Regular [710]";
paths = (
{
closed = 1;
nodes = (
"776 337 LINE",
"770 195 OFFCURVE",
"653 99 OFFCURVE",
"477 99 CURVE SMOOTH",
"296 99 OFFCURVE",
"180 202 OFFCURVE",
"180 375 CURVE SMOOTH",
"180 547 OFFCURVE",
"292 648 OFFCURVE",
"467 648 CURVE SMOOTH",
"616 648 OFFCURVE",
"718 581 OFFCURVE",
"740 475 CURVE",
"874 475 LINE",
"849 642 OFFCURVE",
"697 764 OFFCURVE",
"468 764 CURVE SMOOTH",
"223 764 OFFCURVE",
"45 615 OFFCURVE",
"45 375 CURVE SMOOTH",
"45 135 OFFCURVE",
"223 -14 OFFCURVE",
"461 -14 CURVE SMOOTH",
"695 -14 OFFCURVE",
"831 139 OFFCURVE",
"835 326 CURVE"
);
},
{
closed = 1;
nodes = (
"799 249 LINE",
"768 311 LINE",
"784 0 LINE",
"882 0 LINE",
"882 389 LINE",
"483 389 LINE",
"483 249 LINE"
);
},
{
closed = 1;
nodes = (
"247 811 LINE",
"365 811 LINE",
"495 915 LINE",
"439 915 LINE",
"569 811 LINE",
"688 811 LINE",
"540 963 LINE",
"394 963 LINE"
);
}
);
width = 946;
},
{
anchors = (
{
name = bottom;
position = "{492, 0}";
},
{
name = top;
position = "{491, 982}";
}
);
associatedMasterId = "78844910-45F2-4BCF-9A61-7585832DDE30";
layerId = "A2FD15C6-E3CF-46A6-8013-8002143F4029";
name = "Black [710]";
paths = (
{
closed = 1;
nodes = (
"731 324 LINE",
"717 229 OFFCURVE",
"627 187 OFFCURVE",
"502 187 CURVE SMOOTH",
"371 187 OFFCURVE",
"291 246 OFFCURVE",
"291 375 CURVE SMOOTH",
"291 500 OFFCURVE",
"362 557 OFFCURVE",
"478 557 CURVE SMOOTH",
"571 557 OFFCURVE",
"644 525 OFFCURVE",
"663 469 CURVE",
"922 469 LINE",
"885 644 OFFCURVE",
"735 768 OFFCURVE",
"476 768 CURVE SMOOTH",
"229 768 OFFCURVE",
"33 633 OFFCURVE",
"33 375 CURVE SMOOTH",
"33 117 OFFCURVE",
"230 -18 OFFCURVE",
"462 -18 CURVE SMOOTH",
"718 -18 OFFCURVE",
"830 147 OFFCURVE",
"840 324 CURVE"
);
},
{
closed = 1;
nodes = (
"756 255 LINE",
"711 287 LINE",
"749 0 LINE",
"928 0 LINE",
"928 401 LINE",
"518 401 LINE",
"518 255 LINE"
);
},
{
closed = 1;
nodes = (
"191 802 LINE",
"391 802 LINE",
"537 906 LINE",
"417 906 LINE",
"563 802 LINE",
"763 802 LINE",
"608 982 LINE",
"346 982 LINE"
);
}
);
width = 976;
}
);
leftKerningGroup = O;
rightKerningGroup = G;
unicode = 011C;
},
{
glyphname = Gcommaaccent;
lastChange = "2022-05-27 07:16:54 +0000";
layers = (
{
components = (
{
name = G;
},
{
name = commaaccentcomb;
transform = "{1, 0, 0, 1, 356, 0}";
}
);
layerId = "FAA9A0EB-DB0F-4202-9822-2037CED7424C";
width = 920;
},
{
components = (
{
name = G;
},
{
name = commaaccentcomb;
transform = "{1, 0, 0, 1, 350, 0}";
}
);
layerId = "E29665B4-7994-459A-9DF7-986ADB216CAB";
width = 946;
},
{
components = (
{
name = G;
},
{
name = commaaccentcomb;
transform = "{1, 0, 0, 1, 342, 0}";
}
);
layerId = "78844910-45F2-4BCF-9A61-7585832DDE30";
width = 976;
},
{
anchors = (
{
name = bottom;
position = "{457, 0}";
},
{
name = top;
position = "{458, 750}";
}
);
associatedMasterId = "FAA9A0EB-DB0F-4202-9822-2037CED7424C";
layerId = "6B4CB4EC-0926-48DF-AB98-2B3472A92E98";
name = "Light [710]";
paths = (
{
closed = 1;
nodes = (
"803 345 LINE",
"803 171 OFFCURVE",
"669 40 OFFCURVE",
"461 40 CURVE SMOOTH",
"248 40 OFFCURVE",
"110 172 OFFCURVE",
"110 375 CURVE SMOOTH",
"110 578 OFFCURVE",
"248 710 OFFCURVE",
"460 710 CURVE SMOOTH",
"642 710 OFFCURVE",
"761 617 OFFCURVE",
"786 479 CURVE",
"844 479 LINE",
"827 641 OFFCURVE",
"673 762 OFFCURVE",
"463 762 CURVE SMOOTH",
"219 762 OFFCURVE",
"52 604 OFFCURVE",
"52 375 CURVE SMOOTH",
"52 146 OFFCURVE",
"219 -12 OFFCURVE",
"461 -12 CURVE SMOOTH",
"680 -12 OFFCURVE",
"832 134 OFFCURVE",
"832 328 CURVE"
);
},
{
closed = 1;
nodes = (
"825 302 LINE",
"803 325 LINE",
"806 0 LINE",
"854 0 LINE",
"854 352 LINE",
"508 352 LINE",
"508 302 LINE"
);
},
{
closed = 1;
nodes = (
"455 -216 LINE",
"478 -172 LINE SMOOTH",
"497 -136 OFFCURVE",
"506 -118 OFFCURVE",
"506 -98 CURVE SMOOTH",
"506 -74 OFFCURVE",
"492 -50 OFFCURVE",
"458 -50 CURVE SMOOTH",
"429 -50 OFFCURVE",
"412 -71 OFFCURVE",
"412 -96 CURVE SMOOTH",
"412 -118 OFFCURVE",
"431 -139 OFFCURVE",
"457 -139 CURVE",
"455 -122 LINE",
"413 -216 LINE"
);
}
);
width = 920;
},
{
anchors = (
{
name = bottom;
position = "{470, 0}";
},
{
name = top;
position = "{468, 750}";
}
);
associatedMasterId = "E29665B4-7994-459A-9DF7-986ADB216CAB";
layerId = "C6A44798-BB1C-4988-A60F-7E322780ED88";
name = "Regular [710]";
paths = (
{
closed = 1;
nodes = (
"776 337 LINE",
"770 195 OFFCURVE",
"653 99 OFFCURVE",
"477 99 CURVE SMOOTH",
"296 99 OFFCURVE",
"180 202 OFFCURVE",
"180 375 CURVE SMOOTH",
"180 547 OFFCURVE",
"292 648 OFFCURVE",
"467 648 CURVE SMOOTH",
"616 648 OFFCURVE",
"718 581 OFFCURVE",
"740 475 CURVE",
"874 475 LINE",
"849 642 OFFCURVE",
"697 764 OFFCURVE",
"468 764 CURVE SMOOTH",
"223 764 OFFCURVE",
"45 615 OFFCURVE",
"45 375 CURVE SMOOTH",
"45 135 OFFCURVE",
"223 -14 OFFCURVE",
"461 -14 CURVE SMOOTH",
"695 -14 OFFCURVE",
"831 139 OFFCURVE",
"835 326 CURVE"
);
},
{
closed = 1;
nodes = (
"799 249 LINE",
"768 311 LINE",
"784 0 LINE",
"882 0 LINE",
"882 389 LINE",
"483 389 LINE",
"483 249 LINE"
);
},
{
closed = 1;
nodes = (
"466 -263 LINE",
"505 -208 LINE SMOOTH",
"540 -158 OFFCURVE",
"549 -143 OFFCURVE",
"549 -114 CURVE SMOOTH",
"549 -76 OFFCURVE",
"518 -47 OFFCURVE",
"470 -47 CURVE SMOOTH",
"422 -47 OFFCURVE",
"392 -74 OFFCURVE",
"392 -112 CURVE SMOOTH",
"392 -150 OFFCURVE",
"423 -176 OFFCURVE",
"470 -176 CURVE",
"465 -139 LINE",
"396 -263 LINE"
);
}
);
width = 946;
},
{
anchors = (
{
name = bottom;
position = "{492, 0}";
},
{
name = top;
position = "{477, 750}";
}
);
associatedMasterId = "78844910-45F2-4BCF-9A61-7585832DDE30";
layerId = "1194FB72-ABD7-454E-83D7-694BA9874D8D";
name = "Black [710]";
paths = (
{
closed = 1;
nodes = (
"731 324 LINE",
"717 229 OFFCURVE",
"627 187 OFFCURVE",
"502 187 CURVE SMOOTH",
"371 187 OFFCURVE",
"291 246 OFFCURVE",
"291 375 CURVE SMOOTH",
"291 500 OFFCURVE",
"362 557 OFFCURVE",
"478 557 CURVE SMOOTH",
"571 557 OFFCURVE",
"644 525 OFFCURVE",
"663 469 CURVE",
"922 469 LINE",
"885 644 OFFCURVE",
"735 768 OFFCURVE",
"476 768 CURVE SMOOTH",
"229 768 OFFCURVE",
"33 633 OFFCURVE",
"33 375 CURVE SMOOTH",
"33 117 OFFCURVE",
"230 -18 OFFCURVE",
"462 -18 CURVE SMOOTH",
"718 -18 OFFCURVE",
"830 147 OFFCURVE",
"840 324 CURVE"
);
},
{
closed = 1;
nodes = (
"756 255 LINE",
"711 287 LINE",
"749 0 LINE",
"928 0 LINE",
"928 401 LINE",
"518 401 LINE",
"518 255 LINE"
);
},
{
closed = 1;
nodes = (
"486 -339 LINE",
"550 -266 LINE SMOOTH",
"598 -211 OFFCURVE",
"621 -182 OFFCURVE",
"621 -140 CURVE SMOOTH",
"621 -78 OFFCURVE",
"571 -42 OFFCURVE",
"492 -42 CURVE SMOOTH",
"413 -42 OFFCURVE",
"362 -78 OFFCURVE",
"362 -139 CURVE SMOOTH",
"362 -201 OFFCURVE",
"413 -237 OFFCURVE",
"492 -237 CURVE",
"482 -168 LINE",
"370 -339 LINE"
);
}
);
width = 976;
}
);
leftKerningGroup = O;
rightKerningGroup = G;
unicode = 0122;
},
{
glyphname = Gdotaccent;
lastChange = "2022-05-27 07:16:54 +0000";
layers = (
{
components = (
{
name = G;
},
{
name = dotaccentcomb.case;
transform = "{1, 0, 0, 1, 352, 0}";
}
);
layerId = "FAA9A0EB-DB0F-4202-9822-2037CED7424C";
width = 920;
},
{
components = (
{
name = G;
},
{
name = dotaccentcomb.case;
transform = "{1, 0, 0, 1, 335, 0}";
}
);
layerId = "E29665B4-7994-459A-9DF7-986ADB216CAB";
width = 946;
},
{
components = (
{
name = G;
},
{
name = dotaccentcomb.case;
transform = "{1, 0, 0, 1, 300, 0}";
}
);
layerId = "78844910-45F2-4BCF-9A61-7585832DDE30";
width = 976;
},
{
anchors = (
{
name = bottom;
position = "{457, 0}";
},
{
name = top;
position = "{458, 921}";
}
);
associatedMasterId = "FAA9A0EB-DB0F-4202-9822-2037CED7424C";
layerId = "147C9229-5DC5-493C-8362-4BB6217D8572";
name = "Light [710]";
paths = (
{
closed = 1;
nodes = (
"803 345 LINE",
"803 171 OFFCURVE",
"669 40 OFFCURVE",
"461 40 CURVE SMOOTH",
"248 40 OFFCURVE",
"110 172 OFFCURVE",
"110 375 CURVE SMOOTH",
"110 578 OFFCURVE",
"248 710 OFFCURVE",
"460 710 CURVE SMOOTH",
"642 710 OFFCURVE",
"761 617 OFFCURVE",
"786 479 CURVE",
"844 479 LINE",
"827 641 OFFCURVE",
"673 762 OFFCURVE",
"463 762 CURVE SMOOTH",
"219 762 OFFCURVE",
"52 604 OFFCURVE",
"52 375 CURVE SMOOTH",
"52 146 OFFCURVE",
"219 -12 OFFCURVE",
"461 -12 CURVE SMOOTH",
"680 -12 OFFCURVE",
"832 134 OFFCURVE",
"832 328 CURVE"
);
},
{
closed = 1;
nodes = (
"825 302 LINE",
"803 325 LINE",
"806 0 LINE",
"854 0 LINE",
"854 352 LINE",
"508 352 LINE",
"508 302 LINE"
);
},
{
closed = 1;
nodes = (
"486 845 OFFCURVE",
"508 867 OFFCURVE",
"508 894 CURVE SMOOTH",
"508 921 OFFCURVE",
"486 943 OFFCURVE",
"458 943 CURVE SMOOTH",
"430 943 OFFCURVE",
"408 921 OFFCURVE",
"408 894 CURVE SMOOTH",
"408 867 OFFCURVE",
"430 845 OFFCURVE",
"458 845 CURVE SMOOTH"
);
}
);
width = 920;
},
{
anchors = (
{
name = bottom;
position = "{470, 0}";
},
{
name = top;
position = "{466, 952}";
}
);
associatedMasterId = "E29665B4-7994-459A-9DF7-986ADB216CAB";
layerId = "741F2950-9C5D-4FAB-86ED-6BDB6E646B94";
name = "Regular [710]";
paths = (
{
closed = 1;
nodes = (
"776 337 LINE",
"770 195 OFFCURVE",
"653 99 OFFCURVE",
"477 99 CURVE SMOOTH",
"296 99 OFFCURVE",
"180 202 OFFCURVE",
"180 375 CURVE SMOOTH",
"180 547 OFFCURVE",
"292 648 OFFCURVE",
"467 648 CURVE SMOOTH",
"616 648 OFFCURVE",
"718 581 OFFCURVE",
"740 475 CURVE",
"874 475 LINE",
"849 642 OFFCURVE",
"697 764 OFFCURVE",
"468 764 CURVE SMOOTH",
"223 764 OFFCURVE",
"45 615 OFFCURVE",
"45 375 CURVE SMOOTH",
"45 135 OFFCURVE",
"223 -14 OFFCURVE",
"461 -14 CURVE SMOOTH",
"695 -14 OFFCURVE",
"831 139 OFFCURVE",
"835 326 CURVE"
);
},
{
closed = 1;
nodes = (
"799 249 LINE",
"768 311 LINE",
"784 0 LINE",
"882 0 LINE",
"882 389 LINE",
"483 389 LINE",
"483 249 LINE"
);
},
{
closed = 1;
nodes = (
"518 825 OFFCURVE",
"553 855 OFFCURVE",
"553 899 CURVE SMOOTH",
"553 943 OFFCURVE",
"518 974 OFFCURVE",
"468 974 CURVE SMOOTH",
"418 974 OFFCURVE",
"383 943 OFFCURVE",
"383 899 CURVE SMOOTH",
"383 855 OFFCURVE",
"418 825 OFFCURVE",
"468 825 CURVE SMOOTH"
);
}
);
width = 946;
},
{
anchors = (
{
name = bottom;
position = "{492, 0}";
},
{
name = top;
position = "{472, 1002}";
}
);
associatedMasterId = "78844910-45F2-4BCF-9A61-7585832DDE30";
layerId = "6B6F8834-A157-4FED-BA99-4EB98E64CDA5";
name = "Black [710]";
paths = (
{
closed = 1;
nodes = (
"731 324 LINE",
"717 229 OFFCURVE",
"627 187 OFFCURVE",
"502 187 CURVE SMOOTH",
"371 187 OFFCURVE",
"291 246 OFFCURVE",
"291 375 CURVE SMOOTH",
"291 500 OFFCURVE",
"362 557 OFFCURVE",
"478 557 CURVE SMOOTH",
"571 557 OFFCURVE",
"644 525 OFFCURVE",
"663 469 CURVE",
"922 469 LINE",
"885 644 OFFCURVE",
"735 768 OFFCURVE",
"476 768 CURVE SMOOTH",
"229 768 OFFCURVE",
"33 633 OFFCURVE",
"33 375 CURVE SMOOTH",
"33 117 OFFCURVE",
"230 -18 OFFCURVE",
"462 -18 CURVE SMOOTH",
"718 -18 OFFCURVE",
"830 147 OFFCURVE",
"840 324 CURVE"
);
},
{
closed = 1;
nodes = (
"756 255 LINE",
"711 287 LINE",
"749 0 LINE",
"928 0 LINE",
"928 401 LINE",
"518 401 LINE",
"518 255 LINE"
);
},
{
closed = 1;
nodes = (
"563 792 OFFCURVE",
"619 836 OFFCURVE",
"619 908 CURVE SMOOTH",
"619 980 OFFCURVE",
"563 1024 OFFCURVE",
"477 1024 CURVE SMOOTH",
"391 1024 OFFCURVE",
"335 980 OFFCURVE",
"335 908 CURVE SMOOTH",
"335 836 OFFCURVE",
"391 792 OFFCURVE",
"477 792 CURVE SMOOTH"
);
}
);
width = 976;
}
);
leftKerningGroup = O;
rightKerningGroup = G;
unicode = 0120;
},
{
glyphname = Ghook;
lastChange = "2022-05-27 07:16:54 +0000";
layers = (
{
anchors = (
{
name = bottom;
position = "{457, 0}";
},
{
name = top;
position = "{458, 750}";
}
);
background = {
components = (
{
name = G;
}
);
};
layerId = "FAA9A0EB-DB0F-4202-9822-2037CED7424C";
paths = (
{
closed = 1;
nodes = (
"680 -12 OFFCURVE",
"832 134 OFFCURVE",
"832 328 CURVE",
"803 345 LINE",
"803 171 OFFCURVE",
"669 40 OFFCURVE",
"461 40 CURVE SMOOTH",
"248 40 OFFCURVE",
"110 172 OFFCURVE",
"110 375 CURVE SMOOTH",
"110 578 OFFCURVE",
"248 710 OFFCURVE",
"460 710 CURVE SMOOTH",
"642 710 OFFCURVE",
"761 617 OFFCURVE",
"786 479 CURVE",
"844 479 LINE",
"841 515 OFFCURVE",
"828 550 OFFCURVE",
"814 579 CURVE SMOOTH",
"776 656 OFFCURVE",
"754 701 OFFCURVE",
"754 750 CURVE SMOOTH",
"754 804 OFFCURVE",
"789 845 OFFCURVE",
"858 845 CURVE SMOOTH",
"899 845 OFFCURVE",
"933 829 OFFCURVE",
"960 812 CURVE",
"960 867 LINE",
"934 883 OFFCURVE",
"901 897 OFFCURVE",
"853 897 CURVE SMOOTH",
"763 897 OFFCURVE",
"698 843 OFFCURVE",
"698 762 CURVE SMOOTH",
"698 705 OFFCURVE",
"725 664 OFFCURVE",
"757 620 CURVE",
"754 648 LINE",
"688 721 OFFCURVE",
"597 762 OFFCURVE",
"463 762 CURVE SMOOTH",
"219 762 OFFCURVE",
"52 604 OFFCURVE",
"52 375 CURVE SMOOTH",
"52 146 OFFCURVE",
"219 -12 OFFCURVE",
"461 -12 CURVE SMOOTH"
);
},
{
closed = 1;
nodes = (
"825 302 LINE",
"803 325 LINE",
"806 0 LINE",
"854 0 LINE",
"854 352 LINE",
"508 352 LINE",
"508 302 LINE"
);
}
);
width = 919;
},
{
anchors = (
{
name = bottom;
position = "{471, 0}";
},
{
name = top;
position = "{469, 750}";
}
);
layerId = "E29665B4-7994-459A-9DF7-986ADB216CAB";
paths = (
{
closed = 1;
nodes = (
"696 -14 OFFCURVE",
"832 139 OFFCURVE",
"836 326 CURVE",
"777 337 LINE",
"771 194 OFFCURVE",
"654 99 OFFCURVE",
"478 99 CURVE SMOOTH",
"296 99 OFFCURVE",
"180 201 OFFCURVE",
"180 375 CURVE SMOOTH",
"180 547 OFFCURVE",
"292 648 OFFCURVE",
"468 648 CURVE SMOOTH",
"616 648 OFFCURVE",
"718 581 OFFCURVE",
"740 475 CURVE",
"875 475 LINE",
"869 509 OFFCURVE",
"856 545 OFFCURVE",
"844 575 CURVE SMOOTH",
"820 634 OFFCURVE",
"804 678 OFFCURVE",
"804 711 CURVE SMOOTH",
"804 758 OFFCURVE",
"833 792 OFFCURVE",
"901 792 CURVE SMOOTH",
"934 792 OFFCURVE",
"962 785 OFFCURVE",
"993 774 CURVE",
"993 878 LINE",
"960 891 OFFCURVE",
"921 900 OFFCURVE",
"873 900 CURVE SMOOTH",
"749 900 OFFCURVE",
"687 839 OFFCURVE",
"687 757 CURVE SMOOTH",
"687 699 OFFCURVE",
"717 649 OFFCURVE",
"749 603 CURVE",
"782 605 LINE",
"717 708 OFFCURVE",
"628 764 OFFCURVE",
"469 764 CURVE SMOOTH",
"224 764 OFFCURVE",
"46 615 OFFCURVE",
"46 375 CURVE SMOOTH",
"46 135 OFFCURVE",
"224 -14 OFFCURVE",
"462 -14 CURVE SMOOTH"
);
},
{
closed = 1;
nodes = (
"800 269 LINE",
"769 311 LINE",
"785 0 LINE",
"883 0 LINE",
"883 369 LINE",
"504 369 LINE",
"504 269 LINE"
);
}
);
width = 943;
},
{
anchors = (
{
name = bottom;
position = "{494, 0}";
},
{
name = top;
position = "{479, 750}";
}
);
layerId = "78844910-45F2-4BCF-9A61-7585832DDE30";
paths = (
{
closed = 1;
nodes = (
"720 -18 OFFCURVE",
"832 147 OFFCURVE",
"842 324 CURVE",
"733 324 LINE",
"719 229 OFFCURVE",
"629 187 OFFCURVE",
"504 187 CURVE SMOOTH",
"373 187 OFFCURVE",
"293 246 OFFCURVE",
"293 375 CURVE SMOOTH",
"293 500 OFFCURVE",
"364 557 OFFCURVE",
"480 557 CURVE SMOOTH",
"573 557 OFFCURVE",
"646 525 OFFCURVE",
"665 469 CURVE",
"921 469 LINE",
"912 500 OFFCURVE",
"900 534 OFFCURVE",
"892 568 CURVE SMOOTH",
"886 593 OFFCURVE",
"881 617 OFFCURVE",
"881 640 CURVE SMOOTH",
"881 688 OFFCURVE",
"908 713 OFFCURVE",
"968 713 CURVE SMOOTH",
"996 713 OFFCURVE",
"1020 707 OFFCURVE",
"1043 700 CURVE",
"1043 887 LINE",
"1000 900 OFFCURVE",
"951 906 OFFCURVE",
"903 906 CURVE SMOOTH",
"757 906 OFFCURVE",
"697 826 OFFCURVE",
"697 730 CURVE SMOOTH",
"697 670 OFFCURVE",
"732 605 OFFCURVE",
"762 555 CURVE",
"823 534 LINE",
"751 703 OFFCURVE",
"630 768 OFFCURVE",
"457 768 CURVE SMOOTH",
"247 768 OFFCURVE",
"35 643 OFFCURVE",
"35 375 CURVE SMOOTH",
"35 117 OFFCURVE",
"232 -18 OFFCURVE",
"464 -18 CURVE SMOOTH"
);
},
{
closed = 1;
nodes = (
"758 255 LINE",
"713 287 LINE",
"751 0 LINE",
"930 0 LINE",
"930 401 LINE",
"520 401 LINE",
"520 255 LINE"
);
}
);
width = 1038;
},
{
anchors = (
{
name = bottom;
position = "{457, 0}";
},
{
name = top;
position = "{458, 750}";
}
);
associatedMasterId = "FAA9A0EB-DB0F-4202-9822-2037CED7424C";
background = {
components = (
{
name = G;
}
);
};
layerId = "A663765C-98E1-4819-B9F3-884F61A4C6AA";
name = "Light [710]";
paths = (
{
closed = 1;
nodes = (
"680 -12 OFFCURVE",
"832 134 OFFCURVE",
"832 328 CURVE",
"803 345 LINE",
"803 171 OFFCURVE",
"669 40 OFFCURVE",
"461 40 CURVE SMOOTH",
"248 40 OFFCURVE",
"110 172 OFFCURVE",
"110 375 CURVE SMOOTH",
"110 578 OFFCURVE",
"248 710 OFFCURVE",
"460 710 CURVE SMOOTH",
"642 710 OFFCURVE",
"761 617 OFFCURVE",
"786 479 CURVE",
"844 479 LINE",
"841 515 OFFCURVE",
"828 550 OFFCURVE",
"814 579 CURVE SMOOTH",
"776 656 OFFCURVE",
"754 701 OFFCURVE",
"754 750 CURVE SMOOTH",
"754 804 OFFCURVE",
"789 845 OFFCURVE",
"858 845 CURVE SMOOTH",
"899 845 OFFCURVE",
"933 829 OFFCURVE",
"960 812 CURVE",
"960 867 LINE",
"934 883 OFFCURVE",
"901 897 OFFCURVE",
"853 897 CURVE SMOOTH",
"763 897 OFFCURVE",
"698 843 OFFCURVE",
"698 762 CURVE SMOOTH",
"698 705 OFFCURVE",
"725 664 OFFCURVE",
"757 620 CURVE",
"754 648 LINE",
"688 721 OFFCURVE",
"597 762 OFFCURVE",
"463 762 CURVE SMOOTH",
"219 762 OFFCURVE",
"52 604 OFFCURVE",
"52 375 CURVE SMOOTH",
"52 146 OFFCURVE",
"219 -12 OFFCURVE",
"461 -12 CURVE SMOOTH"
);
},
{
closed = 1;
nodes = (
"825 302 LINE",
"803 325 LINE",
"806 0 LINE",
"854 0 LINE",
"854 352 LINE",
"508 352 LINE",
"508 302 LINE"
);
}
);
width = 919;
},
{
anchors = (
{
name = bottom;
position = "{471, 0}";
},
{
name = top;
position = "{469, 750}";
}
);
associatedMasterId = "E29665B4-7994-459A-9DF7-986ADB216CAB";
layerId = "0256EA7B-8E58-4340-B079-2071BB18360E";
name = "Regular [710]";
paths = (
{
closed = 1;
nodes = (
"696 -14 OFFCURVE",
"832 139 OFFCURVE",
"836 326 CURVE",
"777 337 LINE",
"771 194 OFFCURVE",
"654 99 OFFCURVE",
"478 99 CURVE SMOOTH",
"296 99 OFFCURVE",
"180 201 OFFCURVE",
"180 375 CURVE SMOOTH",
"180 547 OFFCURVE",
"292 648 OFFCURVE",
"468 648 CURVE SMOOTH",
"616 648 OFFCURVE",
"718 581 OFFCURVE",
"740 475 CURVE",
"875 475 LINE",
"869 509 OFFCURVE",
"856 545 OFFCURVE",
"844 575 CURVE SMOOTH",
"820 634 OFFCURVE",
"804 678 OFFCURVE",
"804 711 CURVE SMOOTH",
"804 758 OFFCURVE",
"833 792 OFFCURVE",
"901 792 CURVE SMOOTH",
"934 792 OFFCURVE",
"962 785 OFFCURVE",
"993 774 CURVE",
"993 878 LINE",
"960 891 OFFCURVE",
"921 900 OFFCURVE",
"873 900 CURVE SMOOTH",
"749 900 OFFCURVE",
"687 839 OFFCURVE",
"687 757 CURVE SMOOTH",
"687 699 OFFCURVE",
"717 649 OFFCURVE",
"749 603 CURVE",
"782 605 LINE",
"717 708 OFFCURVE",
"628 764 OFFCURVE",
"469 764 CURVE SMOOTH",
"224 764 OFFCURVE",
"46 615 OFFCURVE",
"46 375 CURVE SMOOTH",
"46 135 OFFCURVE",
"224 -14 OFFCURVE",
"462 -14 CURVE SMOOTH"
);
},
{
closed = 1;
nodes = (
"800 249 LINE",
"769 311 LINE",
"785 0 LINE",
"883 0 LINE",
"883 389 LINE",
"484 389 LINE",
"484 249 LINE"
);
}
);
width = 943;
},
{
anchors = (
{
name = bottom;
position = "{494, 0}";
},
{
name = top;
position = "{479, 750}";
}
);
associatedMasterId = "78844910-45F2-4BCF-9A61-7585832DDE30";
layerId = "F3FBD4D6-BDA6-4278-8DFE-FED8FDB87BDA";
name = "Black [710]";
paths = (
{
closed = 1;
nodes = (
"720 -18 OFFCURVE",
"832 147 OFFCURVE",
"842 324 CURVE",
"733 324 LINE",
"719 229 OFFCURVE",
"629 187 OFFCURVE",
"504 187 CURVE SMOOTH",
"373 187 OFFCURVE",
"293 246 OFFCURVE",
"293 375 CURVE SMOOTH",
"293 500 OFFCURVE",
"364 557 OFFCURVE",
"480 557 CURVE SMOOTH",
"573 557 OFFCURVE",
"646 525 OFFCURVE",
"665 469 CURVE",
"921 469 LINE",
"912 500 OFFCURVE",
"900 534 OFFCURVE",
"892 568 CURVE SMOOTH",
"886 593 OFFCURVE",
"881 617 OFFCURVE",
"881 640 CURVE SMOOTH",
"881 688 OFFCURVE",
"908 713 OFFCURVE",
"968 713 CURVE SMOOTH",
"996 713 OFFCURVE",
"1020 707 OFFCURVE",
"1043 700 CURVE",
"1043 887 LINE",
"1000 900 OFFCURVE",
"951 906 OFFCURVE",
"903 906 CURVE SMOOTH",
"757 906 OFFCURVE",
"697 826 OFFCURVE",
"697 730 CURVE SMOOTH",
"697 670 OFFCURVE",
"732 605 OFFCURVE",
"762 555 CURVE",
"823 534 LINE",
"751 703 OFFCURVE",
"630 768 OFFCURVE",
"457 768 CURVE SMOOTH",
"247 768 OFFCURVE",
"35 643 OFFCURVE",
"35 375 CURVE SMOOTH",
"35 117 OFFCURVE",
"232 -18 OFFCURVE",
"464 -18 CURVE SMOOTH"
);
},
{
closed = 1;
nodes = (
"758 224 LINE",
"713 287 LINE",
"751 0 LINE",
"930 0 LINE",
"930 401 LINE",
"520 401 LINE",
"520 224 LINE"
);
}
);
width = 1038;
}
);
leftKerningGroup = O;
unicode = 0193;
},
{
glyphname = Glottalstop;
lastChange = "2022-05-27 07:16:54 +0000";
layers = (
{
anchors = (
{
name = bottom;
position = "{332, 0}";
},
{
name = top;
position = "{352, 750}";
}
);
layerId = "FAA9A0EB-DB0F-4202-9822-2037CED7424C";
paths = (
{
closed = 1;
nodes = (
"156 762 OFFCURVE",
"34 664 OFFCURVE",
"18 531 CURVE",
"74 531 LINE",
"93 644 OFFCURVE",
"193 712 OFFCURVE",
"347 712 CURVE SMOOTH",
"487 712 OFFCURVE",
"583 660 OFFCURVE",
"583 559 CURVE SMOOTH",
"583 495 OFFCURVE",
"550 463 OFFCURVE",
"466 407 CURVE SMOOTH",
"400 363 LINE SMOOTH",
"318 308 OFFCURVE",
"289 247 OFFCURVE",
"289 142 CURVE SMOOTH",
"289 0 LINE",
"345 0 LINE",
"345 142 LINE SMOOTH",
"345 230 OFFCURVE",
"367 279 OFFCURVE",
"432 322 CURVE SMOOTH",
"508 373 LINE SMOOTH",
"587 426 OFFCURVE",
"641 472 OFFCURVE",
"641 564 CURVE SMOOTH",
"641 682 OFFCURVE",
"530 762 OFFCURVE",
"349 762 CURVE SMOOTH"
);
}
);
width = 660;
},
{
anchors = (
{
name = bottom;
position = "{354, 0}";
},
{
name = top;
position = "{368, 750}";
}
);
layerId = "E29665B4-7994-459A-9DF7-986ADB216CAB";
paths = (
{
closed = 1;
nodes = (
"153 764 OFFCURVE",
"25 657 OFFCURVE",
"13 519 CURVE",
"145 519 LINE",
"161 607 OFFCURVE",
"236 656 OFFCURVE",
"365 656 CURVE SMOOTH",
"484 656 OFFCURVE",
"556 619 OFFCURVE",
"556 544 CURVE SMOOTH",
"556 495 OFFCURVE",
"534 475 OFFCURVE",
"458 418 CURVE SMOOTH",
"391 368 LINE SMOOTH",
"311 309 OFFCURVE",
"277 253 OFFCURVE",
"277 144 CURVE SMOOTH",
"277 0 LINE",
"409 0 LINE",
"409 128 LINE SMOOTH",
"409 214 OFFCURVE",
"430 251 OFFCURVE",
"498 302 CURVE SMOOTH",
"562 350 LINE SMOOTH",
"660 424 OFFCURVE",
"690 465 OFFCURVE",
"690 546 CURVE SMOOTH",
"690 671 OFFCURVE",
"589 764 OFFCURVE",
"371 764 CURVE SMOOTH"
);
}
);
width = 706;
},
{
anchors = (
{
name = bottom;
position = "{389, 0}";
},
{
name = top;
position = "{409, 750}";
}
);
layerId = "78844910-45F2-4BCF-9A61-7585832DDE30";
paths = (
{
closed = 1;
nodes = (
"149 768 OFFCURVE",
"11 640 OFFCURVE",
"4 490 CURVE",
"260 490 LINE",
"268 543 OFFCURVE",
"311 574 OFFCURVE",
"398 574 CURVE SMOOTH",
"480 574 OFFCURVE",
"513 545 OFFCURVE",
"513 512 CURVE SMOOTH",
"513 483 OFFCURVE",
"499 472 OFFCURVE",
"447 435 CURVE SMOOTH",
"378 385 LINE SMOOTH",
"294 324 OFFCURVE",
"259 264 OFFCURVE",
"259 146 CURVE SMOOTH",
"259 0 LINE",
"517 0 LINE",
"517 97 LINE SMOOTH",
"517 180 OFFCURVE",
"525 215 OFFCURVE",
"600 269 CURVE SMOOTH",
"663 314 LINE SMOOTH",
"737 367 OFFCURVE",
"773 425 OFFCURVE",
"773 516 CURVE SMOOTH",
"773 668 OFFCURVE",
"635 768 OFFCURVE",
"410 768 CURVE SMOOTH"
);
}
);
width = 790;
}
);
unicode = 0241;
},
{
glyphname = Gmacron;
lastChange = "2022-05-27 07:16:54 +0000";
layers = (
{
components = (
{
name = G;
},
{
name = macroncomb.case;
transform = "{1, 0, 0, 1, 224, 0}";
}
);
layerId = "FAA9A0EB-DB0F-4202-9822-2037CED7424C";
width = 920;
},
{
components = (
{
name = G;
},
{
name = macroncomb.case;
transform = "{1, 0, 0, 1, 220, 0}";
}
);
layerId = "E29665B4-7994-459A-9DF7-986ADB216CAB";
width = 946;
},
{
components = (
{
name = G;
},
{
name = macroncomb.case;
transform = "{1, 0, 0, 1, 205, 0}";
}
);
layerId = "78844910-45F2-4BCF-9A61-7585832DDE30";
width = 976;
},
{
anchors = (
{
name = bottom;
position = "{457, 0}";
},
{
name = top;
position = "{463, 896}";
}
);
associatedMasterId = "FAA9A0EB-DB0F-4202-9822-2037CED7424C";
layerId = "66AB9954-1B8A-47C9-8971-6C492A428671";
name = "Light [710]";
paths = (
{
closed = 1;
nodes = (
"803 345 LINE",
"803 171 OFFCURVE",
"669 40 OFFCURVE",
"461 40 CURVE SMOOTH",
"248 40 OFFCURVE",
"110 172 OFFCURVE",
"110 375 CURVE SMOOTH",
"110 578 OFFCURVE",
"248 710 OFFCURVE",
"460 710 CURVE SMOOTH",
"642 710 OFFCURVE",
"761 617 OFFCURVE",
"786 479 CURVE",
"844 479 LINE",
"827 641 OFFCURVE",
"673 762 OFFCURVE",
"463 762 CURVE SMOOTH",
"219 762 OFFCURVE",
"52 604 OFFCURVE",
"52 375 CURVE SMOOTH",
"52 146 OFFCURVE",
"219 -12 OFFCURVE",
"461 -12 CURVE SMOOTH",
"680 -12 OFFCURVE",
"832 134 OFFCURVE",
"832 328 CURVE"
);
},
{
closed = 1;
nodes = (
"825 302 LINE",
"803 325 LINE",
"806 0 LINE",
"854 0 LINE",
"854 352 LINE",
"508 352 LINE",
"508 302 LINE"
);
},
{
closed = 1;
nodes = (
"651 851 LINE",
"651 899 LINE",
"264 899 LINE",
"264 851 LINE"
);
}
);
width = 920;
},
{
anchors = (
{
name = bottom;
position = "{470, 0}";
},
{
name = top;
position = "{468, 923}";
}
);
associatedMasterId = "E29665B4-7994-459A-9DF7-986ADB216CAB";
layerId = "ABD4330F-EF47-4F9E-9643-1914AE30EBD6";
name = "Regular [710]";
paths = (
{
closed = 1;
nodes = (
"776 337 LINE",
"770 195 OFFCURVE",
"653 99 OFFCURVE",
"477 99 CURVE SMOOTH",
"296 99 OFFCURVE",
"180 202 OFFCURVE",
"180 375 CURVE SMOOTH",
"180 547 OFFCURVE",
"292 648 OFFCURVE",
"467 648 CURVE SMOOTH",
"616 648 OFFCURVE",
"718 581 OFFCURVE",
"740 475 CURVE",
"874 475 LINE",
"849 642 OFFCURVE",
"697 764 OFFCURVE",
"468 764 CURVE SMOOTH",
"223 764 OFFCURVE",
"45 615 OFFCURVE",
"45 375 CURVE SMOOTH",
"45 135 OFFCURVE",
"223 -14 OFFCURVE",
"461 -14 CURVE SMOOTH",
"695 -14 OFFCURVE",
"831 139 OFFCURVE",
"835 326 CURVE"
);
},
{
closed = 1;
nodes = (
"799 249 LINE",
"768 311 LINE",
"784 0 LINE",
"882 0 LINE",
"882 389 LINE",
"483 389 LINE",
"483 249 LINE"
);
},
{
closed = 1;
nodes = (
"684 840 LINE",
"684 926 LINE",
"252 926 LINE",
"252 840 LINE"
);
}
);
width = 946;
},
{
anchors = (
{
name = bottom;
position = "{492, 0}";
},
{
name = top;
position = "{469, 972}";
}
);
associatedMasterId = "78844910-45F2-4BCF-9A61-7585832DDE30";
layerId = "BEE36F9D-BE30-449F-9D4B-9BC9EBDF4D70";
name = "Black [710]";
paths = (
{
closed = 1;
nodes = (
"731 324 LINE",
"717 229 OFFCURVE",
"627 187 OFFCURVE",
"502 187 CURVE SMOOTH",
"371 187 OFFCURVE",
"291 246 OFFCURVE",
"291 375 CURVE SMOOTH",
"291 500 OFFCURVE",
"362 557 OFFCURVE",
"478 557 CURVE SMOOTH",
"571 557 OFFCURVE",
"644 525 OFFCURVE",
"663 469 CURVE",
"922 469 LINE",
"885 644 OFFCURVE",
"735 768 OFFCURVE",
"476 768 CURVE SMOOTH",
"229 768 OFFCURVE",
"33 633 OFFCURVE",
"33 375 CURVE SMOOTH",
"33 117 OFFCURVE",
"230 -18 OFFCURVE",
"462 -18 CURVE SMOOTH",
"718 -18 OFFCURVE",
"830 147 OFFCURVE",
"840 324 CURVE"
);
},
{
closed = 1;
nodes = (
"756 255 LINE",
"711 287 LINE",
"749 0 LINE",
"928 0 LINE",
"928 401 LINE",
"518 401 LINE",
"518 255 LINE"
);
},
{
closed = 1;
nodes = (
"739 817 LINE",
"739 964 LINE",
"215 964 LINE",
"215 817 LINE"
);
}
);
width = 976;
}
);
leftKerningGroup = O;
rightKerningGroup = G;
unicode = 1E20;
},
{
glyphname = Gscript;
lastChange = "2022-05-27 07:16:54 +0000";
layers = (
{
anchors = (
{
name = bottom;
position = "{458, -165}";
},
{
name = top;
position = "{458, 750}";
}
);
layerId = "FAA9A0EB-DB0F-4202-9822-2037CED7424C";
paths = (
{
closed = 1;
nodes = (
"780 15 OFFCURVE",
"662 -125 OFFCURVE",
"431 -125 CURVE SMOOTH",
"331 -125 OFFCURVE",
"225 -92 OFFCURVE",
"125 -9 CURVE",
"125 -70 LINE",
"215 -144 OFFCURVE",
"316 -177 OFFCURVE",
"435 -177 CURVE SMOOTH",
"659 -177 OFFCURVE",
"836 -50 OFFCURVE",
"836 233 CURVE SMOOTH",
"836 750 LINE",
"780 750 LINE",
"780 479 LINE",
"785 454 LINE",
"785 357 LINE",
"780 342 LINE",
"780 214 LINE SMOOTH"
);
},
{
closed = 1;
nodes = (
"622 78 OFFCURVE",
"798 279 OFFCURVE",
"798 420 CURVE SMOOTH",
"798 561 OFFCURVE",
"622 762 OFFCURVE",
"392 762 CURVE SMOOTH",
"204 762 OFFCURVE",
"54 625 OFFCURVE",
"54 420 CURVE SMOOTH",
"54 215 OFFCURVE",
"204 78 OFFCURVE",
"392 78 CURVE SMOOTH"
);
},
{
closed = 1;
nodes = (
"215 130 OFFCURVE",
"112 254 OFFCURVE",
"112 420 CURVE SMOOTH",
"112 586 OFFCURVE",
"215 710 OFFCURVE",
"402 710 CURVE SMOOTH",
"550 710 OFFCURVE",
"678 626 OFFCURVE",
"785 420 CURVE",
"676 213 OFFCURVE",
"550 130 OFFCURVE",
"402 130 CURVE SMOOTH"
);
}
);
width = 928;
},
{
anchors = (
{
name = bottom;
position = "{461, -165}";
},
{
name = top;
position = "{461, 750}";
}
);
layerId = "E29665B4-7994-459A-9DF7-986ADB216CAB";
paths = (
{
closed = 1;
nodes = (
"721 41 OFFCURVE",
"616 -65 OFFCURVE",
"424 -65 CURVE SMOOTH",
"328 -65 OFFCURVE",
"219 -36 OFFCURVE",
"115 46 CURVE",
"115 -77 LINE",
"207 -145 OFFCURVE",
"310 -179 OFFCURVE",
"433 -179 CURVE SMOOTH",
"676 -179 OFFCURVE",
"853 -46 OFFCURVE",
"853 232 CURVE SMOOTH",
"853 750 LINE",
"721 750 LINE",
"721 523 LINE",
"727 498 LINE",
"727 363 LINE",
"721 340 LINE",
"721 216 LINE SMOOTH"
);
},
{
closed = 1;
nodes = (
"615 94 OFFCURVE",
"769 295 OFFCURVE",
"769 428 CURVE SMOOTH",
"769 555 OFFCURVE",
"615 764 OFFCURVE",
"377 764 CURVE SMOOTH",
"189 764 OFFCURVE",
"45 631 OFFCURVE",
"45 429 CURVE SMOOTH",
"45 228 OFFCURVE",
"189 94 OFFCURVE",
"377 94 CURVE SMOOTH"
);
},
{
closed = 1;
nodes = (
"266 206 OFFCURVE",
"179 300 OFFCURVE",
"179 429 CURVE SMOOTH",
"179 559 OFFCURVE",
"266 652 OFFCURVE",
"415 652 CURVE SMOOTH",
"540 652 OFFCURVE",
"647 583 OFFCURVE",
"727 429 CURVE",
"646 274 OFFCURVE",
"541 206 OFFCURVE",
"415 206 CURVE SMOOTH"
);
}
);
width = 933;
},
{
anchors = (
{
name = bottom;
position = "{465, -165}";
},
{
name = top;
position = "{465, 750}";
}
);
layerId = "78844910-45F2-4BCF-9A61-7585832DDE30";
paths = (
{
closed = 1;
nodes = (
"624 81 OFFCURVE",
"540 32 OFFCURVE",
"414 32 CURVE SMOOTH",
"326 32 OFFCURVE",
"211 54 OFFCURVE",
"100 133 CURVE",
"100 -90 LINE",
"195 -148 OFFCURVE",
"303 -183 OFFCURVE",
"433 -183 CURVE SMOOTH",
"706 -183 OFFCURVE",
"880 -41 OFFCURVE",
"880 229 CURVE SMOOTH",
"880 750 LINE",
"624 750 LINE",
"624 595 LINE",
"634 569 LINE",
"634 372 LINE",
"624 338 LINE",
"624 218 LINE SMOOTH"
);
},
{
closed = 1;
nodes = (
"605 120 OFFCURVE",
"724 321 OFFCURVE",
"724 440 CURVE SMOOTH",
"724 546 OFFCURVE",
"605 768 OFFCURVE",
"355 768 CURVE SMOOTH",
"166 768 OFFCURVE",
"33 640 OFFCURVE",
"33 444 CURVE SMOOTH",
"33 248 OFFCURVE",
"166 120 OFFCURVE",
"355 120 CURVE SMOOTH"
);
},
{
closed = 1;
nodes = (
"355 323 OFFCURVE",
"291 366 OFFCURVE",
"291 444 CURVE SMOOTH",
"291 522 OFFCURVE",
"355 565 OFFCURVE",
"437 565 CURVE SMOOTH",
"525 565 OFFCURVE",
"598 522 OFFCURVE",
"635 444 CURVE",
"598 366 OFFCURVE",
"527 323 OFFCURVE",
"437 323 CURVE SMOOTH"
);
}
);
width = 937;
}
);
rightKerningGroup = H;
unicode = A7AC;
},
{
glyphname = Gstroke;
lastChange = "2022-05-31 08:21:56 +0000";
layers = (
{
anchors = (
{
name = bottom;
position = "{457, 0}";
},
{
name = top;
position = "{458, 750}";
}
);
layerId = "FAA9A0EB-DB0F-4202-9822-2037CED7424C";
paths = (
{
closed = 1;
nodes = (
"448 203 LINE",
"956 203 LINE",
"956 253 LINE",
"448 253 LINE"
);
},
{
closed = 1;
nodes = (
"508 324 LINE",
"830 324 LINE",
"803 350 LINE",
"803 308 LINE SMOOTH",
"803 130 OFFCURVE",
"672 40 OFFCURVE",
"470 40 CURVE SMOOTH",
"248 40 OFFCURVE",
"110 175 OFFCURVE",
"110 375 CURVE SMOOTH",
"110 578 OFFCURVE",
"248 710 OFFCURVE",
"460 710 CURVE SMOOTH",
"642 710 OFFCURVE",
"761 617 OFFCURVE",
"786 479 CURVE",
"844 479 LINE",
"827 641 OFFCURVE",
"673 762 OFFCURVE",
"463 762 CURVE SMOOTH",
"219 762 OFFCURVE",
"52 604 OFFCURVE",
"52 375 CURVE SMOOTH",
"52 146 OFFCURVE",
"213 -12 OFFCURVE",
"463 -12 CURVE SMOOTH",
"695 -12 OFFCURVE",
"837 107 OFFCURVE",
"837 307 CURVE",
"854 308 LINE",
"854 374 LINE",
"508 374 LINE"
);
},
{
closed = 1;
nodes = (
"806 1 LINE",
"854 1 LINE",
"854 369 LINE",
"803 369 LINE"
);
}
);
width = 952;
},
{
anchors = (
{
name = bottom;
position = "{469, 0}";
},
{
name = top;
position = "{467, 750}";
}
);
background = {
components = (
{
name = G;
}
);
};
layerId = "E29665B4-7994-459A-9DF7-986ADB216CAB";
paths = (
{
closed = 1;
nodes = (
"467 182 LINE",
"974 182 LINE",
"974 270 LINE",
"467 270 LINE"
);
},
{
closed = 1;
nodes = (
"516 308 LINE",
"802 308 LINE",
"773 346 LINE",
"773 311 LINE SMOOTH",
"773 173 OFFCURVE",
"664 96 OFFCURVE",
"478 96 CURVE SMOOTH",
"286 96 OFFCURVE",
"179 209 OFFCURVE",
"179 375 CURVE SMOOTH",
"179 547 OFFCURVE",
"293 650 OFFCURVE",
"470 650 CURVE SMOOTH",
"613 650 OFFCURVE",
"711 581 OFFCURVE",
"732 487 CURVE",
"871 487 LINE",
"839 647 OFFCURVE",
"694 764 OFFCURVE",
"468 764 CURVE SMOOTH",
"223 764 OFFCURVE",
"45 615 OFFCURVE",
"45 375 CURVE SMOOTH",
"45 135 OFFCURVE",
"220 -14 OFFCURVE",
"466 -14 CURVE SMOOTH",
"711 -14 OFFCURVE",
"842 128 OFFCURVE",
"842 342 CURVE",
"882 342 LINE",
"882 406 LINE",
"516 406 LINE"
);
},
{
closed = 1;
nodes = (
"792 1 LINE",
"882 1 LINE",
"882 380 LINE",
"778 380 LINE"
);
}
);
width = 971;
},
{
anchors = (
{
name = bottom;
position = "{492, 0}";
},
{
name = top;
position = "{477, 750}";
}
);
background = {
components = (
{
name = G;
}
);
};
layerId = "78844910-45F2-4BCF-9A61-7585832DDE30";
paths = (
{
closed = 1;
nodes = (
"489 173 LINE",
"1008 173 LINE",
"1008 282 LINE",
"489 282 LINE"
);
},
{
closed = 1;
nodes = (
"528 298 LINE",
"756 298 LINE",
"725 356 LINE",
"725 331 LINE SMOOTH",
"725 249 OFFCURVE",
"650 187 OFFCURVE",
"490 187 CURVE SMOOTH",
"349 187 OFFCURVE",
"291 265 OFFCURVE",
"291 375 CURVE SMOOTH",
"291 500 OFFCURVE",
"365 557 OFFCURVE",
"485 557 CURVE SMOOTH",
"565 557 OFFCURVE",
"628 526 OFFCURVE",
"644 500 CURVE",
"915 500 LINE",
"857 657 OFFCURVE",
"729 768 OFFCURVE",
"476 768 CURVE SMOOTH",
"229 768 OFFCURVE",
"33 633 OFFCURVE",
"33 375 CURVE SMOOTH",
"33 138 OFFCURVE",
"206 -18 OFFCURVE",
"462 -18 CURVE SMOOTH",
"727 -18 OFFCURVE",
"840 163 OFFCURVE",
"840 397 CURVE",
"928 397 LINE",
"928 433 LINE",
"528 433 LINE"
);
},
{
closed = 1;
nodes = (
"770 1 LINE",
"928 1 LINE",
"928 414 LINE",
"737 414 LINE"
);
}
);
width = 1018;
},
{
anchors = (
{
name = bottom;
position = "{457, 0}";
},
{
name = top;
position = "{458, 750}";
}
);
associatedMasterId = "FAA9A0EB-DB0F-4202-9822-2037CED7424C";
layerId = "A763A190-2C99-472A-BFB3-EEF45A12456D";
name = "Light [705]";
paths = (
{
closed = 1;
nodes = (
"448 203 LINE",
"956 203 LINE",
"956 253 LINE",
"448 253 LINE"
);
},
{
closed = 1;
nodes = (
"508 324 LINE",
"830 324 LINE",
"803 350 LINE",
"803 308 LINE SMOOTH",
"803 130 OFFCURVE",
"672 40 OFFCURVE",
"470 40 CURVE SMOOTH",
"248 40 OFFCURVE",
"110 175 OFFCURVE",
"110 375 CURVE SMOOTH",
"110 578 OFFCURVE",
"248 710 OFFCURVE",
"460 710 CURVE SMOOTH",
"642 710 OFFCURVE",
"761 617 OFFCURVE",
"786 479 CURVE",
"844 479 LINE",
"827 641 OFFCURVE",
"673 762 OFFCURVE",
"463 762 CURVE SMOOTH",
"219 762 OFFCURVE",
"52 604 OFFCURVE",
"52 375 CURVE SMOOTH",
"52 146 OFFCURVE",
"213 -12 OFFCURVE",
"463 -12 CURVE SMOOTH",
"695 -12 OFFCURVE",
"837 107 OFFCURVE",
"837 307 CURVE",
"854 308 LINE",
"854 374 LINE",
"508 374 LINE"
);
},
{
closed = 1;
nodes = (
"806 1 LINE",
"854 1 LINE",
"854 369 LINE",
"803 369 LINE"
);
}
);
width = 952;
},
{
anchors = (
{
name = bottom;
position = "{469, 0}";
},
{
name = top;
position = "{467, 750}";
}
);
associatedMasterId = "E29665B4-7994-459A-9DF7-986ADB216CAB";
background = {
components = (
{
name = G;
}
);
};
layerId = "18AFAE55-851B-43D6-B607-01E48AFBE77B";
name = "Regular [705]";
paths = (
{
closed = 1;
nodes = (
"467 151 LINE",
"974 151 LINE",
"974 249 LINE",
"467 249 LINE"
);
},
{
closed = 1;
nodes = (
"516 283 LINE",
"802 283 LINE",
"773 356 LINE",
"773 321 LINE SMOOTH",
"773 177 OFFCURVE",
"664 96 OFFCURVE",
"478 96 CURVE SMOOTH",
"286 96 OFFCURVE",
"179 209 OFFCURVE",
"179 375 CURVE SMOOTH",
"179 547 OFFCURVE",
"293 650 OFFCURVE",
"470 650 CURVE SMOOTH",
"613 650 OFFCURVE",
"711 581 OFFCURVE",
"732 487 CURVE",
"871 487 LINE",
"839 647 OFFCURVE",
"694 764 OFFCURVE",
"468 764 CURVE SMOOTH",
"223 764 OFFCURVE",
"45 615 OFFCURVE",
"45 375 CURVE SMOOTH",
"45 135 OFFCURVE",
"220 -14 OFFCURVE",
"466 -14 CURVE SMOOTH",
"711 -14 OFFCURVE",
"842 132 OFFCURVE",
"842 352 CURVE",
"882 352 LINE",
"882 383 LINE",
"516 383 LINE"
);
},
{
closed = 1;
nodes = (
"792 1 LINE",
"882 1 LINE",
"882 375 LINE",
"778 375 LINE"
);
}
);
width = 971;
},
{
anchors = (
{
name = bottom;
position = "{492, 0}";
},
{
name = top;
position = "{477, 750}";
}
);
associatedMasterId = "78844910-45F2-4BCF-9A61-7585832DDE30";
background = {
components = (
{
name = G;
}
);
};
layerId = "727F3CC1-4421-463D-99EF-66E40CF5D67E";
name = "Black [705]";
paths = (
{
closed = 1;
nodes = (
"489 218 LINE",
"1008 218 LINE",
"1008 300 LINE",
"489 300 LINE"
);
},
{
closed = 1;
nodes = (
"528 323 LINE",
"756 323 LINE",
"725 356 LINE",
"725 331 LINE SMOOTH",
"725 249 OFFCURVE",
"650 187 OFFCURVE",
"490 187 CURVE SMOOTH",
"349 187 OFFCURVE",
"291 265 OFFCURVE",
"291 375 CURVE SMOOTH",
"291 500 OFFCURVE",
"365 557 OFFCURVE",
"485 557 CURVE SMOOTH",
"565 557 OFFCURVE",
"628 526 OFFCURVE",
"644 500 CURVE",
"915 500 LINE",
"857 657 OFFCURVE",
"729 768 OFFCURVE",
"476 768 CURVE SMOOTH",
"229 768 OFFCURVE",
"33 633 OFFCURVE",
"33 375 CURVE SMOOTH",
"33 138 OFFCURVE",
"206 -18 OFFCURVE",
"462 -18 CURVE SMOOTH",
"727 -18 OFFCURVE",
"840 163 OFFCURVE",
"840 397 CURVE",
"928 397 LINE",
"928 433 LINE",
"528 433 LINE"
);
},
{
closed = 1;
nodes = (
"770 1 LINE",
"928 1 LINE",
"928 414 LINE",
"737 414 LINE"
);
}
);
width = 1018;
}
);
leftKerningGroup = O;
rightKerningGroup = G;
unicode = 01E4;
},
{
glyphname = H;
lastChange = "2022-05-27 07:16:54 +0000";
layers = (
{
anchors = (
{
name = bottom;
position = "{440, 0}";
},
{
name = center;
position = "{440, 375}";
},
{
name = top;
position = "{440, 750}";
},
{
name = topleft;
position = "{28, 750}";
}
);
background = {
paths = (
{
closed = 1;
nodes = (
"89 0 LINE",
"144 0 LINE",
"144 750 LINE",
"89 750 LINE"
);
},
{
closed = 1;
nodes = (
"719 0 LINE",
"774 0 LINE",
"774 750 LINE",
"719 750 LINE"
);
},
{
closed = 1;
nodes = (
"115 350 LINE",
"758 350 LINE",
"758 400 LINE",
"115 400 LINE"
);
}
);
};
guideLines = (
{
angle = 7.125;
position = "{271, 641}";
}
);
layerId = "FAA9A0EB-DB0F-4202-9822-2037CED7424C";
paths = (
{
closed = 1;
nodes = (
"97 0 LINE",
"153 0 LINE",
"153 750 LINE",
"97 750 LINE"
);
},
{
closed = 1;
nodes = (
"727 0 LINE",
"783 0 LINE",
"783 750 LINE",
"727 750 LINE"
);
},
{
closed = 1;
nodes = (
"123 350 LINE",
"767 350 LINE",
"767 400 LINE",
"123 400 LINE"
);
}
);
userData = {
KernOnName = H;
};
width = 880;
},
{
anchors = (
{
name = bottom;
position = "{455, 0}";
},
{
name = center;
position = "{455, 375}";
},
{
name = top;
position = "{455, 750}";
},
{
name = topleft;
position = "{28, 750}";
}
);
layerId = "E29665B4-7994-459A-9DF7-986ADB216CAB";
paths = (
{
closed = 1;
nodes = (
"84 0 LINE",
"216 0 LINE",
"216 750 LINE",
"84 750 LINE"
);
},
{
closed = 1;
nodes = (
"694 0 LINE",
"826 0 LINE",
"826 750 LINE",
"694 750 LINE"
);
},
{
closed = 1;
nodes = (
"155 320 LINE",
"757 320 LINE",
"757 436 LINE",
"155 436 LINE"
);
}
);
userData = {
KernOnName = H;
};
width = 910;
},
{
anchors = (
{
name = bottom;
position = "{478, 0}";
},
{
name = center;
position = "{478, 375}";
},
{
name = top;
position = "{478, 750}";
},
{
name = topleft;
position = "{26, 750}";
}
);
background = {
paths = (
{
closed = 1;
nodes = (
"77 0 LINE",
"332 0 LINE",
"332 750 LINE",
"77 750 LINE"
);
},
{
closed = 1;
nodes = (
"617 0 LINE",
"872 0 LINE",
"872 750 LINE",
"617 750 LINE"
);
},
{
closed = 1;
nodes = (
"203 266 LINE",
"716 266 LINE",
"716 496 LINE",
"203 496 LINE"
);
}
);
};
guideLines = (
{
angle = 18.4349;
position = "{298, 962}";
},
{
angle = 18.4349;
position = "{478, 750}";
}
);
layerId = "78844910-45F2-4BCF-9A61-7585832DDE30";
paths = (
{
closed = 1;
nodes = (
"60 0 LINE",
"318 0 LINE",
"318 750 LINE",
"60 750 LINE"
);
},
{
closed = 1;
nodes = (
"638 0 LINE",
"896 0 LINE",
"896 750 LINE",
"638 750 LINE"
);
},
{
closed = 1;
nodes = (
"206 269 LINE",
"739 269 LINE",
"739 497 LINE",
"206 497 LINE"
);
}
);
userData = {
KernOnName = H;
};
width = 956;
}
);
leftKerningGroup = H;
rightKerningGroup = H;
unicode = 0048;
},
{
glyphname = Hbar;
lastChange = "2022-05-27 07:16:54 +0000";
layers = (
{
anchors = (
{
name = bottom;
position = "{449, 0}";
},
{
name = center;
position = "{449, 375}";
},
{
name = top;
position = "{449, 750}";
},
{
name = topleft;
position = "{37, 750}";
}
);
background = {
paths = (
{
closed = 1;
nodes = (
"124 0 LINE",
"179 0 LINE",
"179 750 LINE",
"124 750 LINE"
);
},
{
closed = 1;
nodes = (
"754 0 LINE",
"809 0 LINE",
"809 750 LINE",
"754 750 LINE"
);
},
{
closed = 1;
nodes = (
"150 350 LINE",
"793 350 LINE",
"793 400 LINE",
"150 400 LINE"
);
}
);
};
guideLines = (
{
angle = 176.8202;
position = "{280, 641}";
}
);
layerId = "FAA9A0EB-DB0F-4202-9822-2037CED7424C";
paths = (
{
closed = 1;
nodes = (
"106 0 LINE",
"162 0 LINE",
"162 750 LINE",
"106 750 LINE"
);
},
{
closed = 1;
nodes = (
"736 0 LINE",
"792 0 LINE",
"792 750 LINE",
"736 750 LINE"
);
},
{
closed = 1;
nodes = (
"132 348 LINE",
"776 348 LINE",
"776 398 LINE",
"132 398 LINE"
);
},
{
closed = 1;
nodes = (
"22 581 LINE",
"876 581 LINE",
"876 631 LINE",
"22 631 LINE"
);
}
);
width = 898;
},
{
anchors = (
{
name = bottom;
position = "{469, 0}";
},
{
name = center;
position = "{469, 375}";
},
{
name = top;
position = "{469, 750}";
},
{
name = topleft;
position = "{35, 750}";
}
);
layerId = "E29665B4-7994-459A-9DF7-986ADB216CAB";
paths = (
{
closed = 1;
nodes = (
"98 0 LINE",
"230 0 LINE",
"230 750 LINE",
"98 750 LINE"
);
},
{
closed = 1;
nodes = (
"709 0 LINE",
"841 0 LINE",
"841 750 LINE",
"709 750 LINE"
);
},
{
closed = 1;
nodes = (
"162 309 LINE",
"764 309 LINE",
"764 425 LINE",
"162 425 LINE"
);
},
{
closed = 1;
nodes = (
"24 560 LINE",
"915 560 LINE",
"915 658 LINE",
"24 658 LINE"
);
}
);
width = 939;
},
{
anchors = (
{
name = bottom;
position = "{499, 0}";
},
{
name = center;
position = "{499, 375}";
},
{
name = top;
position = "{499, 750}";
},
{
name = topleft;
position = "{27, 750}";
}
);
background = {
paths = (
{
closed = 1;
nodes = (
"83 0 LINE",
"341 0 LINE",
"341 750 LINE",
"83 750 LINE"
);
},
{
closed = 1;
nodes = (
"661 0 LINE",
"919 0 LINE",
"919 750 LINE",
"661 750 LINE"
);
},
{
closed = 1;
nodes = (
"209 155 LINE",
"742 155 LINE",
"742 353 LINE",
"209 353 LINE"
);
},
{
closed = 1;
nodes = (
"209 437 LINE",
"742 437 LINE",
"742 635 LINE",
"209 635 LINE"
);
}
);
};
guideLines = (
{
angle = 153.4349;
position = "{299, 962}";
}
);
layerId = "78844910-45F2-4BCF-9A61-7585832DDE30";
paths = (
{
closed = 1;
nodes = (
"81 0 LINE",
"339 0 LINE",
"339 750 LINE",
"81 750 LINE"
);
},
{
closed = 1;
nodes = (
"659 0 LINE",
"917 0 LINE",
"917 750 LINE",
"659 750 LINE"
);
},
{
closed = 1;
nodes = (
"207 249 LINE",
"740 249 LINE",
"740 457 LINE",
"207 457 LINE"
);
},
{
closed = 1;
nodes = (
"19 523 LINE",
"979 523 LINE",
"979 689 LINE",
"19 689 LINE"
);
}
);
width = 998;
}
);
leftKerningGroup = H;
rightKerningGroup = H;
unicode = 0126;
},
{
glyphname = Heng;
lastChange = "2022-05-27 07:16:54 +0000";
layers = (
{
anchors = (
{
name = bottom;
position = "{593, -165}";
},
{
name = center;
position = "{440, 375}";
},
{
name = top;
position = "{440, 750}";
}
);
layerId = "FAA9A0EB-DB0F-4202-9822-2037CED7424C";
paths = (
{
closed = 1;
nodes = (
"97 0 LINE",
"153 0 LINE",
"153 750 LINE",
"97 750 LINE"
);
},
{
closed = 1;
nodes = (
"123 350 LINE",
"767 350 LINE",
"767 400 LINE",
"123 400 LINE"
);
},
{
closed = 1;
nodes = (
"727 17 LINE SMOOTH",
"727 -89 OFFCURVE",
"686 -126 OFFCURVE",
"591 -126 CURVE SMOOTH",
"536 -126 OFFCURVE",
"479 -113 OFFCURVE",
"432 -86 CURVE",
"432 -138 LINE",
"460 -156 OFFCURVE",
"520 -177 OFFCURVE",
"591 -177 CURVE SMOOTH",
"735 -177 OFFCURVE",
"783 -99 OFFCURVE",
"783 0 CURVE SMOOTH",
"783 750 LINE",
"727 750 LINE"
);
}
);
width = 880;
},
{
anchors = (
{
name = bottom;
position = "{593, -165}";
},
{
name = center;
position = "{455, 375}";
},
{
name = top;
position = "{455, 750}";
}
);
background = {
components = (
{
name = H;
}
);
};
layerId = "E29665B4-7994-459A-9DF7-986ADB216CAB";
paths = (
{
closed = 1;
nodes = (
"84 0 LINE",
"216 0 LINE",
"216 750 LINE",
"84 750 LINE"
);
},
{
closed = 1;
nodes = (
"155 320 LINE",
"757 320 LINE",
"757 436 LINE",
"155 436 LINE"
);
},
{
closed = 1;
nodes = (
"694 49 LINE SMOOTH",
"694 -43 OFFCURVE",
"667 -74 OFFCURVE",
"577 -74 CURVE SMOOTH",
"522 -74 OFFCURVE",
"470 -62 OFFCURVE",
"427 -41 CURVE",
"427 -146 LINE",
"461 -162 OFFCURVE",
"523 -179 OFFCURVE",
"593 -179 CURVE SMOOTH",
"760 -179 OFFCURVE",
"826 -94 OFFCURVE",
"826 28 CURVE SMOOTH",
"826 750 LINE",
"694 750 LINE"
);
}
);
width = 910;
},
{
anchors = (
{
name = bottom;
position = "{594, -165}";
},
{
name = center;
position = "{478, 375}";
},
{
name = top;
position = "{478, 750}";
}
);
layerId = "78844910-45F2-4BCF-9A61-7585832DDE30";
paths = (
{
closed = 1;
nodes = (
"60 0 LINE",
"318 0 LINE",
"318 750 LINE",
"60 750 LINE"
);
},
{
closed = 1;
nodes = (
"206 269 LINE",
"739 269 LINE",
"739 497 LINE",
"206 497 LINE"
);
},
{
closed = 1;
nodes = (
"638 105 LINE SMOOTH",
"638 39 OFFCURVE",
"603 12 OFFCURVE",
"540 12 CURVE SMOOTH",
"495 12 OFFCURVE",
"452 19 OFFCURVE",
"417 32 CURVE",
"417 -158 LINE",
"461 -172 OFFCURVE",
"526 -183 OFFCURVE",
"594 -183 CURVE SMOOTH",
"799 -183 OFFCURVE",
"896 -87 OFFCURVE",
"896 74 CURVE SMOOTH",
"896 750 LINE",
"638 750 LINE"
);
}
);
width = 956;
}
);
leftKerningGroup = H;
rightKerningGroup = H;
unicode = A726;
},
{
glyphname = Hhook;
lastChange = "2022-05-27 07:16:54 +0000";
layers = (
{
anchors = (
{
name = bottom;
position = "{597, 0}";
},
{
name = center;
position = "{597, 375}";
},
{
name = top;
position = "{597, 750}";
},
{
name = topleft;
position = "{185, 750}";
}
);
layerId = "FAA9A0EB-DB0F-4202-9822-2037CED7424C";
paths = (
{
closed = 1;
nodes = (
"169 750 LINE SMOOTH",
"83 750 OFFCURVE",
"25 704 OFFCURVE",
"25 610 CURVE SMOOTH",
"25 564 OFFCURVE",
"44 513 OFFCURVE",
"59 479 CURVE",
"114 479 LINE",
"95 526 OFFCURVE",
"82 565 OFFCURVE",
"82 610 CURVE SMOOTH",
"82 677 OFFCURVE",
"121 701 OFFCURVE",
"182 701 CURVE SMOOTH",
"280 701 LINE",
"254 727 LINE",
"254 0 LINE",
"310 0 LINE",
"310 750 LINE"
);
},
{
closed = 1;
nodes = (
"884 0 LINE",
"940 0 LINE",
"940 750 LINE",
"884 750 LINE"
);
},
{
closed = 1;
nodes = (
"280 350 LINE",
"924 350 LINE",
"924 400 LINE",
"280 400 LINE"
);
}
);
width = 1037;
},
{
anchors = (
{
name = bottom;
position = "{652, 0}";
},
{
name = center;
position = "{652, 375}";
},
{
name = top;
position = "{652, 750}";
},
{
name = topleft;
position = "{225, 750}";
}
);
layerId = "E29665B4-7994-459A-9DF7-986ADB216CAB";
paths = (
{
closed = 1;
nodes = (
"201 750 LINE SMOOTH",
"85 750 OFFCURVE",
"23 692 OFFCURVE",
"23 589 CURVE SMOOTH",
"23 535 OFFCURVE",
"40 484 OFFCURVE",
"60 447 CURVE",
"165 447 LINE",
"152 482 OFFCURVE",
"141 518 OFFCURVE",
"141 558 CURVE SMOOTH",
"141 617 OFFCURVE",
"173 638 OFFCURVE",
"227 638 CURVE SMOOTH",
"329 638 LINE",
"281 694 LINE",
"281 0 LINE",
"413 0 LINE",
"413 750 LINE"
);
},
{
closed = 1;
nodes = (
"891 0 LINE",
"1023 0 LINE",
"1023 750 LINE",
"891 750 LINE"
);
},
{
closed = 1;
nodes = (
"352 320 LINE",
"954 320 LINE",
"954 436 LINE",
"352 436 LINE"
);
}
);
width = 1107;
},
{
anchors = (
{
name = bottom;
position = "{738, 0}";
},
{
name = center;
position = "{738, 375}";
},
{
name = top;
position = "{738, 750}";
},
{
name = topleft;
position = "{286, 750}";
}
);
layerId = "78844910-45F2-4BCF-9A61-7585832DDE30";
paths = (
{
closed = 1;
nodes = (
"248 750 LINE SMOOTH",
"83 750 OFFCURVE",
"15 673 OFFCURVE",
"15 555 CURVE SMOOTH",
"15 487 OFFCURVE",
"32 437 OFFCURVE",
"58 394 CURVE",
"243 394 LINE",
"238 410 OFFCURVE",
"231 442 OFFCURVE",
"231 472 CURVE SMOOTH",
"231 519 OFFCURVE",
"252 535 OFFCURVE",
"295 535 CURVE SMOOTH",
"432 535 LINE",
"320 657 LINE",
"320 0 LINE",
"578 0 LINE",
"578 750 LINE"
);
},
{
closed = 1;
nodes = (
"898 0 LINE",
"1156 0 LINE",
"1156 750 LINE",
"898 750 LINE"
);
},
{
closed = 1;
nodes = (
"466 269 LINE",
"999 269 LINE",
"999 497 LINE",
"466 497 LINE"
);
}
);
width = 1216;
}
);
leftKerningGroup = Phook;
rightKerningGroup = H;
unicode = A7AA;
},
{
glyphname = Hturned;
lastChange = "2022-05-27 07:16:54 +0000";
layers = (
{
anchors = (
{
name = bottom;
position = "{381, 0}";
},
{
name = top;
position = "{381, 750}";
}
);
layerId = "FAA9A0EB-DB0F-4202-9822-2037CED7424C";
paths = (
{
closed = 1;
nodes = (
"61 350 LINE",
"117 350 LINE",
"117 750 LINE",
"61 750 LINE"
);
},
{
closed = 1;
nodes = (
"625 0 LINE",
"681 0 LINE",
"681 750 LINE",
"625 750 LINE"
);
},
{
closed = 1;
nodes = (
"87 350 LINE",
"665 350 LINE",
"665 400 LINE",
"87 400 LINE"
);
}
);
width = 778;
},
{
anchors = (
{
name = bottom;
position = "{409, 0}";
},
{
name = top;
position = "{409, 750}";
}
);
layerId = "E29665B4-7994-459A-9DF7-986ADB216CAB";
paths = (
{
closed = 1;
nodes = (
"60 319 LINE",
"192 319 LINE",
"192 750 LINE",
"60 750 LINE"
);
},
{
closed = 1;
nodes = (
"607 0 LINE",
"739 0 LINE",
"739 750 LINE",
"607 750 LINE"
);
},
{
closed = 1;
nodes = (
"132 319 LINE",
"669 319 LINE",
"669 435 LINE",
"132 435 LINE"
);
}
);
width = 823;
},
{
anchors = (
{
name = bottom;
position = "{447, 0}";
},
{
name = top;
position = "{447, 750}";
}
);
background = {
components = (
{
name = H;
transform = "{1, 0, 0, 1, -72, 0}";
}
);
};
layerId = "78844910-45F2-4BCF-9A61-7585832DDE30";
paths = (
{
closed = 1;
nodes = (
"55 269 LINE",
"313 269 LINE",
"313 750 LINE",
"55 750 LINE"
);
},
{
closed = 1;
nodes = (
"571 0 LINE",
"829 0 LINE",
"829 750 LINE",
"571 750 LINE"
);
},
{
closed = 1;
nodes = (
"201 269 LINE",
"672 269 LINE",
"672 497 LINE",
"201 497 LINE"
);
}
);
width = 889;
}
);
rightKerningGroup = H;
unicode = A78D;
},
{
glyphname = I;
lastChange = "2022-05-27 07:16:54 +0000";
layers = (
{
anchors = (
{
name = bottom;
position = "{125, 0}";
},
{
name = ogonek;
position = "{153, 0}";
},
{
name = top;
position = "{125, 750}";
},
{
name = topleft;
position = "{28, 750}";
}
);
background = {
paths = (
{
closed = 1;
nodes = (
"89 0 LINE",
"144 0 LINE",
"144 750 LINE",
"89 750 LINE"
);
}
);
};
layerId = "FAA9A0EB-DB0F-4202-9822-2037CED7424C";
paths = (
{
closed = 1;
nodes = (
"97 0 LINE",
"153 0 LINE",
"153 750 LINE",
"97 750 LINE"
);
}
);
userData = {
KernOnName = I;
};
width = 250;
},
{
anchors = (
{
name = bottom;
position = "{150, 0}";
},
{
name = ogonek;
position = "{217, 0}";
},
{
name = top;
position = "{150, 750}";
},
{
name = topleft;
position = "{21, 750}";
}
);
layerId = "E29665B4-7994-459A-9DF7-986ADB216CAB";
paths = (
{
closed = 1;
nodes = (
"84 0 LINE",
"216 0 LINE",
"216 750 LINE",
"84 750 LINE"
);
}
);
userData = {
KernOnName = I;
};
width = 300;
},
{
anchors = (
{
name = bottom;
position = "{189, 0}";
},
{
name = ogonek;
position = "{318, 0}";
},
{
name = top;
position = "{189, 750}";
},
{
name = topleft;
position = "{6, 750}";
}
);
background = {
paths = (
{
closed = 1;
nodes = (
"57 0 LINE",
"312 0 LINE",
"312 755 LINE",
"57 755 LINE"
);
}
);
};
layerId = "78844910-45F2-4BCF-9A61-7585832DDE30";
paths = (
{
closed = 1;
nodes = (
"60 0 LINE",
"318 0 LINE",
"318 750 LINE",
"60 750 LINE"
);
}
);
userData = {
KernOnName = I;
};
width = 378;
}
);
leftKerningGroup = H;
rightKerningGroup = H;
unicode = 0049;
},
{
glyphname = IJ;
lastChange = "2022-05-27 07:16:54 +0000";
layers = (
{
anchors = (
{
name = bottom;
position = "{389, 0}";
},
{
name = top;
position = "{101, 750}";
}
);
layerId = "FAA9A0EB-DB0F-4202-9822-2037CED7424C";
paths = (
{
closed = 1;
nodes = (
"73 400 LINE",
"129 400 LINE",
"129 750 LINE",
"73 750 LINE"
);
},
{
closed = 1;
nodes = (
"73 288 LINE SMOOTH",
"73 76 OFFCURVE",
"203 -12 OFFCURVE",
"389 -12 CURVE SMOOTH",
"574 -12 OFFCURVE",
"704 76 OFFCURVE",
"704 288 CURVE SMOOTH",
"704 750 LINE",
"648 750 LINE",
"648 288 LINE SMOOTH",
"648 130 OFFCURVE",
"569 37 OFFCURVE",
"389 37 CURVE SMOOTH",
"208 37 OFFCURVE",
"129 132 OFFCURVE",
"129 288 CURVE SMOOTH",
"129 329 LINE",
"73 329 LINE"
);
}
);
width = 793;
},
{
anchors = (
{
name = bottom;
position = "{404, 0}";
},
{
name = top;
position = "{130, 750}";
}
);
layerId = "E29665B4-7994-459A-9DF7-986ADB216CAB";
paths = (
{
closed = 1;
nodes = (
"64 407 LINE",
"196 407 LINE",
"196 750 LINE",
"64 750 LINE"
);
},
{
closed = 1;
nodes = (
"65 298 LINE SMOOTH",
"65 91 OFFCURVE",
"202 -14 OFFCURVE",
"404 -14 CURVE SMOOTH",
"606 -14 OFFCURVE",
"745 89 OFFCURVE",
"745 293 CURVE SMOOTH",
"745 750 LINE",
"613 750 LINE",
"613 298 LINE SMOOTH",
"613 174 OFFCURVE",
"550 100 OFFCURVE",
"404 100 CURVE SMOOTH",
"256 100 OFFCURVE",
"195 176 OFFCURVE",
"195 306 CURVE SMOOTH",
"195 339 LINE",
"65 339 LINE"
);
}
);
width = 820;
},
{
anchors = (
{
name = bottom;
position = "{427, 0}";
},
{
name = top;
position = "{177, 750}";
}
);
layerId = "78844910-45F2-4BCF-9A61-7585832DDE30";
paths = (
{
closed = 1;
nodes = (
"48 419 LINE",
"306 419 LINE",
"306 750 LINE",
"48 750 LINE"
);
},
{
closed = 1;
nodes = (
"52 314 LINE SMOOTH",
"61 115 OFFCURVE",
"199 -18 OFFCURVE",
"427 -18 CURVE SMOOTH",
"658 -18 OFFCURVE",
"811 109 OFFCURVE",
"811 300 CURVE SMOOTH",
"811 750 LINE",
"553 750 LINE",
"553 314 LINE SMOOTH",
"553 244 OFFCURVE",
"515 202 OFFCURVE",
"427 202 CURVE SMOOTH",
"337 202 OFFCURVE",
"304 246 OFFCURVE",
"304 336 CURVE SMOOTH",
"304 356 LINE",
"50 356 LINE"
);
}
);
width = 862;
}
);
leftKerningGroup = U;
rightKerningGroup = J;
unicode = 0132;
},
{
color = 2;
glyphname = Iogonek;
lastChange = "2022-05-27 07:18:18 +0000";
layers = (
{
components = (
{
name = I;
}
);
layerId = "FAA9A0EB-DB0F-4202-9822-2037CED7424C";
paths = (
{
closed = 1;
nodes = (
"58 -19 OFFCURVE",
"21 -54 OFFCURVE",
"21 -100 CURVE SMOOTH",
"21 -149 OFFCURVE",
"64 -181 OFFCURVE",
"130 -181 CURVE SMOOTH",
"154 -181 OFFCURVE",
"183 -177 OFFCURVE",
"197 -172 CURVE",
"197 -130 LINE",
"182 -134 OFFCURVE",
"152 -136 OFFCURVE",
"136 -136 CURVE SMOOTH",
"91 -136 OFFCURVE",
"69 -121 OFFCURVE",
"69 -92 CURVE SMOOTH",
"69 -54 OFFCURVE",
"107 -29 OFFCURVE",
"153 0 CURVE",
"131 0 LINE",
"131 13 LINE",
"115 13 LINE"
);
}
);
width = 250;
},
{
components = (
{
name = I;
}
);
layerId = "E29665B4-7994-459A-9DF7-986ADB216CAB";
paths = (
{
closed = 1;
nodes = (
"69 -17 OFFCURVE",
"26 -57 OFFCURVE",
"26 -107 CURVE SMOOTH",
"26 -163 OFFCURVE",
"79 -197 OFFCURVE",
"159 -197 CURVE SMOOTH",
"193 -197 OFFCURVE",
"231 -191 OFFCURVE",
"247 -185 CURVE",
"247 -102 LINE",
"231 -106 OFFCURVE",
"205 -108 OFFCURVE",
"188 -108 CURVE SMOOTH",
"148 -108 OFFCURVE",
"130 -98 OFFCURVE",
"130 -78 CURVE SMOOTH",
"130 -48 OFFCURVE",
"165 -24 OFFCURVE",
"216 0 CURVE",
"193 0 LINE",
"193 13 LINE",
"144 13 LINE"
);
}
);
width = 300;
},
{
components = (
{
name = I;
}
);
layerId = "78844910-45F2-4BCF-9A61-7585832DDE30";
paths = (
{
closed = 1;
nodes = (
"91 -15 OFFCURVE",
"30 -57 OFFCURVE",
"30 -119 CURVE SMOOTH",
"30 -181 OFFCURVE",
"99 -222 OFFCURVE",
"202 -222 CURVE SMOOTH",
"252 -222 OFFCURVE",
"305 -213 OFFCURVE",
"323 -206 CURVE",
"323 -82 LINE",
"306 -86 OFFCURVE",
"287 -89 OFFCURVE",
"268 -89 CURVE SMOOTH",
"236 -89 OFFCURVE",
"220 -80 OFFCURVE",
"220 -63 CURVE SMOOTH",
"220 -38 OFFCURVE",
"254 -19 OFFCURVE",
"318 0 CURVE",
"295 0 LINE",
"295 12 LINE",
"208 12 LINE"
);
}
);
width = 378;
}
);
leftKerningGroup = H;
rightKerningGroup = H;
unicode = 012E;
},
{
glyphname = Iotaafrican;
lastChange = "2022-05-27 07:16:54 +0000";
layers = (
{
anchors = (
{
name = bottom;
position = "{121, 0}";
},
{
name = top;
position = "{121, 750}";
}
);
layerId = "FAA9A0EB-DB0F-4202-9822-2037CED7424C";
paths = (
{
closed = 1;
nodes = (
"93 127 LINE SMOOTH",
"93 40 OFFCURVE",
"129 -12 OFFCURVE",
"213 -12 CURVE SMOOTH",
"240 -12 OFFCURVE",
"261 -7 OFFCURVE",
"278 -1 CURVE",
"278 52 LINE",
"263 46 OFFCURVE",
"243 40 OFFCURVE",
"223 40 CURVE SMOOTH",
"170 40 OFFCURVE",
"149 69 OFFCURVE",
"149 128 CURVE SMOOTH",
"149 750 LINE",
"93 750 LINE"
);
}
);
width = 299;
},
{
anchors = (
{
name = bottom;
position = "{147, 0}";
},
{
name = top;
position = "{147, 750}";
}
);
layerId = "E29665B4-7994-459A-9DF7-986ADB216CAB";
paths = (
{
closed = 1;
nodes = (
"81 176 LINE SMOOTH",
"81 54 OFFCURVE",
"134 -14 OFFCURVE",
"254 -14 CURVE SMOOTH",
"293 -14 OFFCURVE",
"324 -8 OFFCURVE",
"349 0 CURVE",
"349 104 LINE",
"330 98 OFFCURVE",
"309 94 OFFCURVE",
"288 94 CURVE SMOOTH",
"233 94 OFFCURVE",
"213 121 OFFCURVE",
"213 183 CURVE SMOOTH",
"213 750 LINE",
"81 750 LINE"
);
}
);
width = 370;
},
{
anchors = (
{
name = bottom;
position = "{181, 0}";
},
{
name = top;
position = "{184, 750}";
}
);
guideLines = (
{
position = "{292, 0}";
}
);
layerId = "78844910-45F2-4BCF-9A61-7585832DDE30";
paths = (
{
closed = 1;
nodes = (
"54 255 LINE SMOOTH",
"54 76 OFFCURVE",
"136 -18 OFFCURVE",
"315 -18 CURVE SMOOTH",
"372 -18 OFFCURVE",
"421 -10 OFFCURVE",
"459 1 CURVE",
"459 188 LINE",
"433 180 OFFCURVE",
"410 175 OFFCURVE",
"387 175 CURVE SMOOTH",
"330 175 OFFCURVE",
"312 205 OFFCURVE",
"312 270 CURVE SMOOTH",
"312 750 LINE",
"54 750 LINE"
);
}
);
width = 478;
}
);
unicode = 0196;
},
{
color = 2;
glyphname = Istroke;
lastChange = "2022-05-27 07:18:18 +0000";
layers = (
{
anchors = (
{
name = bottom;
position = "{144, 0}";
},
{
name = top;
position = "{144, 750}";
},
{
name = topleft;
position = "{3, 750}";
}
);
components = (
{
name = I;
transform = "{1, 0, 0, 1, 19, 0}";
}
);
layerId = "FAA9A0EB-DB0F-4202-9822-2037CED7424C";
paths = (
{
closed = 1;
nodes = (
"274 355 LINE",
"274 405 LINE",
"14 405 LINE",
"14 355 LINE"
);
}
);
width = 288;
},
{
anchors = (
{
name = bottom;
position = "{176, 0}";
},
{
name = top;
position = "{176, 750}";
},
{
name = topleft;
position = "{28, 750}";
}
);
components = (
{
alignment = -1;
name = I;
transform = "{1, 0, 0, 1, 25, 0}";
}
);
layerId = "E29665B4-7994-459A-9DF7-986ADB216CAB";
paths = (
{
closed = 1;
nodes = (
"333 338 LINE",
"333 436 LINE",
"17 436 LINE",
"17 338 LINE"
);
}
);
width = 350;
},
{
anchors = (
{
name = bottom;
position = "{233, 0}";
},
{
name = top;
position = "{233, 750}";
},
{
name = topleft;
position = "{54, 750}";
}
);
components = (
{
name = I;
transform = "{1, 0, 0, 1, 44, 0}";
}
);
layerId = "78844910-45F2-4BCF-9A61-7585832DDE30";
paths = (
{
closed = 1;
nodes = (
"442 300 LINE",
"442 470 LINE",
"24 470 LINE",
"24 300 LINE"
);
}
);
width = 466;
}
);
leftKerningGroup = H;
rightKerningGroup = H;
unicode = 0197;
},
{
glyphname = J;
lastChange = "2022-05-27 07:16:54 +0000";
layers = (
{
anchors = (
{
name = bottom;
position = "{359, 0}";
},
{
name = top;
position = "{634, 750}";
}
);
background = {
paths = (
{
closed = 1;
nodes = (
"56 310 LINE SMOOTH",
"56 84 OFFCURVE",
"186 -10 OFFCURVE",
"371 -10 CURVE SMOOTH",
"556 -10 OFFCURVE",
"686 84 OFFCURVE",
"686 310 CURVE SMOOTH",
"686 750 LINE",
"630 750 LINE",
"630 310 LINE SMOOTH",
"630 139 OFFCURVE",
"551 39 OFFCURVE",
"371 39 CURVE SMOOTH",
"190 39 OFFCURVE",
"111 142 OFFCURVE",
"111 310 CURVE SMOOTH",
"111 349 LINE",
"56 349 LINE"
);
}
);
};
guideLines = (
{
angle = 177.6141;
position = "{136, 641}";
},
{
angle = 180;
position = "{635, 750}";
}
);
layerId = "FAA9A0EB-DB0F-4202-9822-2037CED7424C";
paths = (
{
closed = 1;
nodes = (
"32 308 LINE SMOOTH",
"32 82 OFFCURVE",
"162 -12 OFFCURVE",
"347 -12 CURVE SMOOTH",
"532 -12 OFFCURVE",
"662 82 OFFCURVE",
"662 308 CURVE SMOOTH",
"662 750 LINE",
"606 750 LINE",
"606 308 LINE SMOOTH",
"606 139 OFFCURVE",
"527 40 OFFCURVE",
"347 40 CURVE SMOOTH",
"166 40 OFFCURVE",
"87 142 OFFCURVE",
"87 308 CURVE SMOOTH",
"87 349 LINE",
"32 349 LINE"
);
}
);
userData = {
KernOnName = J;
};
width = 750;
},
{
anchors = (
{
name = bottom;
position = "{377, 0}";
},
{
name = top;
position = "{638, 750}";
}
);
layerId = "E29665B4-7994-459A-9DF7-986ADB216CAB";
paths = (
{
closed = 1;
nodes = (
"25 318 LINE SMOOTH",
"25 98 OFFCURVE",
"162 -14 OFFCURVE",
"363 -14 CURVE SMOOTH",
"565 -14 OFFCURVE",
"704 96 OFFCURVE",
"704 313 CURVE SMOOTH",
"704 750 LINE",
"572 750 LINE",
"572 318 LINE SMOOTH",
"572 184 OFFCURVE",
"509 104 OFFCURVE",
"363 104 CURVE SMOOTH",
"216 104 OFFCURVE",
"155 186 OFFCURVE",
"155 326 CURVE SMOOTH",
"155 359 LINE",
"25 359 LINE"
);
}
);
userData = {
KernOnName = J;
};
width = 779;
},
{
anchors = (
{
name = bottom;
position = "{407, 0}";
},
{
name = top;
position = "{644, 750}";
}
);
background = {
paths = (
{
closed = 1;
nodes = (
"36 334 LINE SMOOTH",
"44 123 OFFCURVE",
"187 -18 OFFCURVE",
"410 -18 CURVE SMOOTH",
"641 -18 OFFCURVE",
"794 117 OFFCURVE",
"794 320 CURVE SMOOTH",
"794 750 LINE",
"536 750 LINE",
"536 334 LINE SMOOTH",
"536 251 OFFCURVE",
"498 202 OFFCURVE",
"410 202 CURVE SMOOTH",
"324 202 OFFCURVE",
"286 257 OFFCURVE",
"286 348 CURVE SMOOTH",
"286 386 LINE",
"34 386 LINE"
);
}
);
};
guideLines = (
{
angle = 177.2737;
position = "{205, 962}";
}
);
layerId = "78844910-45F2-4BCF-9A61-7585832DDE30";
paths = (
{
closed = 1;
nodes = (
"15 334 LINE SMOOTH",
"15 123 OFFCURVE",
"162 -18 OFFCURVE",
"389 -18 CURVE SMOOTH",
"620 -18 OFFCURVE",
"773 117 OFFCURVE",
"773 320 CURVE SMOOTH",
"773 750 LINE",
"515 750 LINE",
"515 334 LINE SMOOTH",
"515 251 OFFCURVE",
"477 202 OFFCURVE",
"389 202 CURVE SMOOTH",
"298 202 OFFCURVE",
"265 253 OFFCURVE",
"265 356 CURVE SMOOTH",
"265 376 LINE",
"13 376 LINE"
);
}
);
userData = {
KernOnName = J;
};
width = 824;
}
);
leftKerningGroup = J;
rightKerningGroup = J;
unicode = 004A;
},
{
glyphname = Jcrossedtail;
lastChange = "2022-05-27 07:16:54 +0000";
layers = (
{
anchors = (
{
name = bottom;
position = "{332, 0}";
},
{
name = top;
position = "{623, 750}";
}
);
layerId = "FAA9A0EB-DB0F-4202-9822-2037CED7424C";
paths = (
{
closed = 1;
nodes = (
"651 750 LINE",
"595 750 LINE",
"595 308 LINE SMOOTH",
"595 137 OFFCURVE",
"503 38 OFFCURVE",
"307 38 CURVE SMOOTH",
"146 38 OFFCURVE",
"78 102 OFFCURVE",
"78 167 CURVE SMOOTH",
"78 239 OFFCURVE",
"150 296 OFFCURVE",
"318 296 CURVE SMOOTH",
"507 296 OFFCURVE",
"667 205 OFFCURVE",
"758 109 CURVE",
"758 172 LINE",
"663 271 OFFCURVE",
"503 345 OFFCURVE",
"318 345 CURVE SMOOTH",
"121 345 OFFCURVE",
"21 268 OFFCURVE",
"21 167 CURVE SMOOTH",
"21 77 OFFCURVE",
"109 -12 OFFCURVE",
"307 -12 CURVE SMOOTH",
"550 -12 OFFCURVE",
"651 121 OFFCURVE",
"651 308 CURVE SMOOTH"
);
}
);
width = 795;
},
{
anchors = (
{
name = bottom;
position = "{344, 0}";
},
{
name = top;
position = "{639, 750}";
}
);
layerId = "E29665B4-7994-459A-9DF7-986ADB216CAB";
paths = (
{
closed = 1;
nodes = (
"705 750 LINE",
"573 750 LINE",
"573 315 LINE SMOOTH",
"573 174 OFFCURVE",
"502 102 OFFCURVE",
"338 102 CURVE SMOOTH",
"212 102 OFFCURVE",
"151 140 OFFCURVE",
"151 189 CURVE SMOOTH",
"151 241 OFFCURVE",
"215 280 OFFCURVE",
"349 280 CURVE SMOOTH",
"526 280 OFFCURVE",
"696 194 OFFCURVE",
"794 99 CURVE",
"794 226 LINE",
"701 304 OFFCURVE",
"528 386 OFFCURVE",
"347 386 CURVE SMOOTH",
"144 386 OFFCURVE",
"17 316 OFFCURVE",
"17 191 CURVE SMOOTH",
"17 77 OFFCURVE",
"139 -14 OFFCURVE",
"338 -14 CURVE SMOOTH",
"580 -14 OFFCURVE",
"705 107 OFFCURVE",
"705 313 CURVE SMOOTH"
);
}
);
width = 836;
},
{
anchors = (
{
name = bottom;
position = "{405, 0}";
},
{
name = top;
position = "{663, 750}";
}
);
layerId = "78844910-45F2-4BCF-9A61-7585832DDE30";
paths = (
{
closed = 1;
nodes = (
"792 750 LINE",
"534 750 LINE",
"534 303 LINE SMOOTH",
"534 225 OFFCURVE",
"478 177 OFFCURVE",
"369 177 CURVE SMOOTH",
"293 177 OFFCURVE",
"262 200 OFFCURVE",
"262 227 CURVE SMOOTH",
"262 256 OFFCURVE",
"298 281 OFFCURVE",
"380 281 CURVE SMOOTH",
"535 281 OFFCURVE",
"733 199 OFFCURVE",
"850 94 CURVE",
"850 293 LINE",
"724 380 OFFCURVE",
"564 455 OFFCURVE",
"380 455 CURVE SMOOTH",
"108 455 OFFCURVE",
"10 339 OFFCURVE",
"10 221 CURVE SMOOTH",
"10 97 OFFCURVE",
"119 -18 OFFCURVE",
"380 -18 CURVE SMOOTH",
"663 -18 OFFCURVE",
"792 131 OFFCURVE",
"792 320 CURVE SMOOTH"
);
}
);
width = 888;
}
);
unicode = A7B2;
},
{
color = 2;
glyphname = Jstroke;
lastChange = "2022-05-27 07:18:18 +0000";
layers = (
{
components = (
{
name = J;
}
);
layerId = "FAA9A0EB-DB0F-4202-9822-2037CED7424C";
paths = (
{
closed = 1;
nodes = (
"345 415 LINE",
"764 415 LINE",
"764 465 LINE",
"345 465 LINE"
);
}
);
width = 777;
},
{
components = (
{
alignment = -1;
name = J;
}
);
layerId = "E29665B4-7994-459A-9DF7-986ADB216CAB";
paths = (
{
closed = 1;
nodes = (
"363 391 LINE",
"797 391 LINE",
"797 489 LINE",
"363 489 LINE"
);
}
);
width = 817;
},
{
components = (
{
name = J;
}
);
layerId = "78844910-45F2-4BCF-9A61-7585832DDE30";
paths = (
{
closed = 1;
nodes = (
"393 359 LINE",
"853 359 LINE",
"853 529 LINE",
"393 529 LINE"
);
}
);
width = 881;
}
);
leftKerningGroup = J;
rightKerningGroup = J;
unicode = 0248;
},
{
glyphname = K;
lastChange = "2022-05-27 07:16:54 +0000";
layers = (
{
anchors = (
{
name = bottom;
position = "{422, 0}";
},
{
name = top;
position = "{422, 750}";
}
);
background = {
paths = (
{
closed = 1;
nodes = (
"136 0 LINE",
"760 750 LINE",
"691 750 LINE",
"117 63 LINE",
"144 57 LINE",
"144 760 LINE",
"89 760 LINE",
"89 0 LINE"
);
},
{
closed = 1;
nodes = (
"713 0 LINE",
"780 0 LINE",
"447 440 LINE",
"419 390 LINE"
);
}
);
};
layerId = "FAA9A0EB-DB0F-4202-9822-2037CED7424C";
paths = (
{
closed = 1;
nodes = (
"144 0 LINE",
"775 750 LINE",
"709 750 LINE",
"128 62 LINE",
"153 56 LINE",
"153 750 LINE",
"97 750 LINE",
"97 0 LINE"
);
},
{
closed = 1;
nodes = (
"721 0 LINE",
"787 0 LINE",
"486 452 LINE",
"453 397 LINE"
);
}
);
userData = {
KernOnName = K;
};
width = 796;
},
{
anchors = (
{
name = bottom;
position = "{439, 0}";
},
{
name = top;
position = "{442, 750}";
}
);
layerId = "E29665B4-7994-459A-9DF7-986ADB216CAB";
paths = (
{
closed = 1;
nodes = (
"202 0 LINE",
"821 750 LINE",
"678 750 LINE",
"176 136 LINE",
"216 111 LINE",
"216 750 LINE",
"84 750 LINE",
"84 0 LINE"
);
},
{
closed = 1;
nodes = (
"681 0 LINE",
"832 0 LINE",
"534 468 LINE",
"441 377 LINE"
);
}
);
userData = {
KernOnName = K;
};
width = 832;
},
{
anchors = (
{
name = bottom;
position = "{463, 0}";
},
{
name = top;
position = "{473, 750}";
}
);
background = {
paths = (
{
closed = 1;
nodes = (
"291 0 LINE",
"891 750 LINE",
"621 750 LINE",
"248 256 LINE",
"311 201 LINE",
"311 750 LINE",
"57 750 LINE",
"57 0 LINE"
);
},
{
closed = 1;
nodes = (
"609 0 LINE",
"911 0 LINE",
"607 494 LINE",
"417 345 LINE"
);
}
);
};
layerId = "78844910-45F2-4BCF-9A61-7585832DDE30";
paths = (
{
closed = 1;
nodes = (
"294 0 LINE",
"894 750 LINE",
"624 750 LINE",
"251 256 LINE",
"316 201 LINE",
"316 750 LINE",
"60 750 LINE",
"60 0 LINE"
);
},
{
closed = 1;
nodes = (
"612 0 LINE",
"904 0 LINE",
"610 494 LINE",
"420 345 LINE"
);
}
);
userData = {
KernOnName = K;
};
width = 895;
}
);
leftKerningGroup = H;
rightKerningGroup = K;
unicode = 004B;
},
{
glyphname = Khook;
lastChange = "2022-05-27 07:16:54 +0000";
layers = (
{
anchors = (
{
name = bottom;
position = "{423, 0}";
},
{
name = top;
position = "{403, 750}";
}
);
background = {
components = (
{
name = K;
}
);
};
guideLines = (
{
position = "{-259, 381}";
}
);
layerId = "FAA9A0EB-DB0F-4202-9822-2037CED7424C";
paths = (
{
closed = 1;
nodes = (
"721 0 LINE",
"787 0 LINE",
"457 464 LINE",
"424 409 LINE"
);
},
{
closed = 1;
nodes = (
"144 0 LINE",
"640 668 LINE SMOOTH",
"659 693 OFFCURVE",
"681 710 OFFCURVE",
"714 710 CURVE SMOOTH",
"738 710 OFFCURVE",
"756 703 OFFCURVE",
"778 694 CURVE",
"778 748 LINE",
"761 755 OFFCURVE",
"739 762 OFFCURVE",
"714 762 CURVE SMOOTH",
"657 762 OFFCURVE",
"627 735 OFFCURVE",
"602 701 CURVE SMOOTH",
"128 62 LINE",
"153 56 LINE",
"153 750 LINE",
"97 750 LINE",
"97 0 LINE"
);
}
);
width = 798;
},
{
anchors = (
{
name = bottom;
position = "{443, 0}";
},
{
name = top;
position = "{430, 750}";
}
);
guideLines = (
{
angle = 9.4623;
position = "{833, 0}";
}
);
layerId = "E29665B4-7994-459A-9DF7-986ADB216CAB";
paths = (
{
closed = 1;
nodes = (
"680 0 LINE",
"833 0 LINE",
"518 475 LINE",
"427 385 LINE"
);
},
{
closed = 1;
nodes = (
"202 0 LINE",
"669 602 LINE SMOOTH",
"691 630 OFFCURVE",
"714 655 OFFCURVE",
"762 655 CURVE SMOOTH",
"784 655 OFFCURVE",
"802 652 OFFCURVE",
"833 646 CURVE",
"833 750 LINE",
"811 757 OFFCURVE",
"781 764 OFFCURVE",
"744 764 CURVE SMOOTH",
"669 764 OFFCURVE",
"628 730 OFFCURVE",
"591 682 CURVE SMOOTH",
"174 136 LINE",
"216 111 LINE",
"216 750 LINE",
"84 750 LINE",
"84 0 LINE"
);
}
);
width = 850;
},
{
anchors = (
{
name = bottom;
position = "{471, 0}";
},
{
name = top;
position = "{471, 750}";
}
);
background = {
components = (
{
name = K;
}
);
};
guideLines = (
{
angle = 18.4349;
position = "{904, -1}";
}
);
layerId = "78844910-45F2-4BCF-9A61-7585832DDE30";
paths = (
{
closed = 1;
nodes = (
"612 0 LINE",
"905 0 LINE",
"610 494 LINE",
"420 345 LINE"
);
},
{
closed = 1;
nodes = (
"294 0 LINE",
"702 527 LINE SMOOTH",
"728 560 OFFCURVE",
"753 579 OFFCURVE",
"800 579 CURVE SMOOTH",
"827 579 OFFCURVE",
"853 574 OFFCURVE",
"888 562 CURVE",
"888 749 LINE",
"846 760 OFFCURVE",
"806 768 OFFCURVE",
"754 768 CURVE SMOOTH",
"639 768 OFFCURVE",
"586 721 OFFCURVE",
"535 651 CURVE SMOOTH",
"251 256 LINE",
"316 201 LINE",
"316 750 LINE",
"60 750 LINE",
"60 0 LINE"
);
}
);
width = 915;
}
);
leftKerningGroup = H;
unicode = 0198;
},
{
glyphname = L;
lastChange = "2022-05-27 07:16:54 +0000";
layers = (
{
anchors = (
{
name = bottom;
position = "{407, 0}";
},
{
name = center;
position = "{377, 375}";
},
{
name = top;
position = "{125, 750}";
},
{
name = topright;
position = "{312, 540}";
}
);
background = {
paths = (
{
closed = 1;
nodes = (
"89 0 LINE",
"144 0 LINE",
"144 750 LINE",
"89 750 LINE"
);
},
{
closed = 1;
nodes = (
"115 -1 LINE",
"688 -1 LINE",
"688 49 LINE",
"115 49 LINE"
);
}
);
};
guideLines = (
{
angle = 7.125;
position = "{231, 641}";
},
{
position = "{125, 750}";
},
{
position = "{397, 0}";
}
);
layerId = "FAA9A0EB-DB0F-4202-9822-2037CED7424C";
paths = (
{
closed = 1;
nodes = (
"97 750 LINE",
"97 0 LINE",
"697 0 LINE",
"697 50 LINE",
"128 50 LINE",
"153 25 LINE",
"153 750 LINE"
);
}
);
userData = {
KernOnName = L;
};
width = 710;
},
{
anchors = (
{
name = bottom;
position = "{423, 0}";
},
{
name = center;
position = "{383, 375}";
},
{
name = top;
position = "{150, 750}";
},
{
name = topright;
position = "{309, 546}";
}
);
layerId = "E29665B4-7994-459A-9DF7-986ADB216CAB";
paths = (
{
closed = 1;
nodes = (
"84 750 LINE",
"84 0 LINE",
"722 0 LINE",
"722 116 LINE",
"157 116 LINE",
"216 59 LINE",
"216 750 LINE"
);
}
);
userData = {
KernOnName = L;
};
width = 738;
},
{
anchors = (
{
name = bottom;
position = "{420, 0}";
},
{
name = center;
position = "{390, 375}";
},
{
name = top;
position = "{189, 750}";
},
{
name = topright;
position = "{301, 555}";
}
);
background = {
paths = (
{
closed = 1;
nodes = (
"57 0 LINE",
"312 0 LINE",
"312 750 LINE",
"57 750 LINE"
);
},
{
closed = 1;
nodes = (
"183 0 LINE",
"756 0 LINE",
"756 230 LINE",
"183 230 LINE"
);
}
);
};
guideLines = (
{
angle = 18.4349;
position = "{410, 0}";
}
);
layerId = "78844910-45F2-4BCF-9A61-7585832DDE30";
paths = (
{
closed = 1;
nodes = (
"60 750 LINE",
"60 0 LINE",
"760 0 LINE",
"760 230 LINE",
"202 230 LINE",
"318 114 LINE",
"318 750 LINE"
);
}
);
userData = {
KernOnName = L;
};
width = 781;
}
);
leftKerningGroup = H;
rightKerningGroup = L;
unicode = 004C;
},
{
color = 2;
glyphname = Lbar;
lastChange = "2022-05-27 07:18:18 +0000";
layers = (
{
components = (
{
name = L;
transform = "{1, 0, 0, 1, 19, 0}";
}
);
layerId = "FAA9A0EB-DB0F-4202-9822-2037CED7424C";
paths = (
{
closed = 1;
nodes = (
"14 375 LINE",
"472 375 LINE",
"472 425 LINE",
"14 425 LINE"
);
}
);
width = 729;
},
{
components = (
{
alignment = -1;
name = L;
transform = "{1, 0, 0, 1, 26, 0}";
}
);
layerId = "E29665B4-7994-459A-9DF7-986ADB216CAB";
paths = (
{
closed = 1;
nodes = (
"18 362 LINE",
"508 362 LINE",
"508 460 LINE",
"18 460 LINE"
);
}
);
width = 765;
},
{
components = (
{
name = L;
transform = "{1, 0, 0, 1, 44, 0}";
}
);
layerId = "78844910-45F2-4BCF-9A61-7585832DDE30";
paths = (
{
closed = 1;
nodes = (
"24 345 LINE",
"576 345 LINE",
"576 515 LINE",
"24 515 LINE"
);
}
);
width = 825;
}
);
leftKerningGroup = H;
rightKerningGroup = L;
unicode = 023D;
},
{
color = 2;
glyphname = Lbelt;
lastChange = "2022-05-27 07:18:18 +0000";
layers = (
{
components = (
{
name = L;
transform = "{1, 0, 0, 1, 100, 0}";
}
);
layerId = "FAA9A0EB-DB0F-4202-9822-2037CED7424C";
paths = (
{
closed = 1;
nodes = (
"55 500 OFFCURVE",
"15 460 OFFCURVE",
"15 403 CURVE SMOOTH",
"15 339 OFFCURVE",
"66 296 OFFCURVE",
"155 296 CURVE SMOOTH",
"174 296 OFFCURVE",
"201 298 OFFCURVE",
"218 301 CURVE",
"237 305 LINE",
"318 324 OFFCURVE",
"403 373 OFFCURVE",
"464 426 CURVE",
"464 484 LINE",
"382 419 OFFCURVE",
"310 374 OFFCURVE",
"237 356 CURVE",
"217 350 LINE",
"197 346 OFFCURVE",
"183 345 OFFCURVE",
"165 345 CURVE SMOOTH",
"93 345 OFFCURVE",
"69 371 OFFCURVE",
"69 404 CURVE SMOOTH",
"69 430 OFFCURVE",
"86 450 OFFCURVE",
"125 450 CURVE SMOOTH",
"175 450 OFFCURVE",
"211 413 OFFCURVE",
"211 342 CURVE SMOOTH",
"211 256 LINE",
"245 256 LINE",
"245 364 LINE SMOOTH",
"245 447 OFFCURVE",
"198 500 OFFCURVE",
"122 500 CURVE SMOOTH"
);
}
);
width = 810;
},
{
components = (
{
alignment = -1;
name = L;
transform = "{1, 0, 0, 1, 146, 0}";
}
);
layerId = "E29665B4-7994-459A-9DF7-986ADB216CAB";
paths = (
{
closed = 1;
nodes = (
"60 546 OFFCURVE",
"11 490 OFFCURVE",
"11 416 CURVE SMOOTH",
"11 329 OFFCURVE",
"79 275 OFFCURVE",
"191 275 CURVE SMOOTH",
"221 275 OFFCURVE",
"256 279 OFFCURVE",
"284 284 CURVE",
"329 295 LINE",
"408 315 OFFCURVE",
"490 357 OFFCURVE",
"558 404 CURVE",
"558 509 LINE",
"473 450 OFFCURVE",
"399 410 OFFCURVE",
"327 391 CURVE",
"278 376 LINE",
"249 370 OFFCURVE",
"223 366 OFFCURVE",
"197 366 CURVE SMOOTH",
"132 366 OFFCURVE",
"110 390 OFFCURVE",
"110 418 CURVE SMOOTH",
"110 444 OFFCURVE",
"128 462 OFFCURVE",
"163 462 CURVE SMOOTH",
"207 462 OFFCURVE",
"250 434 OFFCURVE",
"250 363 CURVE SMOOTH",
"250 258 LINE",
"306 258 LINE",
"306 374 LINE SMOOTH",
"306 478 OFFCURVE",
"249 546 OFFCURVE",
"150 546 CURVE SMOOTH"
);
}
);
width = 884;
},
{
components = (
{
locked = 1;
name = L;
transform = "{1, 0, 0, 1, 197, 0}";
}
);
layerId = "78844910-45F2-4BCF-9A61-7585832DDE30";
paths = (
{
closed = 1;
nodes = (
"65 594 OFFCURVE",
"3 528 OFFCURVE",
"3 438 CURVE SMOOTH",
"3 336 OFFCURVE",
"82 275 OFFCURVE",
"223 275 CURVE SMOOTH",
"271 275 OFFCURVE",
"318 282 OFFCURVE",
"364 290 CURVE",
"453 312 LINE",
"528 334 OFFCURVE",
"605 364 OFFCURVE",
"685 402 CURVE",
"685 550 LINE",
"595 500 OFFCURVE",
"516 468 OFFCURVE",
"446 447 CURVE",
"351 419 LINE",
"306 409 OFFCURVE",
"262 401 OFFCURVE",
"226 401 CURVE SMOOTH",
"178 401 OFFCURVE",
"158 418 OFFCURVE",
"158 445 CURVE SMOOTH",
"158 468 OFFCURVE",
"175 482 OFFCURVE",
"207 482 CURVE SMOOTH",
"251 482 OFFCURVE",
"285 453 OFFCURVE",
"285 398 CURVE SMOOTH",
"285 262 LINE",
"378 262 LINE",
"378 390 LINE SMOOTH",
"378 493 OFFCURVE",
"313 594 OFFCURVE",
"176 594 CURVE SMOOTH"
);
}
);
width = 978;
}
);
leftKerningGroup = H;
rightKerningGroup = L;
unicode = A7AD;
},
{
color = 2;
glyphname = Lslash;
lastChange = "2022-05-27 07:18:18 +0000";
layers = (
{
components = (
{
name = L;
transform = "{1, 0, 0, 1, 49, 0}";
}
);
layerId = "FAA9A0EB-DB0F-4202-9822-2037CED7424C";
paths = (
{
closed = 1;
nodes = (
"32 327 LINE",
"490 452 LINE",
"490 504 LINE",
"32 379 LINE"
);
}
);
width = 759;
},
{
components = (
{
alignment = -1;
name = L;
transform = "{1, 0, 0, 1, 43, 0}";
}
);
layerId = "E29665B4-7994-459A-9DF7-986ADB216CAB";
paths = (
{
closed = 1;
nodes = (
"36 315 LINE",
"517 444 LINE",
"517 541 LINE",
"36 413 LINE"
);
}
);
width = 782;
},
{
components = (
{
name = L;
transform = "{1, 0, 0, 1, 28, 0}";
}
);
layerId = "78844910-45F2-4BCF-9A61-7585832DDE30";
paths = (
{
closed = 1;
nodes = (
"36 291 LINE",
"554 426 LINE",
"554 596 LINE",
"36 461 LINE"
);
}
);
width = 809;
}
);
rightKerningGroup = L;
unicode = 0141;
},
{
glyphname = M;
lastChange = "2022-05-27 07:16:54 +0000";
layers = (
{
anchors = (
{
name = bottom;
position = "{557, 0}";
},
{
name = top;
position = "{557, 750}";
}
);
background = {
paths = (
{
closed = 1;
nodes = (
"91 0 LINE",
"145 0 LINE",
"145 750 LINE",
"91 750 LINE"
);
},
{
closed = 1;
nodes = (
"122 750 LINE",
"501 0 LINE",
"562 0 LINE",
"184 750 LINE"
);
},
{
closed = 1;
nodes = (
"946 750 LINE",
"946 0 LINE",
"1000 0 LINE",
"1000 750 LINE"
);
},
{
closed = 1;
nodes = (
"529 0 LINE",
"590 0 LINE",
"969 750 LINE",
"906 750 LINE"
);
}
);
};
guideLines = (
{
position = "{557, 0}";
}
);
layerId = "FAA9A0EB-DB0F-4202-9822-2037CED7424C";
paths = (
{
closed = 1;
nodes = (
"935 750 LINE",
"532 7 LINE",
"583 7 LINE",
"179 750 LINE",
"97 750 LINE",
"97 0 LINE",
"151 0 LINE",
"151 745 LINE",
"119 745 LINE",
"528 0 LINE",
"586 0 LINE",
"995 745 LINE",
"963 745 LINE",
"963 0 LINE",
"1017 0 LINE",
"1017 750 LINE"
);
}
);
userData = {
KernOnName = M;
};
width = 1114;
},
{
anchors = (
{
name = bottom;
position = "{589, 0}";
},
{
name = top;
position = "{589, 750}";
}
);
layerId = "E29665B4-7994-459A-9DF7-986ADB216CAB";
paths = (
{
closed = 1;
nodes = (
"891 750 LINE",
"556 57 LINE",
"622 57 LINE",
"286 750 LINE",
"84 750 LINE",
"84 0 LINE",
"210 0 LINE",
"210 709 LINE",
"169 707 LINE",
"518 0 LINE",
"659 0 LINE",
"1008 708 LINE",
"967 710 LINE",
"967 0 LINE",
"1093 0 LINE",
"1093 750 LINE"
);
}
);
userData = {
KernOnName = M;
};
width = 1177;
},
{
anchors = (
{
name = bottom;
position = "{638, 0}";
},
{
name = top;
position = "{638, 750}";
}
);
background = {
paths = (
{
closed = 1;
nodes = (
"77 0 LINE",
"322 0 LINE",
"322 750 LINE",
"77 750 LINE"
);
},
{
closed = 1;
nodes = (
"248 750 LINE",
"497 0 LINE",
"713 0 LINE",
"486 750 LINE"
);
},
{
closed = 1;
nodes = (
"947 750 LINE",
"947 0 LINE",
"1192 0 LINE",
"1192 750 LINE"
);
},
{
closed = 1;
nodes = (
"556 0 LINE",
"772 0 LINE",
"1020 750 LINE",
"783 750 LINE"
);
}
);
};
guideLines = (
{
angle = 7.9444;
position = "{684, 501}";
}
);
layerId = "78844910-45F2-4BCF-9A61-7585832DDE30";
paths = (
{
closed = 1;
nodes = (
"816 750 LINE",
"594 139 LINE",
"683 139 LINE",
"459 750 LINE",
"60 750 LINE",
"60 0 LINE",
"305 0 LINE",
"305 651 LINE",
"258 644 LINE",
"510 0 LINE",
"765 0 LINE",
"1017 647 LINE",
"970 653 LINE",
"970 0 LINE",
"1215 0 LINE",
"1215 750 LINE"
);
}
);
userData = {
KernOnName = M;
};
width = 1275;
}
);
leftKerningGroup = H;
rightKerningGroup = H;
unicode = 004D;
},
{
glyphname = Mhook;
lastChange = "2022-05-27 07:16:54 +0000";
layers = (
{
anchors = (
{
name = bottom;
position = "{846, -165}";
},
{
name = top;
position = "{557, 750}";
}
);
layerId = "FAA9A0EB-DB0F-4202-9822-2037CED7424C";
paths = (
{
closed = 1;
nodes = (
"963 -79 OFFCURVE",
"921 -125 OFFCURVE",
"838 -125 CURVE SMOOTH",
"799 -125 OFFCURVE",
"759 -108 OFFCURVE",
"734 -92 CURVE",
"734 -147 LINE",
"760 -163 OFFCURVE",
"801 -177 OFFCURVE",
"843 -177 CURVE SMOOTH",
"957 -177 OFFCURVE",
"1017 -103 OFFCURVE",
"1017 8 CURVE SMOOTH",
"1017 750 LINE",
"935 750 LINE",
"532 7 LINE",
"583 7 LINE",
"179 750 LINE",
"97 750 LINE",
"97 0 LINE",
"151 0 LINE",
"151 745 LINE",
"119 745 LINE",
"528 0 LINE",
"586 0 LINE",
"995 745 LINE",
"963 745 LINE",
"963 21 LINE SMOOTH"
);
}
);
width = 1114;
},
{
anchors = (
{
name = bottom;
position = "{883, -165}";
},
{
name = top;
position = "{589, 750}";
}
);
layerId = "E29665B4-7994-459A-9DF7-986ADB216CAB";
paths = (
{
closed = 1;
nodes = (
"967 -31 OFFCURVE",
"930 -71 OFFCURVE",
"855 -71 CURVE SMOOTH",
"816 -71 OFFCURVE",
"785 -62 OFFCURVE",
"760 -53 CURVE",
"760 -157 LINE",
"796 -172 OFFCURVE",
"840 -179 OFFCURVE",
"884 -179 CURVE SMOOTH",
"1026 -179 OFFCURVE",
"1093 -98 OFFCURVE",
"1093 39 CURVE SMOOTH",
"1093 750 LINE",
"891 750 LINE",
"556 57 LINE",
"622 57 LINE",
"286 750 LINE",
"84 750 LINE",
"84 0 LINE",
"210 0 LINE",
"210 709 LINE",
"169 707 LINE",
"518 0 LINE",
"659 0 LINE",
"1008 708 LINE",
"967 710 LINE",
"967 53 LINE SMOOTH"
);
}
);
width = 1177;
},
{
anchors = (
{
name = bottom;
position = "{949, -165}";
},
{
name = top;
position = "{638, 750}";
}
);
layerId = "78844910-45F2-4BCF-9A61-7585832DDE30";
paths = (
{
closed = 1;
nodes = (
"970 45 OFFCURVE",
"946 10 OFFCURVE",
"884 10 CURVE SMOOTH",
"852 10 OFFCURVE",
"823 16 OFFCURVE",
"800 23 CURVE",
"800 -164 LINE",
"843 -177 OFFCURVE",
"901 -183 OFFCURVE",
"949 -183 CURVE SMOOTH",
"1135 -183 OFFCURVE",
"1215 -89 OFFCURVE",
"1215 90 CURVE SMOOTH",
"1215 750 LINE",
"816 750 LINE",
"594 139 LINE",
"683 139 LINE",
"459 750 LINE",
"60 750 LINE",
"60 0 LINE",
"305 0 LINE",
"305 651 LINE",
"258 644 LINE",
"510 0 LINE",
"765 0 LINE",
"1017 647 LINE",
"970 653 LINE",
"970 105 LINE SMOOTH"
);
}
);
width = 1275;
}
);
leftKerningGroup = H;
rightKerningGroup = H;
unicode = 2C6E;
},
{
glyphname = Mturned;
lastChange = "2022-05-27 07:16:54 +0000";
layers = (
{
anchors = (
{
name = bottom;
position = "{560, 190}";
},
{
name = top;
position = "{562, 750}";
}
);
layerId = "FAA9A0EB-DB0F-4202-9822-2037CED7424C";
paths = (
{
closed = 1;
nodes = (
"1035 171 LINE",
"1035 750 LINE",
"979 750 LINE",
"979 179 LINE",
"1009 0 LINE",
"1065 0 LINE"
);
},
{
closed = 1;
nodes = (
"899 -12 OFFCURVE",
"997 95 OFFCURVE",
"1007 256 CURVE",
"979 283 LINE",
"979 139 OFFCURVE",
"896 40 OFFCURVE",
"771 40 CURVE SMOOTH",
"653 40 OFFCURVE",
"591 117 OFFCURVE",
"591 265 CURVE SMOOTH",
"591 750 LINE",
"535 750 LINE",
"535 254 LINE SMOOTH",
"535 84 OFFCURVE",
"616 -12 OFFCURVE",
"758 -12 CURVE SMOOTH"
);
},
{
closed = 1;
nodes = (
"455 -12 OFFCURVE",
"553 95 OFFCURVE",
"563 256 CURVE",
"535 283 LINE",
"535 139 OFFCURVE",
"452 40 OFFCURVE",
"327 40 CURVE SMOOTH",
"209 40 OFFCURVE",
"147 117 OFFCURVE",
"147 265 CURVE SMOOTH",
"147 750 LINE",
"91 750 LINE",
"91 254 LINE SMOOTH",
"91 84 OFFCURVE",
"172 -12 OFFCURVE",
"314 -12 CURVE SMOOTH"
);
}
);
width = 1136;
},
{
anchors = (
{
name = bottom;
position = "{580, 184}";
},
{
name = top;
position = "{587, 750}";
}
);
layerId = "E29665B4-7994-459A-9DF7-986ADB216CAB";
paths = (
{
closed = 1;
nodes = (
"1096 184 LINE",
"1096 750 LINE",
"964 750 LINE",
"964 204 LINE",
"998 0 LINE",
"1130 0 LINE"
);
},
{
closed = 1;
nodes = (
"891 -14 OFFCURVE",
"993 90 OFFCURVE",
"1010 265 CURVE",
"964 290 LINE",
"964 177 OFFCURVE",
"899 102 OFFCURVE",
"798 102 CURVE SMOOTH",
"704 102 OFFCURVE",
"653 162 OFFCURVE",
"653 273 CURVE SMOOTH",
"653 750 LINE",
"521 750 LINE",
"521 253 LINE SMOOTH",
"521 86 OFFCURVE",
"607 -14 OFFCURVE",
"755 -14 CURVE SMOOTH"
);
},
{
closed = 1;
nodes = (
"451 -14 OFFCURVE",
"554 90 OFFCURVE",
"571 265 CURVE",
"521 290 LINE",
"521 177 OFFCURVE",
"456 102 OFFCURVE",
"355 102 CURVE SMOOTH",
"261 102 OFFCURVE",
"210 162 OFFCURVE",
"210 273 CURVE SMOOTH",
"210 750 LINE",
"78 750 LINE",
"78 253 LINE SMOOTH",
"78 86 OFFCURVE",
"165 -14 OFFCURVE",
"315 -14 CURVE SMOOTH"
);
}
);
width = 1185;
},
{
anchors = (
{
name = bottom;
position = "{617, 175}";
},
{
name = top;
position = "{625, 750}";
}
);
layerId = "78844910-45F2-4BCF-9A61-7585832DDE30";
paths = (
{
closed = 1;
nodes = (
"1200 206 LINE",
"1200 750 LINE",
"942 750 LINE",
"942 255 LINE",
"982 0 LINE",
"1240 0 LINE"
);
},
{
closed = 1;
nodes = (
"880 -18 OFFCURVE",
"989 78 OFFCURVE",
"1017 273 CURVE",
"942 311 LINE",
"942 239 OFFCURVE",
"907 197 OFFCURVE",
"845 197 CURVE SMOOTH",
"788 197 OFFCURVE",
"756 233 OFFCURVE",
"756 297 CURVE SMOOTH",
"756 750 LINE",
"498 750 LINE",
"498 261 LINE SMOOTH",
"498 93 OFFCURVE",
"591 -18 OFFCURVE",
"753 -18 CURVE SMOOTH"
);
},
{
closed = 1;
nodes = (
"437 -18 OFFCURVE",
"545 78 OFFCURVE",
"573 273 CURVE",
"498 311 LINE",
"498 239 OFFCURVE",
"463 197 OFFCURVE",
"401 197 CURVE SMOOTH",
"344 197 OFFCURVE",
"312 233 OFFCURVE",
"312 297 CURVE SMOOTH",
"312 750 LINE",
"54 750 LINE",
"54 251 LINE SMOOTH",
"54 89 OFFCURVE",
"148 -18 OFFCURVE",
"310 -18 CURVE SMOOTH"
);
}
);
width = 1271;
}
);
rightKerningGroup = H;
unicode = 019C;
},
{
glyphname = N;
lastChange = "2022-05-27 07:16:54 +0000";
layers = (
{
anchors = (
{
name = bottom;
position = "{450, 0}";
},
{
name = top;
position = "{462, 750}";
}
);
background = {
paths = (
{
closed = 1;
nodes = (
"143 0 LINE",
"143 750 LINE",
"89 750 LINE",
"89 0 LINE"
);
},
{
closed = 1;
nodes = (
"750 0 LINE",
"804 0 LINE",
"804 750 LINE",
"750 750 LINE"
);
},
{
closed = 1;
nodes = (
"103 750 LINE",
"721 0 LINE",
"790 0 LINE",
"172 750 LINE"
);
}
);
};
guideLines = (
{
angle = 3.5818;
position = "{623, 391}";
}
);
layerId = "FAA9A0EB-DB0F-4202-9822-2037CED7424C";
paths = (
{
closed = 1;
nodes = (
"170 750 LINE",
"97 750 LINE",
"97 0 LINE",
"151 0 LINE",
"151 736 LINE",
"112 736 LINE",
"729 0 LINE",
"802 0 LINE",
"802 750 LINE",
"748 750 LINE",
"748 14 LINE",
"787 14 LINE"
);
}
);
userData = {
KernOnName = N;
};
width = 899;
},
{
anchors = (
{
name = bottom;
position = "{469, 0}";
},
{
name = top;
position = "{481, 750}";
}
);
layerId = "E29665B4-7994-459A-9DF7-986ADB216CAB";
paths = (
{
closed = 1;
nodes = (
"256 750 LINE",
"84 750 LINE",
"84 0 LINE",
"212 0 LINE",
"212 682 LINE",
"159 676 LINE",
"685 0 LINE",
"853 0 LINE",
"853 750 LINE",
"725 750 LINE",
"725 74 LINE",
"779 80 LINE"
);
}
);
userData = {
KernOnName = N;
};
width = 937;
},
{
anchors = (
{
name = bottom;
position = "{498, 0}";
},
{
name = top;
position = "{512, 750}";
}
);
background = {
paths = (
{
closed = 1;
nodes = (
"307 0 LINE",
"307 750 LINE",
"57 750 LINE",
"57 0 LINE"
);
},
{
closed = 1;
nodes = (
"682 0 LINE",
"932 0 LINE",
"932 750 LINE",
"682 750 LINE"
);
},
{
closed = 1;
nodes = (
"143 750 LINE",
"599 0 LINE",
"856 0 LINE",
"400 750 LINE"
);
}
);
};
guideLines = (
{
angle = 7.9444;
position = "{649, 501}";
}
);
layerId = "78844910-45F2-4BCF-9A61-7585832DDE30";
paths = (
{
closed = 1;
nodes = (
"393 750 LINE",
"60 750 LINE",
"60 0 LINE",
"310 0 LINE",
"310 595 LINE",
"240 578 LINE",
"612 0 LINE",
"935 0 LINE",
"935 750 LINE",
"685 750 LINE",
"685 171 LINE",
"755 188 LINE"
);
}
);
userData = {
KernOnName = N;
};
width = 995;
}
);
leftKerningGroup = H;
rightKerningGroup = H;
unicode = 004E;
},
{
glyphname = Eng;
lastChange = "2022-05-27 07:16:54 +0000";
layers = (
{
anchors = (
{
name = bottom;
position = "{426, -165}";
},
{
name = top;
position = "{426, 750}";
}
);
guideLines = (
{
angle = 7.125;
position = "{426, 0}";
}
);
layerId = "FAA9A0EB-DB0F-4202-9822-2037CED7424C";
paths = (
{
closed = 1;
nodes = (
"97 0 LINE",
"153 0 LINE",
"153 750 LINE",
"97 750 LINE"
);
},
{
closed = 1;
nodes = (
"755 655 OFFCURVE",
"646 762 OFFCURVE",
"458 762 CURVE SMOOTH",
"263 762 OFFCURVE",
"130 647 OFFCURVE",
"119 474 CURVE",
"153 457 LINE",
"153 607 OFFCURVE",
"267 710 OFFCURVE",
"443 710 CURVE SMOOTH",
"610 710 OFFCURVE",
"699 623 OFFCURVE",
"699 455 CURVE SMOOTH",
"699 22 LINE SMOOTH",
"699 -88 OFFCURVE",
"657 -126 OFFCURVE",
"561 -126 CURVE SMOOTH",
"506 -126 OFFCURVE",
"449 -113 OFFCURVE",
"402 -86 CURVE",
"402 -138 LINE",
"430 -156 OFFCURVE",
"490 -177 OFFCURVE",
"561 -177 CURVE SMOOTH",
"705 -177 OFFCURVE",
"755 -99 OFFCURVE",
"755 0 CURVE SMOOTH",
"755 466 LINE SMOOTH"
);
}
);
width = 844;
},
{
anchors = (
{
name = bottom;
position = "{456, -165}";
},
{
name = top;
position = "{456, 750}";
}
);
layerId = "E29665B4-7994-459A-9DF7-986ADB216CAB";
paths = (
{
closed = 1;
nodes = (
"84 0 LINE",
"216 0 LINE",
"216 750 LINE",
"84 750 LINE"
);
},
{
closed = 1;
nodes = (
"825 655 OFFCURVE",
"709 764 OFFCURVE",
"513 764 CURVE SMOOTH",
"322 764 OFFCURVE",
"191 664 OFFCURVE",
"164 464 CURVE",
"216 429 LINE",
"216 560 OFFCURVE",
"311 646 OFFCURVE",
"467 646 CURVE SMOOTH",
"615 646 OFFCURVE",
"693 576 OFFCURVE",
"693 443 CURVE SMOOTH",
"693 38 LINE SMOOTH",
"693 -46 OFFCURVE",
"657 -74 OFFCURVE",
"571 -74 CURVE SMOOTH",
"516 -74 OFFCURVE",
"464 -62 OFFCURVE",
"421 -41 CURVE",
"421 -146 LINE",
"455 -162 OFFCURVE",
"517 -179 OFFCURVE",
"587 -179 CURVE SMOOTH",
"754 -179 OFFCURVE",
"825 -94 OFFCURVE",
"825 28 CURVE SMOOTH",
"825 473 LINE SMOOTH"
);
}
);
width = 902;
},
{
anchors = (
{
name = bottom;
position = "{471, -165}";
},
{
name = top;
position = "{533, 750}";
}
);
layerId = "78844910-45F2-4BCF-9A61-7585832DDE30";
paths = (
{
closed = 1;
nodes = (
"60 0 LINE",
"318 0 LINE",
"318 750 LINE",
"60 750 LINE"
);
},
{
closed = 1;
nodes = (
"882 649 OFFCURVE",
"764 768 OFFCURVE",
"572 768 CURVE SMOOTH",
"428 768 OFFCURVE",
"291 686 OFFCURVE",
"241 432 CURVE",
"318 394 LINE",
"318 485 OFFCURVE",
"374 538 OFFCURVE",
"475 538 CURVE SMOOTH",
"571 538 OFFCURVE",
"624 491 OFFCURVE",
"624 408 CURVE SMOOTH",
"624 107 LINE SMOOTH",
"624 47 OFFCURVE",
"597 12 OFFCURVE",
"531 12 CURVE SMOOTH",
"481 12 OFFCURVE",
"434 21 OFFCURVE",
"403 32 CURVE",
"403 -158 LINE",
"447 -172 OFFCURVE",
"512 -183 OFFCURVE",
"580 -183 CURVE SMOOTH",
"785 -183 OFFCURVE",
"882 -87 OFFCURVE",
"882 74 CURVE SMOOTH",
"882 469 LINE SMOOTH"
);
}
);
width = 934;
}
);
leftKerningGroup = H;
unicode = 014A;
},
{
glyphname = Nhookleft;
lastChange = "2022-05-27 07:16:54 +0000";
layers = (
{
anchors = (
{
name = bottom;
position = "{450, 0}";
},
{
name = top;
position = "{450, 750}";
}
);
layerId = "FAA9A0EB-DB0F-4202-9822-2037CED7424C";
paths = (
{
closed = 1;
nodes = (
"97 21 LINE SMOOTH",
"97 -79 OFFCURVE",
"55 -125 OFFCURVE",
"-28 -125 CURVE SMOOTH",
"-67 -125 OFFCURVE",
"-107 -108 OFFCURVE",
"-132 -92 CURVE",
"-132 -147 LINE",
"-106 -163 OFFCURVE",
"-65 -177 OFFCURVE",
"-23 -177 CURVE SMOOTH",
"91 -177 OFFCURVE",
"151 -103 OFFCURVE",
"151 8 CURVE SMOOTH",
"151 736 LINE",
"112 736 LINE",
"729 0 LINE",
"802 0 LINE",
"802 750 LINE",
"748 750 LINE",
"748 14 LINE",
"787 14 LINE",
"170 750 LINE",
"97 750 LINE"
);
}
);
width = 899;
},
{
anchors = (
{
name = bottom;
position = "{469, 0}";
},
{
name = top;
position = "{469, 750}";
}
);
layerId = "E29665B4-7994-459A-9DF7-986ADB216CAB";
paths = (
{
closed = 1;
nodes = (
"84 55 LINE SMOOTH",
"84 -31 OFFCURVE",
"48 -70 OFFCURVE",
"-34 -70 CURVE SMOOTH",
"-66 -70 OFFCURVE",
"-97 -64 OFFCURVE",
"-123 -57 CURVE",
"-123 -161 LINE",
"-89 -172 OFFCURVE",
"-54 -179 OFFCURVE",
"-11 -179 CURVE SMOOTH",
"137 -179 OFFCURVE",
"212 -98 OFFCURVE",
"212 47 CURVE SMOOTH",
"212 682 LINE",
"160 676 LINE",
"685 0 LINE",
"853 0 LINE",
"853 750 LINE",
"725 750 LINE",
"725 74 LINE",
"778 80 LINE",
"256 750 LINE",
"84 750 LINE"
);
}
);
width = 937;
},
{
anchors = (
{
name = bottom;
position = "{498, 0}";
},
{
name = top;
position = "{498, 750}";
}
);
layerId = "78844910-45F2-4BCF-9A61-7585832DDE30";
paths = (
{
closed = 1;
nodes = (
"60 105 LINE SMOOTH",
"60 45 OFFCURVE",
"36 10 OFFCURVE",
"-26 10 CURVE SMOOTH",
"-58 10 OFFCURVE",
"-87 16 OFFCURVE",
"-110 23 CURVE",
"-110 -164 LINE",
"-67 -177 OFFCURVE",
"-9 -183 OFFCURVE",
"39 -183 CURVE SMOOTH",
"225 -183 OFFCURVE",
"310 -89 OFFCURVE",
"310 90 CURVE SMOOTH",
"310 595 LINE",
"240 578 LINE",
"612 0 LINE",
"935 0 LINE",
"935 750 LINE",
"685 750 LINE",
"685 171 LINE",
"755 188 LINE",
"393 750 LINE",
"60 750 LINE"
);
}
);
width = 995;
}
);
leftKerningGroup = H;
rightKerningGroup = H;
unicode = 019D;
},
{
glyphname = Nlongrightleg;
lastChange = "2022-05-27 07:16:54 +0000";
layers = (
{
anchors = (
{
name = bottom;
position = "{421, 0}";
},
{
name = top;
position = "{421, 750}";
}
);
layerId = "FAA9A0EB-DB0F-4202-9822-2037CED7424C";
paths = (
{
closed = 1;
nodes = (
"97 0 LINE",
"153 0 LINE",
"153 750 LINE",
"97 750 LINE"
);
},
{
closed = 1;
nodes = (
"263 762 OFFCURVE",
"133 651 OFFCURVE",
"123 484 CURVE",
"153 467 LINE",
"153 611 OFFCURVE",
"265 710 OFFCURVE",
"438 710 CURVE SMOOTH",
"602 710 OFFCURVE",
"689 623 OFFCURVE",
"689 455 CURVE SMOOTH",
"689 -165 LINE",
"745 -165 LINE",
"745 466 LINE SMOOTH",
"745 655 OFFCURVE",
"637 762 OFFCURVE",
"453 762 CURVE SMOOTH"
);
}
);
width = 834;
},
{
anchors = (
{
name = bottom;
position = "{437, 0}";
},
{
name = top;
position = "{452, 750}";
}
);
layerId = "E29665B4-7994-459A-9DF7-986ADB216CAB";
paths = (
{
closed = 1;
nodes = (
"84 0 LINE",
"216 0 LINE",
"216 750 LINE",
"84 750 LINE"
);
},
{
closed = 1;
nodes = (
"316 764 OFFCURVE",
"192 664 OFFCURVE",
"168 464 CURVE",
"216 439 LINE",
"216 563 OFFCURVE",
"305 645 OFFCURVE",
"449 645 CURVE SMOOTH",
"585 645 OFFCURVE",
"658 573 OFFCURVE",
"658 437 CURVE SMOOTH",
"658 -165 LINE",
"790 -165 LINE",
"790 467 LINE SMOOTH",
"790 653 OFFCURVE",
"680 764 OFFCURVE",
"495 764 CURVE SMOOTH"
);
}
);
width = 867;
},
{
anchors = (
{
name = bottom;
position = "{460, 0}";
},
{
name = top;
position = "{510, 750}";
}
);
layerId = "78844910-45F2-4BCF-9A61-7585832DDE30";
paths = (
{
closed = 1;
nodes = (
"60 0 LINE",
"318 0 LINE",
"318 750 LINE",
"60 750 LINE"
);
},
{
closed = 1;
nodes = (
"404 768 OFFCURVE",
"288 686 OFFCURVE",
"241 432 CURVE",
"318 394 LINE",
"318 485 OFFCURVE",
"371 538 OFFCURVE",
"465 538 CURVE SMOOTH",
"554 538 OFFCURVE",
"604 491 OFFCURVE",
"604 408 CURVE SMOOTH",
"604 -165 LINE",
"862 -165 LINE",
"862 469 LINE SMOOTH",
"862 649 OFFCURVE",
"748 768 OFFCURVE",
"562 768 CURVE SMOOTH"
);
}
);
width = 915;
}
);
leftKerningGroup = H;
unicode = 0220;
},
{
glyphname = O;
lastChange = "2022-05-27 07:16:54 +0000";
layers = (
{
anchors = (
{
name = bottom;
position = "{465, 0}";
},
{
name = center;
position = "{465, 375}";
},
{
name = ogonek;
position = "{574, 0}";
},
{
name = top;
position = "{465, 750}";
},
{
name = topleft;
position = "{12, 750}";
},
{
name = topright;
position = "{918, 750}";
}
);
background = {
paths = (
{
closed = 1;
nodes = (
"724 -20 OFFCURVE",
"886 135 OFFCURVE",
"886 375 CURVE SMOOTH",
"886 615 OFFCURVE",
"724 770 OFFCURVE",
"473 770 CURVE SMOOTH",
"222 770 OFFCURVE",
"60 615 OFFCURVE",
"60 375 CURVE SMOOTH",
"60 135 OFFCURVE",
"222 -20 OFFCURVE",
"473 -20 CURVE SMOOTH"
);
},
{
closed = 1;
nodes = (
"266 29 OFFCURVE",
"118 148 OFFCURVE",
"118 375 CURVE SMOOTH",
"118 602 OFFCURVE",
"266 721 OFFCURVE",
"473 721 CURVE SMOOTH",
"680 721 OFFCURVE",
"828 602 OFFCURVE",
"828 375 CURVE SMOOTH",
"828 148 OFFCURVE",
"680 29 OFFCURVE",
"473 29 CURVE SMOOTH"
);
}
);
};
layerId = "FAA9A0EB-DB0F-4202-9822-2037CED7424C";
paths = (
{
closed = 1;
nodes = (
"710 -12 OFFCURVE",
"878 146 OFFCURVE",
"878 375 CURVE SMOOTH",
"878 604 OFFCURVE",
"710 762 OFFCURVE",
"465 762 CURVE SMOOTH",
"220 762 OFFCURVE",
"52 604 OFFCURVE",
"52 375 CURVE SMOOTH",
"52 146 OFFCURVE",
"220 -12 OFFCURVE",
"465 -12 CURVE SMOOTH"
);
},
{
closed = 1;
nodes = (
"249 40 OFFCURVE",
"110 172 OFFCURVE",
"110 375 CURVE SMOOTH",
"110 578 OFFCURVE",
"249 710 OFFCURVE",
"465 710 CURVE SMOOTH",
"681 710 OFFCURVE",
"820 578 OFFCURVE",
"820 375 CURVE SMOOTH",
"820 172 OFFCURVE",
"681 40 OFFCURVE",
"465 40 CURVE SMOOTH"
);
}
);
userData = {
KernOnName = O;
};
width = 930;
},
{
anchors = (
{
name = bottom;
position = "{474, 0}";
},
{
name = center;
position = "{474, 375}";
},
{
name = ogonek;
position = "{600, 0}";
},
{
name = top;
position = "{474, 750}";
},
{
name = topleft;
position = "{14, 750}";
},
{
name = topright;
position = "{935, 750}";
}
);
layerId = "E29665B4-7994-459A-9DF7-986ADB216CAB";
paths = (
{
closed = 1;
nodes = (
"730 -14 OFFCURVE",
"904 143 OFFCURVE",
"904 375 CURVE SMOOTH",
"904 607 OFFCURVE",
"730 764 OFFCURVE",
"474 764 CURVE SMOOTH",
"218 764 OFFCURVE",
"44 607 OFFCURVE",
"44 375 CURVE SMOOTH",
"44 143 OFFCURVE",
"218 -14 OFFCURVE",
"474 -14 CURVE SMOOTH"
);
},
{
closed = 1;
nodes = (
"293 104 OFFCURVE",
"178 209 OFFCURVE",
"178 375 CURVE SMOOTH",
"178 541 OFFCURVE",
"293 646 OFFCURVE",
"474 646 CURVE SMOOTH",
"655 646 OFFCURVE",
"770 541 OFFCURVE",
"770 375 CURVE SMOOTH",
"770 209 OFFCURVE",
"655 104 OFFCURVE",
"474 104 CURVE SMOOTH"
);
}
);
userData = {
KernOnName = O;
};
width = 948;
},
{
anchors = (
{
name = bottom;
position = "{488, 0}";
},
{
name = center;
position = "{488, 375}";
},
{
name = ogonek;
position = "{640, 0}";
},
{
name = top;
position = "{488, 750}";
},
{
name = topleft;
position = "{15, 750}";
},
{
name = topright;
position = "{961, 750}";
}
);
background = {
paths = (
{
closed = 1;
nodes = (
"762 -20 OFFCURVE",
"948 141 OFFCURVE",
"948 375 CURVE SMOOTH",
"948 609 OFFCURVE",
"762 770 OFFCURVE",
"492 770 CURVE SMOOTH",
"222 770 OFFCURVE",
"36 609 OFFCURVE",
"36 375 CURVE SMOOTH",
"36 141 OFFCURVE",
"222 -20 OFFCURVE",
"492 -20 CURVE SMOOTH"
);
},
{
closed = 1;
nodes = (
"371 210 OFFCURVE",
"296 274 OFFCURVE",
"296 375 CURVE SMOOTH",
"296 476 OFFCURVE",
"371 540 OFFCURVE",
"492 540 CURVE SMOOTH",
"613 540 OFFCURVE",
"688 476 OFFCURVE",
"688 375 CURVE SMOOTH",
"688 274 OFFCURVE",
"613 210 OFFCURVE",
"492 210 CURVE SMOOTH"
);
}
);
};
guideLines = (
{
angle = 165.9638;
position = "{488, 646}";
}
);
layerId = "78844910-45F2-4BCF-9A61-7585832DDE30";
paths = (
{
closed = 1;
nodes = (
"762 -18 OFFCURVE",
"944 139 OFFCURVE",
"944 375 CURVE SMOOTH",
"944 611 OFFCURVE",
"762 768 OFFCURVE",
"488 768 CURVE SMOOTH",
"214 768 OFFCURVE",
"32 611 OFFCURVE",
"32 375 CURVE SMOOTH",
"32 139 OFFCURVE",
"214 -18 OFFCURVE",
"488 -18 CURVE SMOOTH"
);
},
{
closed = 1;
nodes = (
"366 212 OFFCURVE",
"292 273 OFFCURVE",
"292 375 CURVE SMOOTH",
"292 477 OFFCURVE",
"366 538 OFFCURVE",
"488 538 CURVE SMOOTH",
"610 538 OFFCURVE",
"684 477 OFFCURVE",
"684 375 CURVE SMOOTH",
"684 273 OFFCURVE",
"610 212 OFFCURVE",
"488 212 CURVE SMOOTH"
);
}
);
userData = {
KernOnName = O;
};
width = 976;
}
);
leftKerningGroup = O;
rightKerningGroup = O;
unicode = 004F;
},
{
glyphname = Ocenteredtilde;
lastChange = "2022-05-27 07:16:54 +0000";
layers = (
{
anchors = (
{
name = bottom;
position = "{465, 0}";
},
{
name = top;
position = "{465, 750}";
}
);
layerId = "FAA9A0EB-DB0F-4202-9822-2037CED7424C";
paths = (
{
closed = 1;
nodes = (
"88 350 LINE",
"842 350 LINE",
"842 400 LINE",
"88 400 LINE"
);
},
{
closed = 1;
nodes = (
"710 -12 OFFCURVE",
"878 146 OFFCURVE",
"878 375 CURVE SMOOTH",
"878 604 OFFCURVE",
"710 762 OFFCURVE",
"465 762 CURVE SMOOTH",
"220 762 OFFCURVE",
"52 604 OFFCURVE",
"52 375 CURVE SMOOTH",
"52 146 OFFCURVE",
"220 -12 OFFCURVE",
"465 -12 CURVE SMOOTH"
);
},
{
closed = 1;
nodes = (
"249 40 OFFCURVE",
"110 172 OFFCURVE",
"110 375 CURVE SMOOTH",
"110 578 OFFCURVE",
"249 710 OFFCURVE",
"465 710 CURVE SMOOTH",
"681 710 OFFCURVE",
"820 578 OFFCURVE",
"820 375 CURVE SMOOTH",
"820 172 OFFCURVE",
"681 40 OFFCURVE",
"465 40 CURVE SMOOTH"
);
}
);
width = 930;
},
{
anchors = (
{
name = bottom;
position = "{474, 0}";
},
{
name = top;
position = "{474, 750}";
}
);
layerId = "E29665B4-7994-459A-9DF7-986ADB216CAB";
paths = (
{
closed = 1;
nodes = (
"90 317 LINE",
"844 317 LINE",
"844 433 LINE",
"90 433 LINE"
);
},
{
closed = 1;
nodes = (
"730 -14 OFFCURVE",
"904 143 OFFCURVE",
"904 375 CURVE SMOOTH",
"904 607 OFFCURVE",
"730 764 OFFCURVE",
"474 764 CURVE SMOOTH",
"218 764 OFFCURVE",
"44 607 OFFCURVE",
"44 375 CURVE SMOOTH",
"44 143 OFFCURVE",
"218 -14 OFFCURVE",
"474 -14 CURVE SMOOTH"
);
},
{
closed = 1;
nodes = (
"293 104 OFFCURVE",
"178 209 OFFCURVE",
"178 375 CURVE SMOOTH",
"178 541 OFFCURVE",
"293 646 OFFCURVE",
"474 646 CURVE SMOOTH",
"655 646 OFFCURVE",
"770 541 OFFCURVE",
"770 375 CURVE SMOOTH",
"770 209 OFFCURVE",
"655 104 OFFCURVE",
"474 104 CURVE SMOOTH"
);
}
);
width = 948;
},
{
anchors = (
{
name = bottom;
position = "{488, 0}";
},
{
name = top;
position = "{488, 750}";
}
);
layerId = "78844910-45F2-4BCF-9A61-7585832DDE30";
paths = (
{
closed = 1;
nodes = (
"92 288 LINE",
"846 288 LINE",
"846 462 LINE",
"92 462 LINE"
);
},
{
closed = 1;
nodes = (
"762 -18 OFFCURVE",
"944 139 OFFCURVE",
"944 375 CURVE SMOOTH",
"944 611 OFFCURVE",
"762 768 OFFCURVE",
"488 768 CURVE SMOOTH",
"214 768 OFFCURVE",
"32 611 OFFCURVE",
"32 375 CURVE SMOOTH",
"32 139 OFFCURVE",
"214 -18 OFFCURVE",
"488 -18 CURVE SMOOTH"
);
},
{
closed = 1;
nodes = (
"360 194 OFFCURVE",
"282 262 OFFCURVE",
"282 375 CURVE SMOOTH",
"282 488 OFFCURVE",
"360 556 OFFCURVE",
"488 556 CURVE SMOOTH",
"616 556 OFFCURVE",
"694 488 OFFCURVE",
"694 375 CURVE SMOOTH",
"694 262 OFFCURVE",
"616 194 OFFCURVE",
"488 194 CURVE SMOOTH"
);
}
);
width = 976;
}
);
leftKerningGroup = O;
rightKerningGroup = O;
unicode = 019F;
},
{
glyphname = Ohorn;
lastChange = "2022-05-27 07:16:54 +0000";
layers = (
{
anchors = (
{
name = bottom;
position = "{465, 0}";
},
{
name = center;
position = "{465, 375}";
},
{
name = ogonek;
position = "{574, 0}";
},
{
name = top;
position = "{465, 750}";
},
{
name = topleft;
position = "{12, 750}";
},
{
name = topright;
position = "{918, 750}";
}
);
guideLines = (
{
angle = 172.875;
position = "{465, 750}";
}
);
layerId = "FAA9A0EB-DB0F-4202-9822-2037CED7424C";
paths = (
{
closed = 1;
nodes = (
"710 -12 OFFCURVE",
"878 146 OFFCURVE",
"878 375 CURVE SMOOTH",
"878 515 OFFCURVE",
"815 629 OFFCURVE",
"710 696 CURVE",
"804 702 OFFCURVE",
"850 744 OFFCURVE",
"850 806 CURVE SMOOTH",
"850 832 OFFCURVE",
"842 860 OFFCURVE",
"830 881 CURVE",
"777 881 LINE",
"790 863 OFFCURVE",
"798 834 OFFCURVE",
"798 813 CURVE SMOOTH",
"798 767 OFFCURVE",
"764 737 OFFCURVE",
"680 737 CURVE SMOOTH",
"645 737 OFFCURVE",
"612 742 OFFCURVE",
"581 749 CURVE SMOOTH",
"545 757 OFFCURVE",
"506 762 OFFCURVE",
"465 762 CURVE SMOOTH",
"220 762 OFFCURVE",
"52 604 OFFCURVE",
"52 375 CURVE SMOOTH",
"52 146 OFFCURVE",
"220 -12 OFFCURVE",
"465 -12 CURVE SMOOTH"
);
},
{
closed = 1;
nodes = (
"249 40 OFFCURVE",
"110 172 OFFCURVE",
"110 375 CURVE SMOOTH",
"110 578 OFFCURVE",
"249 710 OFFCURVE",
"465 710 CURVE SMOOTH",
"681 710 OFFCURVE",
"820 578 OFFCURVE",
"820 375 CURVE SMOOTH",
"820 172 OFFCURVE",
"681 40 OFFCURVE",
"465 40 CURVE SMOOTH"
);
}
);
width = 925;
},
{
anchors = (
{
name = bottom;
position = "{470, 0}";
},
{
name = center;
position = "{473, 375}";
},
{
name = ogonek;
position = "{599, 0}";
},
{
name = top;
position = "{470, 750}";
},
{
name = topleft;
position = "{13, 750}";
},
{
name = topright;
position = "{934, 750}";
}
);
layerId = "E29665B4-7994-459A-9DF7-986ADB216CAB";
paths = (
{
closed = 1;
nodes = (
"728 -14 OFFCURVE",
"902 143 OFFCURVE",
"902 375 CURVE SMOOTH",
"902 499 OFFCURVE",
"851 601 OFFCURVE",
"765 668 CURVE",
"858 680 OFFCURVE",
"905 726 OFFCURVE",
"905 791 CURVE SMOOTH",
"905 821 OFFCURVE",
"895 854 OFFCURVE",
"879 881 CURVE",
"765 881 LINE",
"781 858 OFFCURVE",
"790 831 OFFCURVE",
"790 809 CURVE SMOOTH",
"790 769 OFFCURVE",
"762 739 OFFCURVE",
"690 739 CURVE SMOOTH",
"658 739 OFFCURVE",
"627 744 OFFCURVE",
"597 751 CURVE SMOOTH",
"562 759 OFFCURVE",
"522 764 OFFCURVE",
"473 764 CURVE SMOOTH",
"217 764 OFFCURVE",
"44 607 OFFCURVE",
"44 375 CURVE SMOOTH",
"44 143 OFFCURVE",
"217 -14 OFFCURVE",
"473 -14 CURVE SMOOTH"
);
},
{
closed = 1;
nodes = (
"292 104 OFFCURVE",
"178 209 OFFCURVE",
"178 375 CURVE SMOOTH",
"178 541 OFFCURVE",
"292 646 OFFCURVE",
"473 646 CURVE SMOOTH",
"654 646 OFFCURVE",
"768 541 OFFCURVE",
"768 375 CURVE SMOOTH",
"768 209 OFFCURVE",
"654 104 OFFCURVE",
"473 104 CURVE SMOOTH"
);
}
);
width = 944;
},
{
anchors = (
{
name = bottom;
position = "{480, 0}";
},
{
name = center;
position = "{488, 375}";
},
{
name = ogonek;
position = "{640, 0}";
},
{
name = top;
position = "{480, 750}";
},
{
name = topleft;
position = "{15, 750}";
},
{
name = topright;
position = "{961, 750}";
}
);
guideLines = (
{
angle = 165.9638;
position = "{481, 750}";
}
);
layerId = "78844910-45F2-4BCF-9A61-7585832DDE30";
paths = (
{
closed = 1;
nodes = (
"762 -18 OFFCURVE",
"944 139 OFFCURVE",
"944 375 CURVE SMOOTH",
"944 472 OFFCURVE",
"913 556 OFFCURVE",
"857 621 CURVE",
"940 644 OFFCURVE",
"986 697 OFFCURVE",
"986 767 CURVE SMOOTH",
"986 804 OFFCURVE",
"973 843 OFFCURVE",
"949 880 CURVE",
"763 880 LINE",
"784 849 OFFCURVE",
"794 825 OFFCURVE",
"794 802 CURVE SMOOTH",
"794 773 OFFCURVE",
"771 743 OFFCURVE",
"707 743 CURVE SMOOTH",
"680 743 OFFCURVE",
"654 748 OFFCURVE",
"625 754 CURVE SMOOTH",
"590 761 OFFCURVE",
"550 768 OFFCURVE",
"488 768 CURVE SMOOTH",
"214 768 OFFCURVE",
"32 611 OFFCURVE",
"32 375 CURVE SMOOTH",
"32 139 OFFCURVE",
"214 -18 OFFCURVE",
"488 -18 CURVE SMOOTH"
);
},
{
closed = 1;
nodes = (
"366 212 OFFCURVE",
"292 273 OFFCURVE",
"292 375 CURVE SMOOTH",
"292 477 OFFCURVE",
"366 538 OFFCURVE",
"488 538 CURVE SMOOTH",
"610 538 OFFCURVE",
"684 477 OFFCURVE",
"684 375 CURVE SMOOTH",
"684 273 OFFCURVE",
"610 212 OFFCURVE",
"488 212 CURVE SMOOTH"
);
}
);
width = 989;
}
);
leftKerningGroup = O;
rightKerningGroup = Ohorn;
unicode = 01A0;
},
{
glyphname = "Omega-latin";
lastChange = "2022-05-27 07:16:54 +0000";
layers = (
{
anchors = (
{
name = bottom;
position = "{547, 0}";
},
{
name = top;
position = "{547, 750}";
}
);
layerId = "FAA9A0EB-DB0F-4202-9822-2037CED7424C";
paths = (
{
closed = 1;
nodes = (
"56 131 OFFCURVE",
"160 -12 OFFCURVE",
"329 -12 CURVE SMOOTH",
"477 -12 OFFCURVE",
"569 100 OFFCURVE",
"555 305 CURVE",
"541 305 LINE",
"527 100 OFFCURVE",
"619 -12 OFFCURVE",
"767 -12 CURVE SMOOTH",
"936 -12 OFFCURVE",
"1040 131 OFFCURVE",
"1040 356 CURVE SMOOTH",
"1040 581 OFFCURVE",
"926 739 OFFCURVE",
"728 753 CURVE",
"728 694 LINE",
"904 676 OFFCURVE",
"982 532 OFFCURVE",
"982 356 CURVE SMOOTH",
"982 154 OFFCURVE",
"900 40 OFFCURVE",
"766 40 CURVE SMOOTH",
"653 40 OFFCURVE",
"575 121 OFFCURVE",
"575 319 CURVE SMOOTH",
"575 483 LINE",
"521 483 LINE",
"521 319 LINE SMOOTH",
"521 121 OFFCURVE",
"443 40 OFFCURVE",
"330 40 CURVE SMOOTH",
"196 40 OFFCURVE",
"114 154 OFFCURVE",
"114 356 CURVE SMOOTH",
"114 532 OFFCURVE",
"192 676 OFFCURVE",
"368 694 CURVE",
"368 753 LINE",
"170 739 OFFCURVE",
"56 581 OFFCURVE",
"56 356 CURVE SMOOTH"
);
}
);
width = 1096;
},
{
anchors = (
{
name = bottom;
position = "{563, 0}";
},
{
name = top;
position = "{563, 750}";
}
);
layerId = "E29665B4-7994-459A-9DF7-986ADB216CAB";
paths = (
{
closed = 1;
nodes = (
"48 134 OFFCURVE",
"161 -14 OFFCURVE",
"336 -14 CURVE SMOOTH",
"497 -14 OFFCURVE",
"588 102 OFFCURVE",
"575 306 CURVE",
"554 306 LINE",
"541 102 OFFCURVE",
"632 -14 OFFCURVE",
"793 -14 CURVE SMOOTH",
"968 -14 OFFCURVE",
"1081 134 OFFCURVE",
"1081 361 CURVE SMOOTH",
"1081 586 OFFCURVE",
"954 745 OFFCURVE",
"733 755 CURVE",
"733 633 LINE",
"876 618 OFFCURVE",
"947 517 OFFCURVE",
"947 361 CURVE SMOOTH",
"947 195 OFFCURVE",
"881 102 OFFCURVE",
"774 102 CURVE SMOOTH",
"678 102 OFFCURVE",
"623 171 OFFCURVE",
"623 339 CURVE SMOOTH",
"623 483 LINE",
"506 483 LINE",
"506 339 LINE SMOOTH",
"506 171 OFFCURVE",
"451 102 OFFCURVE",
"355 102 CURVE SMOOTH",
"248 102 OFFCURVE",
"182 195 OFFCURVE",
"182 361 CURVE SMOOTH",
"182 517 OFFCURVE",
"253 618 OFFCURVE",
"396 633 CURVE",
"396 755 LINE",
"175 745 OFFCURVE",
"48 586 OFFCURVE",
"48 361 CURVE SMOOTH"
);
}
);
width = 1129;
},
{
anchors = (
{
name = bottom;
position = "{590, 0}";
},
{
name = top;
position = "{590, 750}";
}
);
layerId = "78844910-45F2-4BCF-9A61-7585832DDE30";
paths = (
{
closed = 1;
nodes = (
"35 139 OFFCURVE",
"163 -18 OFFCURVE",
"347 -18 CURVE SMOOTH",
"531 -18 OFFCURVE",
"620 106 OFFCURVE",
"609 307 CURVE",
"574 307 LINE",
"563 106 OFFCURVE",
"652 -18 OFFCURVE",
"836 -18 CURVE SMOOTH",
"1020 -18 OFFCURVE",
"1148 139 OFFCURVE",
"1148 368 CURVE SMOOTH",
"1148 595 OFFCURVE",
"999 754 OFFCURVE",
"742 759 CURVE",
"742 538 LINE",
"829 530 OFFCURVE",
"888 492 OFFCURVE",
"888 368 CURVE SMOOTH",
"888 263 OFFCURVE",
"848 206 OFFCURVE",
"787 206 CURVE SMOOTH",
"719 206 OFFCURVE",
"698 255 OFFCURVE",
"698 373 CURVE SMOOTH",
"698 484 LINE",
"485 484 LINE",
"485 373 LINE SMOOTH",
"485 255 OFFCURVE",
"464 206 OFFCURVE",
"396 206 CURVE SMOOTH",
"335 206 OFFCURVE",
"295 263 OFFCURVE",
"295 368 CURVE SMOOTH",
"295 492 OFFCURVE",
"354 530 OFFCURVE",
"441 538 CURVE",
"441 759 LINE",
"184 754 OFFCURVE",
"35 595 OFFCURVE",
"35 368 CURVE SMOOTH"
);
}
);
width = 1183;
}
);
leftKerningGroup = O;
rightKerningGroup = O;
unicode = A7B6;
},
{
glyphname = Oogonek;
lastChange = "2022-05-27 07:16:54 +0000";
layers = (
{
anchors = (
{
name = bottom;
position = "{465, 0}";
},
{
name = center;
position = "{465, 375}";
},
{
name = ogonek;
position = "{574, -1}";
},
{
name = top;
position = "{465, 750}";
},
{
name = topleft;
position = "{12, 750}";
},
{
name = topright;
position = "{918, 750}";
}
);
background = {
anchors = (
{
name = bottom;
position = "{473, 0}";
},
{
name = center;
position = "{473, 375}";
},
{
name = top;
position = "{473, 750}";
},
{
name = topleft;
position = "{20, 750}";
},
{
name = topright;
position = "{926, 750}";
}
);
components = (
{
name = O;
},
{
name = ogonekcomb;
transform = "{1, 0, 0, 1, 341, 0}";
}
);
};
layerId = "FAA9A0EB-DB0F-4202-9822-2037CED7424C";
paths = (
{
closed = 1;
nodes = (
"574 -130 LINE",
"556 -134 OFFCURVE",
"530 -136 OFFCURVE",
"510 -136 CURVE SMOOTH",
"454 -136 OFFCURVE",
"425 -122 OFFCURVE",
"425 -95 CURVE SMOOTH",
"425 -57 OFFCURVE",
"486 -24 OFFCURVE",
"574 -1 CURVE SMOOTH",
"759 47 OFFCURVE",
"878 180 OFFCURVE",
"878 375 CURVE SMOOTH",
"878 604 OFFCURVE",
"710 762 OFFCURVE",
"465 762 CURVE SMOOTH",
"220 762 OFFCURVE",
"52 604 OFFCURVE",
"52 375 CURVE SMOOTH",
"52 144 OFFCURVE",
"223 -14 OFFCURVE",
"470 -12 CURVE",
"475 -1 LINE",
"401 -32 OFFCURVE",
"373 -67 OFFCURVE",
"373 -105 CURVE SMOOTH",
"373 -152 OFFCURVE",
"424 -181 OFFCURVE",
"501 -181 CURVE SMOOTH",
"528 -181 OFFCURVE",
"557 -177 OFFCURVE",
"574 -172 CURVE"
);
},
{
closed = 1;
nodes = (
"110 578 OFFCURVE",
"249 710 OFFCURVE",
"465 710 CURVE SMOOTH",
"681 710 OFFCURVE",
"820 578 OFFCURVE",
"820 375 CURVE SMOOTH",
"820 172 OFFCURVE",
"681 40 OFFCURVE",
"465 40 CURVE SMOOTH",
"249 40 OFFCURVE",
"110 172 OFFCURVE",
"110 375 CURVE SMOOTH"
);
}
);
width = 930;
},
{
anchors = (
{
name = bottom;
position = "{474, 0}";
},
{
name = center;
position = "{474, 375}";
},
{
name = ogonek;
position = "{599, 0}";
},
{
name = top;
position = "{474, 750}";
},
{
name = topleft;
position = "{14, 750}";
},
{
name = topright;
position = "{935, 750}";
}
);
layerId = "E29665B4-7994-459A-9DF7-986ADB216CAB";
paths = (
{
closed = 1;
nodes = (
"600 -102 LINE",
"583 -106 OFFCURVE",
"560 -108 OFFCURVE",
"539 -108 CURVE SMOOTH",
"499 -108 OFFCURVE",
"478 -98 OFFCURVE",
"478 -77 CURVE SMOOTH",
"478 -48 OFFCURVE",
"516 -20 OFFCURVE",
"599 0 CURVE SMOOTH",
"783 44 OFFCURVE",
"904 183 OFFCURVE",
"904 375 CURVE SMOOTH",
"904 607 OFFCURVE",
"730 764 OFFCURVE",
"474 764 CURVE SMOOTH",
"218 764 OFFCURVE",
"44 607 OFFCURVE",
"44 375 CURVE SMOOTH",
"44 142 OFFCURVE",
"220 -17 OFFCURVE",
"480 -14 CURVE",
"489 6 LINE",
"409 -25 OFFCURVE",
"374 -59 OFFCURVE",
"374 -104 CURVE SMOOTH",
"374 -160 OFFCURVE",
"428 -197 OFFCURVE",
"509 -197 CURVE SMOOTH",
"545 -197 OFFCURVE",
"583 -191 OFFCURVE",
"600 -185 CURVE"
);
},
{
closed = 1;
nodes = (
"178 541 OFFCURVE",
"293 646 OFFCURVE",
"474 646 CURVE SMOOTH",
"655 646 OFFCURVE",
"770 541 OFFCURVE",
"770 375 CURVE SMOOTH",
"770 209 OFFCURVE",
"655 104 OFFCURVE",
"474 104 CURVE SMOOTH",
"293 104 OFFCURVE",
"178 209 OFFCURVE",
"178 375 CURVE SMOOTH"
);
}
);
width = 948;
},
{
anchors = (
{
name = bottom;
position = "{488, 0}";
},
{
name = center;
position = "{488, 375}";
},
{
name = ogonek;
position = "{640, 0}";
},
{
name = top;
position = "{488, 750}";
},
{
name = topleft;
position = "{15, 750}";
},
{
name = topright;
position = "{961, 750}";
}
);
layerId = "78844910-45F2-4BCF-9A61-7585832DDE30";
paths = (
{
closed = 1;
nodes = (
"640 -82 LINE",
"623 -86 OFFCURVE",
"605 -89 OFFCURVE",
"583 -89 CURVE SMOOTH",
"543 -89 OFFCURVE",
"521 -80 OFFCURVE",
"521 -63 CURVE SMOOTH",
"521 -42 OFFCURVE",
"563 -20 OFFCURVE",
"640 0 CURVE SMOOTH",
"827 48 OFFCURVE",
"944 186 OFFCURVE",
"944 375 CURVE SMOOTH",
"944 611 OFFCURVE",
"762 768 OFFCURVE",
"488 768 CURVE SMOOTH",
"214 768 OFFCURVE",
"32 611 OFFCURVE",
"32 375 CURVE SMOOTH",
"32 129 OFFCURVE",
"231 -32 OFFCURVE",
"526 -18 CURVE",
"541 10 LINE",
"415 -15 OFFCURVE",
"347 -60 OFFCURVE",
"347 -124 CURVE SMOOTH",
"347 -183 OFFCURVE",
"416 -222 OFFCURVE",
"519 -222 CURVE SMOOTH",
"569 -222 OFFCURVE",
"622 -213 OFFCURVE",
"640 -206 CURVE"
);
},
{
closed = 1;
nodes = (
"292 477 OFFCURVE",
"366 538 OFFCURVE",
"488 538 CURVE SMOOTH",
"610 538 OFFCURVE",
"684 477 OFFCURVE",
"684 375 CURVE SMOOTH",
"684 273 OFFCURVE",
"610 212 OFFCURVE",
"488 212 CURVE SMOOTH",
"366 212 OFFCURVE",
"292 273 OFFCURVE",
"292 375 CURVE SMOOTH"
);
}
);
width = 976;
}
);
leftKerningGroup = O;
rightKerningGroup = O;
unicode = 01EA;
},
{
glyphname = Oslash;
lastChange = "2022-05-27 07:16:54 +0000";
layers = (
{
anchors = (
{
name = bottom;
position = "{465, 0}";
},
{
name = center;
position = "{465, 375}";
},
{
name = ogonek;
position = "{647, 42}";
},
{
name = top;
position = "{465, 750}";
},
{
name = topleft;
position = "{12, 750}";
},
{
name = topright;
position = "{918, 750}";
}
);
layerId = "FAA9A0EB-DB0F-4202-9822-2037CED7424C";
paths = (
{
closed = 1;
nodes = (
"72 -10 LINE",
"140 -10 LINE",
"858 760 LINE",
"790 760 LINE"
);
},
{
closed = 1;
nodes = (
"710 -12 OFFCURVE",
"878 146 OFFCURVE",
"878 375 CURVE SMOOTH",
"878 604 OFFCURVE",
"710 762 OFFCURVE",
"465 762 CURVE SMOOTH",
"220 762 OFFCURVE",
"52 604 OFFCURVE",
"52 375 CURVE SMOOTH",
"52 146 OFFCURVE",
"220 -12 OFFCURVE",
"465 -12 CURVE SMOOTH"
);
},
{
closed = 1;
nodes = (
"249 40 OFFCURVE",
"110 172 OFFCURVE",
"110 375 CURVE SMOOTH",
"110 578 OFFCURVE",
"249 710 OFFCURVE",
"465 710 CURVE SMOOTH",
"681 710 OFFCURVE",
"820 578 OFFCURVE",
"820 375 CURVE SMOOTH",
"820 172 OFFCURVE",
"681 40 OFFCURVE",
"465 40 CURVE SMOOTH"
);
}
);
width = 930;
},
{
anchors = (
{
name = bottom;
position = "{473, 0}";
},
{
name = center;
position = "{473, 375}";
},
{
name = ogonek;
position = "{640, 31}";
},
{
name = top;
position = "{473, 750}";
},
{
name = topleft;
position = "{13, 750}";
},
{
name = topright;
position = "{934, 750}";
}
);
background = {
paths = (
{
closed = 1;
nodes = (
"71 -14 LINE",
"197 -14 LINE",
"890 764 LINE",
"763 764 LINE"
);
},
{
closed = 1;
nodes = (
"736 -14 OFFCURVE",
"910 143 OFFCURVE",
"910 375 CURVE SMOOTH",
"910 607 OFFCURVE",
"736 764 OFFCURVE",
"480 764 CURVE SMOOTH",
"224 764 OFFCURVE",
"51 607 OFFCURVE",
"51 375 CURVE SMOOTH",
"51 143 OFFCURVE",
"224 -14 OFFCURVE",
"480 -14 CURVE SMOOTH"
);
},
{
closed = 1;
nodes = (
"298 99 OFFCURVE",
"182 206 OFFCURVE",
"182 375 CURVE SMOOTH",
"182 544 OFFCURVE",
"298 651 OFFCURVE",
"480 651 CURVE SMOOTH",
"663 651 OFFCURVE",
"779 544 OFFCURVE",
"779 375 CURVE SMOOTH",
"779 206 OFFCURVE",
"663 99 OFFCURVE",
"480 99 CURVE SMOOTH"
);
}
);
};
layerId = "E29665B4-7994-459A-9DF7-986ADB216CAB";
paths = (
{
closed = 1;
nodes = (
"64 -14 LINE",
"197 -14 LINE",
"883 764 LINE",
"750 764 LINE"
);
},
{
closed = 1;
nodes = (
"729 -14 OFFCURVE",
"903 143 OFFCURVE",
"903 375 CURVE SMOOTH",
"903 607 OFFCURVE",
"719 764 OFFCURVE",
"473 764 CURVE SMOOTH",
"217 764 OFFCURVE",
"44 607 OFFCURVE",
"44 375 CURVE SMOOTH",
"44 143 OFFCURVE",
"217 -14 OFFCURVE",
"473 -14 CURVE SMOOTH"
);
},
{
closed = 1;
nodes = (
"293 104 OFFCURVE",
"178 209 OFFCURVE",
"178 375 CURVE SMOOTH",
"178 541 OFFCURVE",
"293 646 OFFCURVE",
"473 646 CURVE SMOOTH",
"654 646 OFFCURVE",
"769 541 OFFCURVE",
"769 375 CURVE SMOOTH",
"769 209 OFFCURVE",
"654 104 OFFCURVE",
"473 104 CURVE SMOOTH"
);
}
);
width = 947;
},
{
anchors = (
{
name = bottom;
position = "{488, 0}";
},
{
name = center;
position = "{488, 375}";
},
{
name = ogonek;
position = "{629, 12}";
},
{
name = top;
position = "{488, 750}";
},
{
name = topleft;
position = "{15, 750}";
},
{
name = topright;
position = "{961, 750}";
}
);
layerId = "78844910-45F2-4BCF-9A61-7585832DDE30";
paths = (
{
closed = 1;
nodes = (
"52 -20 LINE",
"273 -20 LINE",
"924 770 LINE",
"703 770 LINE"
);
},
{
closed = 1;
nodes = (
"762 -18 OFFCURVE",
"944 139 OFFCURVE",
"944 375 CURVE SMOOTH",
"944 611 OFFCURVE",
"762 768 OFFCURVE",
"488 768 CURVE SMOOTH",
"214 768 OFFCURVE",
"32 611 OFFCURVE",
"32 375 CURVE SMOOTH",
"32 139 OFFCURVE",
"214 -18 OFFCURVE",
"488 -18 CURVE SMOOTH"
);
},
{
closed = 1;
nodes = (
"360 194 OFFCURVE",
"282 262 OFFCURVE",
"282 375 CURVE SMOOTH",
"282 488 OFFCURVE",
"360 556 OFFCURVE",
"488 556 CURVE SMOOTH",
"616 556 OFFCURVE",
"694 488 OFFCURVE",
"694 375 CURVE SMOOTH",
"694 262 OFFCURVE",
"616 194 OFFCURVE",
"488 194 CURVE SMOOTH"
);
}
);
width = 976;
}
);
leftKerningGroup = O;
rightKerningGroup = O;
unicode = 00D8;
},
{
glyphname = OE;
lastChange = "2022-05-27 07:16:54 +0000";
layers = (
{
anchors = (
{
name = bottom;
position = "{673, 0}";
},
{
name = top;
position = "{673, 750}";
}
);
layerId = "FAA9A0EB-DB0F-4202-9822-2037CED7424C";
paths = (
{
closed = 1;
nodes = (
"1298 0 LINE",
"1298 49 LINE",
"765 49 LINE",
"765 350 LINE",
"1273 350 LINE",
"1273 400 LINE",
"765 400 LINE",
"765 700 LINE",
"1293 700 LINE",
"1293 750 LINE",
"455 750 LINE SMOOTH",
"210 750 OFFCURVE",
"52 597 OFFCURVE",
"52 375 CURVE SMOOTH",
"52 153 OFFCURVE",
"220 0 OFFCURVE",
"465 0 CURVE SMOOTH"
);
},
{
closed = 1;
nodes = (
"255 49 OFFCURVE",
"110 182 OFFCURVE",
"110 375 CURVE SMOOTH",
"110 568 OFFCURVE",
"255 701 OFFCURVE",
"465 701 CURVE SMOOTH",
"709 701 LINE",
"709 49 LINE",
"465 49 LINE SMOOTH"
);
}
);
width = 1353;
},
{
anchors = (
{
name = bottom;
position = "{670, 0}";
},
{
name = top;
position = "{670, 750}";
}
);
background = {
paths = (
{
closed = 1;
nodes = (
"1297 0 LINE",
"1297 108 LINE",
"806 108 LINE",
"806 326 LINE",
"1267 326 LINE",
"1267 424 LINE",
"806 424 LINE",
"806 641 LINE",
"1292 641 LINE",
"1292 750 LINE",
"473 750 LINE SMOOTH",
"217 750 OFFCURVE",
"50 599 OFFCURVE",
"50 375 CURVE SMOOTH",
"50 151 OFFCURVE",
"223 0 OFFCURVE",
"479 0 CURVE SMOOTH"
);
},
{
closed = 1;
nodes = (
"300 118 OFFCURVE",
"185 221 OFFCURVE",
"185 375 CURVE SMOOTH",
"185 529 OFFCURVE",
"300 632 OFFCURVE",
"472 632 CURVE SMOOTH",
"677 632 LINE",
"677 118 LINE",
"472 118 LINE SMOOTH"
);
}
);
};
layerId = "E29665B4-7994-459A-9DF7-986ADB216CAB";
paths = (
{
closed = 1;
nodes = (
"1292 0 LINE",
"1292 114 LINE",
"801 114 LINE",
"801 321 LINE",
"1262 321 LINE",
"1262 431 LINE",
"801 431 LINE",
"801 636 LINE",
"1287 636 LINE",
"1287 750 LINE",
"467 750 LINE SMOOTH",
"211 750 OFFCURVE",
"44 599 OFFCURVE",
"44 375 CURVE SMOOTH",
"44 151 OFFCURVE",
"217 0 OFFCURVE",
"473 0 CURVE SMOOTH"
);
},
{
closed = 1;
nodes = (
"293 116 OFFCURVE",
"178 220 OFFCURVE",
"178 375 CURVE SMOOTH",
"178 530 OFFCURVE",
"293 634 OFFCURVE",
"466 634 CURVE SMOOTH",
"671 634 LINE",
"671 116 LINE",
"466 116 LINE SMOOTH"
);
}
);
width = 1346;
},
{
anchors = (
{
name = bottom;
position = "{660, 0}";
},
{
name = top;
position = "{660, 750}";
}
);
layerId = "78844910-45F2-4BCF-9A61-7585832DDE30";
paths = (
{
closed = 1;
nodes = (
"1280 0 LINE",
"1280 204 LINE",
"859 204 LINE",
"859 286 LINE",
"1243 286 LINE",
"1243 464 LINE",
"859 464 LINE",
"859 546 LINE",
"1275 546 LINE",
"1275 750 LINE",
"488 750 LINE SMOOTH",
"214 750 OFFCURVE",
"32 602 OFFCURVE",
"32 375 CURVE SMOOTH",
"32 148 OFFCURVE",
"214 0 OFFCURVE",
"488 0 CURVE SMOOTH"
);
},
{
closed = 1;
nodes = (
"358 230 OFFCURVE",
"292 284 OFFCURVE",
"292 375 CURVE SMOOTH",
"292 466 OFFCURVE",
"358 520 OFFCURVE",
"468 520 CURVE SMOOTH",
"611 520 LINE",
"611 230 LINE",
"468 230 LINE SMOOTH"
);
}
);
width = 1326;
}
);
rightKerningGroup = E;
unicode = 0152;
},
{
glyphname = P;
lastChange = "2022-05-27 07:16:54 +0000";
layers = (
{
anchors = (
{
name = bottom;
position = "{388, 0}";
},
{
name = top;
position = "{386, 750}";
}
);
background = {
paths = (
{
closed = 1;
nodes = (
"89 0 LINE",
"145 0 LINE",
"145 750 LINE",
"89 750 LINE"
);
},
{
closed = 1;
nodes = (
"616 330 OFFCURVE",
"705 419 OFFCURVE",
"705 540 CURVE SMOOTH",
"705 661 OFFCURVE",
"632 750 OFFCURVE",
"461 750 CURVE SMOOTH",
"129 750 LINE",
"129 700 LINE",
"462 700 LINE SMOOTH",
"586 700 OFFCURVE",
"647 637 OFFCURVE",
"647 540 CURVE SMOOTH",
"647 443 OFFCURVE",
"579 380 OFFCURVE",
"462 380 CURVE SMOOTH",
"128 380 LINE",
"128 330 LINE",
"461 330 LINE SMOOTH"
);
}
);
};
layerId = "FAA9A0EB-DB0F-4202-9822-2037CED7424C";
paths = (
{
closed = 1;
nodes = (
"97 750 LINE",
"97 0 LINE",
"153 0 LINE",
"153 725 LINE",
"128 700 LINE",
"470 700 LINE SMOOTH",
"582 700 OFFCURVE",
"655 637 OFFCURVE",
"655 540 CURVE SMOOTH",
"655 443 OFFCURVE",
"582 380 OFFCURVE",
"470 380 CURVE SMOOTH",
"121 380 LINE",
"121 330 LINE",
"469 330 LINE SMOOTH",
"614 330 OFFCURVE",
"713 416 OFFCURVE",
"713 540 CURVE SMOOTH",
"713 664 OFFCURVE",
"614 750 OFFCURVE",
"469 750 CURVE SMOOTH"
);
}
);
userData = {
KernOnName = P;
};
width = 741;
},
{
anchors = (
{
name = bottom;
position = "{401, 0}";
},
{
name = top;
position = "{401, 750}";
}
);
layerId = "E29665B4-7994-459A-9DF7-986ADB216CAB";
paths = (
{
closed = 1;
nodes = (
"84 750 LINE",
"84 0 LINE",
"216 0 LINE",
"216 702 LINE",
"157 636 LINE",
"476 636 LINE SMOOTH",
"566 636 OFFCURVE",
"621 589 OFFCURVE",
"621 513 CURVE SMOOTH",
"621 437 OFFCURVE",
"566 390 OFFCURVE",
"476 390 CURVE SMOOTH",
"144 390 LINE",
"144 276 LINE",
"481 276 LINE SMOOTH",
"648 276 OFFCURVE",
"755 373 OFFCURVE",
"755 513 CURVE SMOOTH",
"755 653 OFFCURVE",
"648 750 OFFCURVE",
"481 750 CURVE SMOOTH"
);
}
);
userData = {
KernOnName = P;
};
width = 779;
},
{
anchors = (
{
name = bottom;
position = "{421, 0}";
},
{
name = top;
position = "{421, 750}";
}
);
background = {
paths = (
{
closed = 1;
nodes = (
"57 0 LINE",
"312 0 LINE",
"312 750 LINE",
"57 750 LINE"
);
},
{
closed = 1;
nodes = (
"708 206 OFFCURVE",
"817 302 OFFCURVE",
"817 479 CURVE SMOOTH",
"817 632 OFFCURVE",
"735 750 OFFCURVE",
"561 750 CURVE SMOOTH",
"226 750 LINE",
"226 549 LINE",
"477 549 LINE SMOOTH",
"530 549 OFFCURVE",
"557 514 OFFCURVE",
"557 479 CURVE SMOOTH",
"557 422 OFFCURVE",
"526 407 OFFCURVE",
"477 407 CURVE SMOOTH",
"225 407 LINE",
"225 206 LINE",
"531 206 LINE SMOOTH"
);
}
);
};
layerId = "78844910-45F2-4BCF-9A61-7585832DDE30";
paths = (
{
closed = 1;
nodes = (
"60 750 LINE",
"60 0 LINE",
"318 0 LINE",
"318 665 LINE",
"202 549 LINE",
"480 549 LINE SMOOTH",
"531 549 OFFCURVE",
"560 523 OFFCURVE",
"560 477 CURVE SMOOTH",
"560 431 OFFCURVE",
"531 405 OFFCURVE",
"480 405 CURVE SMOOTH",
"180 405 LINE",
"180 204 LINE",
"497 204 LINE SMOOTH",
"701 204 OFFCURVE",
"820 311 OFFCURVE",
"820 477 CURVE SMOOTH",
"820 643 OFFCURVE",
"701 750 OFFCURVE",
"497 750 CURVE SMOOTH"
);
}
);
userData = {
KernOnName = P;
};
width = 837;
}
);
leftKerningGroup = H;
rightKerningGroup = P;
unicode = 0050;
},
